<?xml version="1.0" encoding="utf-8"?>
<!-- Generator: Adobe Illustrator 19.1.0, SVG Export Plug-In . SVG Version: 6.00 Build 0)  -->
<svg version="1.1" id="圖層_1" xmlns="http://www.w3.org/2000/svg" xmlns:xlink="http://www.w3.org/1999/xlink" x="0px" y="0px"
	 viewBox="0 0 810.3 312.2" style="enable-background:new 0 0 810.3 312.2;" xml:space="preserve">
<style type="text/css">
	.st0{fill:url(#SVGID_1_);}
	.st1{fill:none;stroke:#33CC99;stroke-width:1.5;stroke-miterlimit:10;}
	.st2{fill:#33CC99;stroke:#33CC99;stroke-width:0.1705;stroke-miterlimit:10;}
	.st3{fill:url(#SVGID_2_);stroke:#906C8C;stroke-width:2.533;stroke-miterlimit:10;}
	.st4{fill:#717071;}
	.st5{fill:url(#SVGID_3_);}
	.st6{fill:#33CC99;stroke:#33CC99;stroke-width:0.2457;stroke-miterlimit:10;}
	.st7{fill:#FFFFFF;}
	.st8{fill:url(#SVGID_4_);}
	.st9{fill:url(#SVGID_5_);stroke:#33CC99;stroke-width:1.5;stroke-miterlimit:10;}
	.st10{fill:#33CC99;}
	.st11{fill:url(#SVGID_6_);}
	.st12{fill:url(#SVGID_7_);}
	.st13{fill:url(#SVGID_8_);stroke:#33CC99;stroke-width:1.5;stroke-miterlimit:10;}
	.st14{fill:url(#SVGID_9_);}
	.st15{fill:url(#SVGID_10_);}
	.st16{fill:url(#SVGID_11_);}
	.st17{fill:url(#SVGID_12_);stroke:#33CC99;stroke-width:1.5;stroke-miterlimit:10;}
	.st18{fill:url(#SVGID_13_);stroke:#33CC99;stroke-width:1.5;stroke-miterlimit:10;}
	.st19{fill:url(#SVGID_14_);}
	.st20{fill:url(#SVGID_15_);}
	.st21{fill:url(#SVGID_16_);stroke:#33CC99;stroke-width:1.5;stroke-miterlimit:10;}
	.st22{fill:url(#SVGID_17_);stroke:#33CC99;stroke-width:1.5;stroke-miterlimit:10;}
	.st23{fill:url(#SVGID_18_);stroke:#33CC99;stroke-width:1.5;stroke-miterlimit:10;}
	.st24{fill:url(#SVGID_19_);}
	.st25{fill:url(#SVGID_20_);stroke:#33CC99;stroke-width:1.5;stroke-miterlimit:10;}
	.st26{opacity:0.66;}
	.st27{fill:url(#SVGID_21_);}
	.st28{fill:url(#SVGID_22_);}
	.st29{fill:url(#SVGID_23_);stroke:#33CC99;stroke-width:1.5;stroke-miterlimit:10;}
	.st30{fill:url(#SVGID_24_);stroke:#33CC99;stroke-width:1.5;stroke-miterlimit:10;}
	.st31{fill:url(#SVGID_25_);stroke:#33CC99;stroke-width:1.5;stroke-miterlimit:10;}
	.st32{fill:none;stroke:#29C5EF;stroke-miterlimit:10;}
	.st33{fill:url(#SVGID_26_);stroke:#33CC99;stroke-width:1.5;stroke-miterlimit:10;}
	.st34{fill:url(#SVGID_27_);}
	.st35{fill:url(#SVGID_28_);}
	.st36{fill:url(#SVGID_29_);stroke:#33CC99;stroke-width:1.5;stroke-miterlimit:10;}
	.st37{fill:url(#SVGID_30_);}
	.st38{fill:url(#SVGID_31_);}
	.st39{fill:url(#SVGID_32_);}
	.st40{fill:url(#SVGID_33_);stroke:#33CC99;stroke-width:1.5;stroke-miterlimit:10;}
	.st41{fill:url(#SVGID_34_);stroke:#33CC99;stroke-width:1.5;stroke-miterlimit:10;}
	.st42{fill:url(#SVGID_35_);}
	.st43{fill:url(#SVGID_36_);}
	.st44{fill:url(#SVGID_37_);stroke:#33CC99;stroke-width:1.5;stroke-miterlimit:10;}
	.st45{fill:url(#SVGID_38_);stroke:#33CC99;stroke-width:1.5;stroke-miterlimit:10;}
	.st46{fill:url(#SVGID_39_);stroke:#33CC99;stroke-width:1.5;stroke-miterlimit:10;}
	.st47{fill:url(#SVGID_40_);}
	.st48{fill:url(#SVGID_41_);stroke:#33CC99;stroke-width:1.5;stroke-miterlimit:10;}
	.st49{fill:url(#SVGID_42_);}
	.st50{fill:url(#SVGID_43_);}
	.st51{fill:url(#SVGID_44_);stroke:#33CC99;stroke-width:1.5;stroke-miterlimit:10;}
	.st52{fill:url(#SVGID_45_);stroke:#33CC99;stroke-width:1.5;stroke-miterlimit:10;}
	.st53{fill:url(#SVGID_46_);stroke:#33CC99;stroke-width:1.5;stroke-miterlimit:10;}
	.st54{fill:url(#SVGID_47_);stroke:#33CC99;stroke-width:1.5;stroke-miterlimit:10;}
	.st55{fill:url(#SVGID_48_);}
	.st56{fill:url(#SVGID_49_);}
	.st57{fill:url(#SVGID_50_);stroke:#33CC99;stroke-width:1.5;stroke-miterlimit:10;}
	.st58{fill:url(#SVGID_51_);}
	.st59{fill:url(#SVGID_52_);}
	.st60{fill:url(#SVGID_53_);}
	.st61{fill:url(#SVGID_54_);stroke:#33CC99;stroke-width:1.5;stroke-miterlimit:10;}
	.st62{fill:url(#SVGID_55_);stroke:#33CC99;stroke-width:1.5;stroke-miterlimit:10;}
	.st63{fill:url(#SVGID_56_);}
	.st64{fill:url(#SVGID_57_);}
	.st65{fill:url(#SVGID_58_);stroke:#33CC99;stroke-width:1.5;stroke-miterlimit:10;}
	.st66{fill:url(#SVGID_59_);stroke:#33CC99;stroke-width:1.5;stroke-miterlimit:10;}
	.st67{fill:url(#SVGID_60_);stroke:#33CC99;stroke-width:1.5;stroke-miterlimit:10;}
	.st68{fill:url(#SVGID_61_);}
	.st69{fill:url(#SVGID_62_);stroke:#33CC99;stroke-width:1.5;stroke-miterlimit:10;}
	.st70{fill:url(#SVGID_63_);}
	.st71{fill:url(#SVGID_64_);}
	.st72{fill:url(#SVGID_65_);stroke:#33CC99;stroke-width:1.5;stroke-miterlimit:10;}
	.st73{fill:url(#SVGID_66_);stroke:#33CC99;stroke-width:1.5;stroke-miterlimit:10;}
	.st74{fill:url(#SVGID_67_);}
	.st75{fill:url(#SVGID_68_);}
	.st76{fill:url(#SVGID_69_);}
	.st77{fill:url(#SVGID_70_);}
	.st78{fill:url(#SVGID_71_);}
	.st79{fill:url(#SVGID_72_);}
	.st80{fill:url(#SVGID_73_);}
	.st81{opacity:0.66;fill:url(#SVGID_74_);}
	.st82{fill:url(#SVGID_75_);}
	.st83{opacity:0.78;}
	.st84{opacity:0.1;}
	.st85{fill:#4C423F;}
	.st86{fill:url(#SVGID_76_);}
	.st87{fill:url(#SVGID_77_);}
	.st88{fill:url(#SVGID_78_);}
	.st89{fill:url(#SVGID_79_);}
	.st90{fill:none;}
	.st91{fill:url(#SVGID_80_);}
	.st92{fill:url(#SVGID_81_);}
	.st93{fill:url(#SVGID_82_);}
	.st94{fill:url(#SVGID_83_);}
	.st95{fill:url(#SVGID_84_);}
	.st96{fill:url(#SVGID_85_);}
	.st97{fill:url(#SVGID_86_);}
	.st98{opacity:0.66;fill:url(#SVGID_87_);}
	.st99{fill:url(#SVGID_88_);}
	.st100{fill:url(#SVGID_89_);}
	.st101{fill:url(#SVGID_90_);}
	.st102{fill:url(#SVGID_91_);}
	.st103{fill:url(#SVGID_92_);}
	.st104{fill:#F27968;}
	.st105{fill:#7779B8;}
	.st106{fill:#906C8C;}
	.st107{fill:#727171;}
	.st108{fill:#C9A063;}
	.st109{fill:#B367B7;}
	.st110{fill:#D86464;}
	.st111{fill:#A5B548;}
	.st112{fill:url(#SVGID_93_);}
	.st113{fill:url(#SVGID_94_);}
	.st114{fill:url(#SVGID_95_);}
	.st115{fill:#F7B52C;}
	.st116{fill:#13AE67;}
	.st117{fill:#5BADC9;}
	.st118{fill:#0095A0;}
	.st119{fill:url(#SVGID_96_);}
	.st120{fill:url(#SVGID_97_);}
	.st121{fill:#33CC99;stroke:#1E9E70;stroke-width:0.4995;stroke-miterlimit:10;}
	.st122{fill:url(#SVGID_98_);}
	.st123{fill:url(#SVGID_99_);}
	.st124{fill:#F27968;stroke:#1E9E70;stroke-width:0.4995;stroke-miterlimit:10;}
	.st125{fill:#1E9E70;}
	.st126{fill:url(#SVGID_100_);}
	.st127{fill:#33CC99;stroke:#33CC99;stroke-width:0.9336;stroke-miterlimit:10;}
	.st128{fill:url(#SVGID_101_);}
	.st129{fill:url(#SVGID_102_);}
	.st130{fill:url(#SVGID_103_);}
	.st131{fill:url(#SVGID_104_);stroke:#F7B52C;stroke-width:2.533;stroke-miterlimit:10;}
	.st132{fill:url(#SVGID_105_);stroke:#5BADC9;stroke-width:2.533;stroke-miterlimit:10;}
	.st133{fill:url(#SVGID_106_);stroke:#F27968;stroke-width:2.6098;stroke-miterlimit:10;}
	.st134{fill:url(#SVGID_107_);stroke:#C9A063;stroke-width:2.6098;stroke-miterlimit:10;}
	.st135{fill:url(#SVGID_108_);stroke:#727171;stroke-width:2.6098;stroke-miterlimit:10;}
	.st136{fill:url(#SVGID_109_);stroke:#F44F47;stroke-width:2.533;stroke-miterlimit:10;}
	.st137{fill:url(#SVGID_110_);stroke:#13AE67;stroke-width:2.533;stroke-miterlimit:10;}
	.st138{fill:#F44F47;}
	.st139{fill:url(#SVGID_111_);stroke:#0095A0;stroke-width:2.533;stroke-miterlimit:10;}
	.st140{fill:url(#SVGID_112_);stroke:#7779B8;stroke-width:2.533;stroke-miterlimit:10;}
	.st141{fill:url(#SVGID_113_);stroke:#A5B548;stroke-width:2.533;stroke-miterlimit:10;}
	.st142{fill:url(#SVGID_114_);stroke:#B367B7;stroke-width:2.533;stroke-miterlimit:10;}
	.st143{fill:url(#SVGID_115_);}
	.st144{fill:none;stroke:#906C8C;stroke-width:2.533;stroke-miterlimit:10;}
	.st145{fill:#231815;}
	.st146{fill:url(#SVGID_116_);}
	.st147{fill:none;stroke:#F7B52C;stroke-width:2.533;stroke-miterlimit:10;}
	.st148{fill:url(#SVGID_117_);}
	.st149{fill:none;stroke:#5BADC9;stroke-width:2.533;stroke-miterlimit:10;}
	.st150{fill:url(#SVGID_118_);}
	.st151{fill:none;stroke:#F27968;stroke-width:2.6098;stroke-miterlimit:10;}
	.st152{fill:url(#SVGID_119_);}
	.st153{fill:none;stroke:#C9A063;stroke-width:2.6098;stroke-miterlimit:10;}
	.st154{fill:url(#SVGID_120_);}
	.st155{fill:none;stroke:#727171;stroke-width:2.6098;stroke-miterlimit:10;}
	.st156{fill:url(#SVGID_121_);}
	.st157{fill:none;stroke:#F44F47;stroke-width:2.533;stroke-miterlimit:10;}
	.st158{fill:url(#SVGID_122_);}
	.st159{fill:none;stroke:#13AE67;stroke-width:2.533;stroke-miterlimit:10;}
	.st160{fill:url(#SVGID_123_);}
	.st161{fill:none;stroke:#0095A0;stroke-width:2.533;stroke-miterlimit:10;}
	.st162{fill:url(#SVGID_124_);}
	.st163{fill:none;stroke:#7779B8;stroke-width:2.533;stroke-miterlimit:10;}
	.st164{fill:url(#SVGID_125_);}
	.st165{fill:none;stroke:#A5B548;stroke-width:2.533;stroke-miterlimit:10;}
	.st166{fill:url(#SVGID_126_);}
	.st167{fill:none;stroke:#B367B7;stroke-width:2.533;stroke-miterlimit:10;}
	.st168{fill:url(#SVGID_127_);stroke:#906C8C;stroke-width:2.533;stroke-miterlimit:10;}
	.st169{fill:url(#SVGID_128_);stroke:#F7B52C;stroke-width:2.533;stroke-miterlimit:10;}
	.st170{fill:url(#SVGID_129_);stroke:#5BADC9;stroke-width:2.533;stroke-miterlimit:10;}
	.st171{fill:url(#SVGID_130_);stroke:#F27968;stroke-width:2.6098;stroke-miterlimit:10;}
	.st172{fill:url(#SVGID_131_);stroke:#C9A063;stroke-width:2.6098;stroke-miterlimit:10;}
	.st173{fill:url(#SVGID_132_);stroke:#727171;stroke-width:2.6098;stroke-miterlimit:10;}
	.st174{fill:url(#SVGID_133_);stroke:#D86464;stroke-width:2.533;stroke-miterlimit:10;}
	.st175{fill:url(#SVGID_134_);stroke:#13AE67;stroke-width:2.533;stroke-miterlimit:10;}
	.st176{fill:url(#SVGID_135_);stroke:#0095A0;stroke-width:2.533;stroke-miterlimit:10;}
	.st177{fill:url(#SVGID_136_);stroke:#7779B8;stroke-width:2.533;stroke-miterlimit:10;}
	.st178{fill:url(#SVGID_137_);stroke:#A5B548;stroke-width:2.533;stroke-miterlimit:10;}
	.st179{fill:url(#SVGID_138_);stroke:#B367B7;stroke-width:2.533;stroke-miterlimit:10;}
	.st180{fill:url(#SVGID_139_);}
	.st181{fill:url(#SVGID_140_);}
	.st182{fill:url(#SVGID_141_);}
	.st183{fill:url(#SVGID_142_);}
	.st184{fill:url(#SVGID_143_);}
	.st185{fill:url(#SVGID_144_);}
	.st186{fill:url(#SVGID_145_);}
	.st187{fill:none;stroke:#D86464;stroke-width:2.533;stroke-miterlimit:10;}
	.st188{fill:url(#SVGID_146_);}
	.st189{fill:url(#SVGID_147_);}
	.st190{fill:url(#SVGID_148_);}
	.st191{fill:url(#SVGID_149_);}
	.st192{fill:url(#SVGID_150_);}
	.st193{fill:#5CB5BC;}
	.st194{fill:#65C696;}
	.st195{fill:#F5A298;}
	.st196{fill:#D9BD95;}
	.st197{fill:#9D9C9C;}
	.st198{fill:#F8CB78;}
	.st199{fill:#8FC6D8;}
	.st200{fill:#EA7373;}
	.st201{fill:#B098AF;}
	.st202{fill:#A0A2CC;}
	.st203{fill:#C0CB84;}
	.st204{fill:#C997CB;}
	.st205{fill:url(#SVGID_151_);stroke:#0095A0;stroke-width:2.5;stroke-miterlimit:10;}
	.st206{fill:#C9CACA;}
	.st207{fill:none;stroke:#9FA0A0;stroke-width:0.75;stroke-miterlimit:10;}
	.st208{fill:url(#SVGID_152_);}
	.st209{fill:none;stroke:#E8A734;stroke-width:2.5;stroke-miterlimit:10;}
	.st210{fill:url(#SVGID_153_);stroke:#13AE67;stroke-width:2.5;stroke-miterlimit:10;}
	.st211{fill:url(#SVGID_154_);stroke:#5BADC9;stroke-width:2.5;stroke-miterlimit:10;}
	.st212{fill:url(#SVGID_155_);stroke:#B367B7;stroke-width:2.5;stroke-miterlimit:10;}
	.st213{fill:url(#SVGID_156_);stroke:#7779B8;stroke-width:2.5;stroke-miterlimit:10;}
	.st214{fill:url(#SVGID_157_);}
	.st215{fill:url(#SVGID_158_);}
	.st216{fill:url(#SVGID_159_);}
	.st217{fill:url(#SVGID_160_);stroke:#A5B548;stroke-width:2.5;stroke-miterlimit:10;}
	.st218{fill:url(#SVGID_161_);}
	.st219{fill:url(#SVGID_162_);stroke:#F27968;stroke-width:2.5;stroke-miterlimit:10;}
	.st220{fill:url(#SVGID_163_);}
	.st221{fill:url(#SVGID_164_);}
	.st222{fill:url(#SVGID_165_);stroke:#D86464;stroke-width:2.5;stroke-miterlimit:10;}
	.st223{fill:url(#SVGID_166_);}
	.st224{fill:url(#SVGID_167_);stroke:#727171;stroke-width:2.5;stroke-miterlimit:10;}
	.st225{fill:url(#SVGID_168_);}
	.st226{fill:url(#SVGID_169_);}
	.st227{fill:url(#SVGID_170_);stroke:#906C8C;stroke-width:2.5;stroke-miterlimit:10;}
	.st228{fill:url(#SVGID_171_);stroke:#C9A063;stroke-width:2.5;stroke-miterlimit:10;}
</style>
<g>
	<g>
		<path class="st121" d="M88.2,134.7c-0.9,0-1.8,0.1-2.6,0.2v-0.2H67.7c-5.1,0-9.2-4.1-9.2-9.2V76.9h0l0.1,0
			c-16.7-9.3-31.4,0-31.4,0l0.1,0.2v48.4c0,22.3,18.1,40.4,40.4,40.4h17.9v-0.1c0.9,0.1,1.7,0.2,2.6,0.2c8.7,0,15.7-7,15.7-15.7
			C103.9,141.7,96.9,134.7,88.2,134.7z"/>
		<path class="st121" d="M442.8,47.9h-1.2l0,0v-0.1H285.7c-1.6-0.1-3.2-0.2-4.8-0.2c-27.4,0-50.6,18-58.4,42.8
			c-7.8-24.8-31-42.8-58.4-42.8c-33.8,0-61.1,27.4-61.1,61.1s27.4,61.1,61.1,61.1c10.8,0,20.9-2.8,29.7-7.7v32.6
			c0,11.4-9.3,20.7-20.7,20.7h-36c-0.6-0.1-1.2-0.1-1.8-0.1c-8.7,0-15.7,7-15.7,15.7c0,8.7,7,15.7,15.7,15.7c0.6,0,1.2,0,1.7-0.1h36
			c28.6,0,52-23.3,52-52v-61.1c9.6,21.3,30.9,36.1,55.8,36.1c33.8,0,61.1-27.4,61.1-61.1c0-10.8-2.8-20.9-7.7-29.7H350l39.6,76
			c2.6,5.1,9.9,5.1,12.5,0l47.7-91.2l0.1,0l1.2-2.5C454.2,55.2,449.7,47.9,442.8,47.9z"/>
		<linearGradient id="SVGID_1_" gradientUnits="userSpaceOnUse" x1="274.3201" y1="583.5748" x2="69.4167" y2="148.8473">
			<stop  offset="0" style="stop-color:#187FC3"/>
			<stop  offset="1" style="stop-color:#187FC3;stop-opacity:0"/>
		</linearGradient>
		<path class="st0" d="M88.2,134.7c-0.9,0-1.8,0.1-2.6,0.2v-0.2H67.7c-5.1,0-9.2-4.1-9.2-9.2V76.9h0l0.1,0c-16.7-9.3-31.4,0-31.4,0
			l0.1,0.2v48.4c0,22.3,18.1,40.4,40.4,40.4h17.9v-0.1c0.9,0.1,1.7,0.2,2.6,0.2c8.7,0,15.7-7,15.7-15.7
			C103.9,141.7,96.9,134.7,88.2,134.7z"/>
		<linearGradient id="SVGID_2_" gradientUnits="userSpaceOnUse" x1="452.9211" y1="499.3934" x2="248.0177" y2="64.666">
			<stop  offset="0" style="stop-color:#187FC3"/>
			<stop  offset="1" style="stop-color:#187FC3;stop-opacity:0"/>
		</linearGradient>
		<path style="fill:url(#SVGID_2_);" d="M442.8,47.9h-1.2l0,0v-0.1H285.7c-1.6-0.1-3.2-0.2-4.8-0.2c-27.4,0-50.6,18-58.4,42.8
			c-7.8-24.8-31-42.8-58.4-42.8c-33.8,0-61.1,27.4-61.1,61.1s27.4,61.1,61.1,61.1c10.8,0,20.9-2.8,29.7-7.7v32.6
			c0,11.4-9.3,20.7-20.7,20.7h-36c-0.6-0.1-1.2-0.1-1.8-0.1c-8.7,0-15.7,7-15.7,15.7c0,8.7,7,15.7,15.7,15.7c0.6,0,1.2,0,1.7-0.1h36
			c28.6,0,52-23.3,52-52v-61.1c9.6,21.3,30.9,36.1,55.8,36.1c33.8,0,61.1-27.4,61.1-61.1c0-10.8-2.8-20.9-7.7-29.7H350l39.6,76
			c2.6,5.1,9.9,5.1,12.5,0l47.7-91.2l0.1,0l1.2-2.5C454.2,55.2,449.7,47.9,442.8,47.9z"/>
		<path class="st104" d="M42.6,60.2l0.1,0.2c17.4-14.3,22.5-27.1,23.9-34.5c0,0,0-0.1,0-0.1c0.6-2.1,0.8-4.3,0.4-6.6
			c-0.6-4.4-3-8.1-6.3-10.5c-3.3-2.4-7.5-3.6-11.9-3c-6,0.9-10.8,5-12.7,10.4c-0.9-1.3-2.1-2.4-3.3-3.3c-3.3-2.4-7.5-3.6-11.9-3
			c-8.7,1.3-14.8,9.4-13.5,18.1c0,0,0.1,0.4,0.2,1.2c0.3,0.9,0.7,2.3,1.5,4c0,0,0,0.1,0,0.1c3.1,6.6,11.4,18,33.2,27.2L42.6,60.2z"
			/>
	</g>
	<g>
		<path class="st10" d="M521.4,149c0.2,1.5,0.6,2.6,1.2,3.3c1.1,1.3,3,2,5.7,2c1.6,0,2.9-0.2,3.9-0.5c1.9-0.7,2.9-1.9,2.9-3.7
			c0-1.1-0.5-1.9-1.4-2.5c-0.9-0.6-2.4-1.1-4.5-1.5l-3.5-0.8c-3.4-0.8-5.8-1.6-7-2.5c-2.2-1.5-3.2-3.8-3.2-6.9
			c0-2.9,1.1-5.3,3.2-7.2c2.1-1.9,5.2-2.9,9.3-2.9c3.4,0,6.3,0.9,8.8,2.7c2.4,1.8,3.7,4.4,3.8,7.8h-6.4c-0.1-1.9-1-3.3-2.6-4.1
			c-1.1-0.5-2.4-0.8-4-0.8c-1.8,0-3.2,0.3-4.2,1c-1.1,0.7-1.6,1.7-1.6,2.9c0,1.1,0.5,2,1.6,2.6c0.7,0.4,2.1,0.8,4.3,1.3l5.6,1.3
			c2.5,0.6,4.3,1.4,5.5,2.3c1.9,1.5,2.9,3.7,2.9,6.5c0,2.9-1.1,5.4-3.4,7.3c-2.3,1.9-5.5,2.9-9.6,2.9c-4.2,0-7.5-1-10-2.9
			c-2.4-1.9-3.6-4.5-3.6-7.9H521.4z"/>
		<path class="st10" d="M557.6,135.1v14.3c0,1.3,0.2,2.4,0.5,3c0.6,1.2,1.7,1.8,3.3,1.8c2.1,0,3.6-0.9,4.3-2.6
			c0.4-0.9,0.6-2.2,0.6-3.7v-12.9h6.3v23.7h-6v-3.4c-0.1,0.1-0.2,0.3-0.4,0.7c-0.2,0.4-0.5,0.7-0.8,1c-1,0.9-1.9,1.5-2.8,1.8
			c-0.9,0.3-2,0.5-3.2,0.5c-3.5,0-5.9-1.3-7.1-3.8c-0.7-1.4-1-3.4-1-6.2v-14.3H557.6z"/>
		<path class="st10" d="M590.6,132.3h-6.3v-5.7h6.3V132.3z M584.3,135.1h6.3v23.7h-6.3V135.1z"/>
		<path class="st10" d="M599.7,139.8v-4.4h3.3v-6.6h6.1v6.6h3.9v4.4h-3.9v12.5c0,1,0.1,1.6,0.4,1.8c0.2,0.2,1,0.4,2.3,0.4
			c0.2,0,0.4,0,0.6,0c0.2,0,0.4,0,0.6,0v4.6l-2.9,0.1c-2.9,0.1-4.9-0.4-6-1.5c-0.7-0.7-1-1.8-1-3.3v-14.6H599.7z"/>
		<path class="st10" d="M632,144.4c1.2-0.1,2-0.3,2.5-0.5c0.9-0.4,1.3-1,1.3-1.8c0-1-0.3-1.6-1-2c-0.7-0.4-1.7-0.6-3-0.6
			c-1.5,0-2.5,0.4-3.2,1.1c-0.4,0.5-0.7,1.3-0.9,2.2h-6c0.1-2.1,0.7-3.8,1.7-5.1c1.6-2.1,4.5-3.1,8.5-3.1c2.6,0,4.9,0.5,7,1.5
			c2,1,3,3,3,5.8v10.9c0,0.8,0,1.7,0,2.7c0,0.8,0.2,1.4,0.4,1.7c0.2,0.3,0.5,0.5,0.9,0.7v0.9h-6.7c-0.2-0.5-0.3-0.9-0.4-1.3
			s-0.1-0.9-0.2-1.4c-0.9,0.9-1.9,1.7-3,2.4c-1.3,0.8-2.9,1.2-4.6,1.2c-2.2,0-3.9-0.6-5.4-1.8s-2.1-3-2.1-5.2c0-2.9,1.1-5,3.4-6.3
			c1.2-0.7,3.1-1.2,5.5-1.5L632,144.4z M635.8,147.3c-0.4,0.2-0.8,0.4-1.2,0.6c-0.4,0.2-1,0.3-1.7,0.4l-1.4,0.3
			c-1.3,0.2-2.3,0.5-2.9,0.8c-1,0.6-1.5,1.4-1.5,2.6c0,1.1,0.3,1.8,0.9,2.3c0.6,0.5,1.3,0.7,2.2,0.7c1.4,0,2.6-0.4,3.7-1.2
			c1.1-0.8,1.7-2.2,1.8-4.3V147.3z"/>
		<path class="st10" d="M673.2,138c1.8,2.2,2.7,5.1,2.7,8.7c0,3.7-0.9,6.7-2.6,9.2c-1.7,2.4-4.2,3.6-7.3,3.6c-2,0-3.6-0.4-4.7-1.2
			c-0.7-0.5-1.5-1.3-2.3-2.4v3h-6.1v-32h6.2v11.4c0.8-1.1,1.7-1.9,2.6-2.5c1.1-0.7,2.6-1.1,4.3-1.1C669,134.6,671.4,135.8,673.2,138
			z M668,152.4c0.9-1.3,1.3-3,1.3-5.1c0-1.7-0.2-3.1-0.7-4.2c-0.8-2.1-2.4-3.1-4.6-3.1c-2.3,0-3.8,1-4.7,3.1
			c-0.4,1.1-0.7,2.5-0.7,4.2c0,2,0.5,3.7,1.4,5s2.3,2,4.1,2C665.9,154.4,667.1,153.7,668,152.4z"/>
		<path class="st10" d="M692.1,158.9h-6.2v-32.1h6.2V158.9z"/>
		<path class="st10" d="M719.1,135.6c1.7,0.7,3,1.9,4.1,3.5c1,1.4,1.6,3,1.9,4.9c0.2,1.1,0.2,2.7,0.2,4.7h-17.3c0.1,2.4,0.9,4,2.5,5
			c0.9,0.6,2.1,0.9,3.4,0.9c1.4,0,2.6-0.4,3.4-1.1c0.5-0.4,0.9-0.9,1.3-1.6h6.3c-0.2,1.4-0.9,2.8-2.3,4.3c-2.1,2.3-5.1,3.5-8.9,3.5
			c-3.2,0-5.9-1-8.4-2.9c-2.4-1.9-3.6-5.1-3.6-9.5c0-4.1,1.1-7.3,3.3-9.5c2.2-2.2,5-3.3,8.5-3.3
			C715.6,134.5,717.5,134.9,719.1,135.6z M709.9,141c-0.9,0.9-1.4,2.1-1.7,3.7h10.7c-0.1-1.6-0.7-2.9-1.7-3.7
			c-1-0.9-2.2-1.3-3.7-1.3C712,139.6,710.7,140.1,709.9,141z"/>
		<path class="st10" d="M521.4,193c0.2,1.5,0.6,2.6,1.2,3.3c1.1,1.3,3,2,5.7,2c1.6,0,2.9-0.2,3.9-0.5c1.9-0.7,2.9-1.9,2.9-3.7
			c0-1.1-0.5-1.9-1.4-2.5c-0.9-0.6-2.4-1.1-4.5-1.5l-3.5-0.8c-3.4-0.8-5.8-1.6-7-2.5c-2.2-1.5-3.2-3.8-3.2-6.9
			c0-2.9,1.1-5.3,3.2-7.2c2.1-1.9,5.2-2.9,9.3-2.9c3.4,0,6.3,0.9,8.8,2.7c2.4,1.8,3.7,4.4,3.8,7.8h-6.4c-0.1-1.9-1-3.3-2.6-4.1
			c-1.1-0.5-2.4-0.8-4-0.8c-1.8,0-3.2,0.3-4.2,1c-1.1,0.7-1.6,1.7-1.6,2.9c0,1.1,0.5,2,1.6,2.6c0.7,0.4,2.1,0.8,4.3,1.3l5.6,1.3
			c2.5,0.6,4.3,1.4,5.5,2.3c1.9,1.5,2.9,3.7,2.9,6.5c0,2.9-1.1,5.4-3.4,7.3c-2.3,1.9-5.5,2.9-9.6,2.9c-4.2,0-7.5-1-10-2.9
			c-2.4-1.9-3.6-4.5-3.6-7.9H521.4z"/>
		<path class="st10" d="M566.9,179.7c1.7,0.7,3,1.9,4.1,3.5c1,1.4,1.6,3,1.9,4.9c0.2,1.1,0.2,2.7,0.2,4.7h-17.3c0.1,2.4,0.9,4,2.5,5
			c0.9,0.6,2.1,0.9,3.4,0.9c1.4,0,2.6-0.4,3.4-1.1c0.5-0.4,0.9-0.9,1.3-1.6h6.3c-0.2,1.4-0.9,2.8-2.3,4.3c-2.1,2.3-5.1,3.5-8.9,3.5
			c-3.2,0-5.9-1-8.4-2.9c-2.4-1.9-3.6-5.1-3.6-9.5c0-4.1,1.1-7.3,3.3-9.5c2.2-2.2,5-3.3,8.5-3.3
			C563.3,178.5,565.2,178.9,566.9,179.7z M557.6,185c-0.9,0.9-1.4,2.1-1.7,3.7h10.7c-0.1-1.6-0.7-2.9-1.7-3.7
			c-1-0.9-2.2-1.3-3.7-1.3C559.7,183.7,558.5,184.1,557.6,185z"/>
		<path class="st10" d="M596,187.7c-0.1-0.9-0.4-1.7-0.9-2.4c-0.7-1-1.8-1.4-3.2-1.4c-2.1,0-3.5,1-4.3,3.1c-0.4,1.1-0.6,2.6-0.6,4.4
			c0,1.7,0.2,3.1,0.6,4.2c0.7,2,2.1,3,4.2,3c1.5,0,2.5-0.4,3.1-1.2c0.6-0.8,1-1.8,1.1-3h6.3c-0.1,1.9-0.8,3.7-2,5.4
			c-1.9,2.7-4.8,4.1-8.6,4.1c-3.8,0-6.6-1.1-8.4-3.4c-1.8-2.3-2.7-5.2-2.7-8.8c0-4.1,1-7.2,3-9.5c2-2.3,4.7-3.4,8.2-3.4
			c3,0,5.4,0.7,7.3,2c1.9,1.3,3,3.7,3.4,7.1H596z"/>
		<path class="st10" d="M618.3,179.2v14.3c0,1.3,0.2,2.4,0.5,3c0.6,1.2,1.7,1.8,3.3,1.8c2.1,0,3.6-0.9,4.3-2.6
			c0.4-0.9,0.6-2.2,0.6-3.7v-12.9h6.3v23.7h-6v-3.4c-0.1,0.1-0.2,0.3-0.4,0.7c-0.2,0.4-0.5,0.7-0.8,1c-1,0.9-1.9,1.5-2.8,1.8
			c-0.9,0.3-2,0.5-3.2,0.5c-3.5,0-5.9-1.3-7.1-3.8c-0.7-1.4-1-3.4-1-6.2v-14.3H618.3z"/>
		<path class="st10" d="M658.1,178.6c0.1,0,0.3,0,0.5,0v6.4c-0.4,0-0.7-0.1-1-0.1c-0.3,0-0.6,0-0.7,0c-2.5,0-4.2,0.8-5,2.4
			c-0.5,0.9-0.7,2.3-0.7,4.2v11.3h-6.2v-23.7h5.9v4.1c1-1.6,1.8-2.7,2.5-3.2c1.2-1,2.7-1.5,4.5-1.5
			C657.9,178.6,658,178.6,658.1,178.6z"/>
		<path class="st10" d="M683.3,179.7c1.7,0.7,3,1.9,4.1,3.5c1,1.4,1.6,3,1.9,4.9c0.2,1.1,0.2,2.7,0.2,4.7h-17.3c0.1,2.4,0.9,4,2.5,5
			c0.9,0.6,2.1,0.9,3.4,0.9c1.4,0,2.6-0.4,3.4-1.1c0.5-0.4,0.9-0.9,1.3-1.6h6.3c-0.2,1.4-0.9,2.8-2.3,4.3c-2.1,2.3-5.1,3.5-8.9,3.5
			c-3.2,0-5.9-1-8.4-2.9c-2.4-1.9-3.6-5.1-3.6-9.5c0-4.1,1.1-7.3,3.3-9.5c2.2-2.2,5-3.3,8.5-3.3
			C679.8,178.5,681.6,178.9,683.3,179.7z M674,185c-0.9,0.9-1.4,2.1-1.7,3.7H683c-0.1-1.6-0.7-2.9-1.7-3.7c-1-0.9-2.2-1.3-3.7-1.3
			C676.1,183.7,674.9,184.1,674,185z"/>
		<path class="st10" d="M521.4,237c0.2,1.5,0.6,2.6,1.2,3.3c1.1,1.3,3,2,5.7,2c1.6,0,2.9-0.2,3.9-0.5c1.9-0.7,2.9-1.9,2.9-3.7
			c0-1.1-0.5-1.9-1.4-2.5c-0.9-0.6-2.4-1.1-4.5-1.5l-3.5-0.8c-3.4-0.8-5.8-1.6-7-2.5c-2.2-1.5-3.2-3.8-3.2-6.9
			c0-2.9,1.1-5.3,3.2-7.2c2.1-1.9,5.2-2.9,9.3-2.9c3.4,0,6.3,0.9,8.8,2.7c2.4,1.8,3.7,4.4,3.8,7.8h-6.4c-0.1-1.9-1-3.3-2.6-4.1
			c-1.1-0.5-2.4-0.8-4-0.8c-1.8,0-3.2,0.3-4.2,1c-1.1,0.7-1.6,1.7-1.6,2.9c0,1.1,0.5,2,1.6,2.6c0.7,0.4,2.1,0.8,4.3,1.3l5.6,1.3
			c2.5,0.6,4.3,1.4,5.5,2.3c1.9,1.5,2.9,3.7,2.9,6.5c0,2.9-1.1,5.4-3.4,7.3c-2.3,1.9-5.5,2.9-9.6,2.9c-4.2,0-7.5-1-10-2.9
			c-2.4-1.9-3.6-4.5-3.6-7.9H521.4z"/>
		<path class="st10" d="M581,223.3c1,0.4,1.9,1.1,2.8,2.1c0.7,0.8,1.1,1.8,1.4,3c0.1,0.8,0.2,2,0.2,3.5l0,15h-6.4v-15.1
			c0-0.9-0.1-1.6-0.4-2.2c-0.6-1.1-1.6-1.7-3-1.7c-1.7,0-2.9,0.7-3.5,2.1c-0.3,0.8-0.5,1.7-0.5,2.7v14.1h-6.2v-14.1
			c0-1.4-0.1-2.4-0.4-3.1c-0.5-1.1-1.5-1.7-3.1-1.7c-1.8,0-3,0.6-3.6,1.7c-0.3,0.7-0.5,1.6-0.5,2.9v14.3h-6.3v-23.7h6v3.5
			c0.8-1.2,1.5-2.1,2.2-2.6c1.2-0.9,2.8-1.4,4.7-1.4c1.8,0,3.3,0.4,4.4,1.2c0.9,0.7,1.6,1.7,2,2.9c0.8-1.4,1.8-2.4,3-3.1
			c1.3-0.7,2.7-1,4.3-1C579,222.7,580,222.9,581,223.3z"/>
		<path class="st10" d="M606,232.5c1.2-0.1,2-0.3,2.5-0.5c0.9-0.4,1.3-1,1.3-1.8c0-1-0.3-1.6-1-2s-1.7-0.6-3-0.6
			c-1.5,0-2.5,0.4-3.2,1.1c-0.4,0.5-0.7,1.3-0.9,2.2h-6c0.1-2.1,0.7-3.8,1.7-5.1c1.6-2.1,4.5-3.1,8.5-3.1c2.6,0,4.9,0.5,7,1.5
			c2,1,3,3,3,5.8v10.9c0,0.8,0,1.7,0,2.7c0,0.8,0.2,1.4,0.4,1.7c0.2,0.3,0.5,0.5,0.9,0.7v0.9h-6.7c-0.2-0.5-0.3-0.9-0.4-1.3
			c-0.1-0.4-0.1-0.9-0.2-1.4c-0.9,0.9-1.9,1.7-3,2.4c-1.3,0.8-2.9,1.2-4.6,1.2c-2.2,0-3.9-0.6-5.4-1.8c-1.4-1.2-2.1-3-2.1-5.2
			c0-2.9,1.1-5,3.4-6.3c1.2-0.7,3.1-1.2,5.5-1.5L606,232.5z M609.8,235.4c-0.4,0.2-0.8,0.4-1.2,0.6c-0.4,0.2-1,0.3-1.7,0.4l-1.4,0.3
			c-1.3,0.2-2.3,0.5-2.9,0.8c-1,0.6-1.5,1.4-1.5,2.6c0,1.1,0.3,1.8,0.9,2.3s1.3,0.7,2.2,0.7c1.4,0,2.6-0.4,3.7-1.2s1.7-2.2,1.8-4.3
			V235.4z"/>
		<path class="st10" d="M640.1,222.6c0.1,0,0.3,0,0.5,0v6.4c-0.4,0-0.7-0.1-1-0.1c-0.3,0-0.6,0-0.7,0c-2.5,0-4.2,0.8-5,2.4
			c-0.5,0.9-0.7,2.3-0.7,4.2v11.3h-6.2v-23.7h5.9v4.1c1-1.6,1.8-2.7,2.5-3.2c1.2-1,2.7-1.5,4.5-1.5
			C640,222.6,640.1,222.6,640.1,222.6z"/>
		<path class="st10" d="M647.4,227.8v-4.4h3.3v-6.6h6.1v6.6h3.9v4.4h-3.9v12.5c0,1,0.1,1.6,0.4,1.8c0.2,0.2,1,0.4,2.3,0.4
			c0.2,0,0.4,0,0.6,0c0.2,0,0.4,0,0.6,0v4.6l-2.9,0.1c-2.9,0.1-4.9-0.4-6-1.5c-0.7-0.7-1-1.8-1-3.3v-14.6H647.4z"/>
	</g>
	<g>
		<g>
			<path class="st7" d="M280.9,126c-9.4,0-17.1-7.7-17.1-17.1s7.7-17.1,17.1-17.1s17.1,7.7,17.1,17.1S290.3,126,280.9,126z"/>
			<path class="st125" d="M280.9,91.8c9.4,0,17,7.6,17,17c0,9.4-7.6,17-17,17c-9.4,0-17-7.6-17-17C263.9,99.5,271.5,91.8,280.9,91.8
				 M280.9,91.6c-9.5,0-17.3,7.7-17.3,17.3c0,9.5,7.7,17.3,17.3,17.3c9.5,0,17.3-7.7,17.3-17.3C298.1,99.3,290.4,91.6,280.9,91.6
				L280.9,91.6z"/>
		</g>
	</g>
	<g>
		<g>
			<path class="st7" d="M164.2,126c-9.4,0-17.1-7.7-17.1-17.1s7.7-17.1,17.1-17.1s17.1,7.7,17.1,17.1S173.6,126,164.2,126z"/>
			<path class="st125" d="M164.2,91.8c9.4,0,17,7.6,17,17c0,9.4-7.6,17-17,17s-17-7.6-17-17C147.2,99.5,154.8,91.8,164.2,91.8
				 M164.2,91.6c-9.5,0-17.3,7.7-17.3,17.3c0,9.5,7.7,17.3,17.3,17.3s17.3-7.7,17.3-17.3C181.4,99.3,173.7,91.6,164.2,91.6
				L164.2,91.6z"/>
		</g>
	</g>
	<g>
		<path class="st10" d="M201.9,306.7c-16.3,0-35.4-2.1-57.8-7c-3.7-0.8-6.1-4.5-5.2-8.2c0.8-3.7,4.5-6.1,8.2-5.2
			c97.8,21.5,125.8-13.7,133.8-36.6c1.3-3.6,5.2-5.5,8.8-4.2c3.6,1.3,5.5,5.2,4.2,8.8C286.3,275.7,264.6,306.7,201.9,306.7z"/>
	</g>
	<g>
		<linearGradient id="SVGID_3_" gradientUnits="userSpaceOnUse" x1="428.9975" y1="314.5475" x2="187.0779" y2="266.6426">
			<stop  offset="0" style="stop-color:#187FC3"/>
			<stop  offset="1" style="stop-color:#187FC3;stop-opacity:0"/>
		</linearGradient>
		<path class="st5" d="M201.9,306.7c-16.3,0-35.4-2.1-57.8-7c-3.7-0.8-6.1-4.5-5.2-8.2c0.8-3.7,4.5-6.1,8.2-5.2
			c97.8,21.5,125.8-13.7,133.8-36.6c1.3-3.6,5.2-5.5,8.8-4.2c3.6,1.3,5.5,5.2,4.2,8.8C286.3,275.7,264.6,306.7,201.9,306.7z"/>
	</g>
	<g>
		<g>
			<path class="st7" d="M392.4,122.2c-2.6,0-5-1.9-5.4-4.6c-0.5-3,1.5-5.8,4.5-6.4c8-1.4,8.1-6.1,8.1-6.2c0.1-3.7-5.1-4.9-5.2-5
				c-2.5-0.5-4.3-2.7-4.4-5.3c0-2.6,1.7-4.8,4.2-5.4c2.5-0.6,4.3-1.6,4.9-2.6c0.4-0.7,0.2-1.6,0.2-1.6c0-0.1-0.1-0.2-0.1-0.3
				c-0.2-0.8-0.6-1.3-1.4-1.6c-3.6-1.8-11.9-0.2-16.7,1.5c-2.9,1-6-0.5-7-3.3c-1-2.9,0.4-6,3.3-7c1.6-0.6,16.1-5.6,25.4-0.9
				c3.4,1.7,5.8,4.6,7,8.3c0.4,1.2,1.5,5.7-1,10.3c-0.6,1.1-1.3,2-2.1,2.9c2.3,2.5,4,5.9,3.9,10.3c0,4.7-3.5,14.5-17.2,16.9
				C393,122.1,392.7,122.2,392.4,122.2z"/>
		</g>
	</g>
	<g>
		<path class="st127" d="M510.3,72.3c-0.6,0-1.2-0.2-1.5-0.5c-0.3-0.3-0.5-0.9-0.5-1.4c0-0.5,0.1-1,0.5-1.4c0.3-0.3,0.9-0.5,1.5-0.5
			h18.9c1.9-3,3.6-6.1,5-9.3c0.3-0.6,0.7-1,1.2-1.2c0.5-0.2,1-0.1,1.6,0.1c0.4,0.3,0.8,0.6,1,1.1c0.4,1-1,4.2-4.3,9.4h35.6
			c0.6,0,1.1,0.1,1.4,0.5c0.3,0.3,0.5,0.9,0.5,1.5c0,0.5-0.2,1-0.5,1.4c-0.3,0.4-0.8,0.6-1.4,0.6h-11c-2.1,8-6.5,15-12.7,20.9l22,8
			c0.6,0.2,1,0.6,1.2,1.1c0.2,0.4,0.3,0.9,0.1,1.5c-0.2,0.5-0.5,0.9-1,1.1c-0.5,0.2-1.1,0.2-1.8,0l-23.9-8.9
			c-3.6,2.5-7.6,4.3-11.9,5.6c-4.9,1.3-11.5,2.1-19.6,2.3c-0.7-0.1-1.2-0.3-1.6-0.7c-0.3-0.4-0.5-0.9-0.4-1.4v-0.2
			c0-1.2,2.4-1.9,7.1-2.1c9.3-0.8,16.5-2.7,21.9-5.4l-17.9-6.7c-1.5-0.6-2.4-1.6-2.6-2.8c-0.2-1.3,0.7-2.8,2.7-4.7
			c2.2-2.1,4.4-4.7,6.6-7.6H510.3z M537.8,43.7c0-0.6,0.1-1.2,0.5-1.5c0.3-0.3,0.9-0.5,1.5-0.5c0.5,0,1,0.2,1.4,0.5
			c0.4,0.3,0.6,0.9,0.6,1.5v5.6H565c1.3-0.1,2.4,0.2,3.2,0.8c0.6,0.5,1.2,1,1.7,1.9c0.8,1.1,1,2.5,0.7,4.2c-0.3,1.6-1.1,4-2.4,7.1
			c-0.3,0.7-0.8,1.1-1.2,1.3s-1,0.1-1.4-0.1c-1.2-0.4-1.5-1.4-1-2.7c1.9-3.8,2.5-6.1,1.7-7.1c-0.5-0.9-1.6-1.3-3.1-1.3h-45
			c-1.2,0-2.1,0.3-2.8,1c-0.6,0.6-0.9,1.6-0.9,2.7v5.5c0,0.7-0.2,1.2-0.5,1.6l-1.4,0.5c-0.6-0.1-1.1-0.3-1.4-0.6
			c-0.3-0.4-0.5-1-0.5-1.6v-6.7c-0.1-2,0.5-3.5,1.8-4.7c1.2-1.1,2.7-1.7,4.6-1.7h20.9V43.7z M541.6,91.6
			c6.4-4.9,10.6-11.5,12.6-19.3h-23c-2.7,3.6-5.5,6.9-8.6,9.8c-0.5,0.5-0.7,1-0.5,1.6c0.1,0.5,0.6,1,1.3,1.2L541.6,91.6z"/>
		<path class="st127" d="M591.3,52.8c0.3-0.3,0.8-0.5,1.4-0.6c0.6,0,1.1,0.2,1.4,0.6c0.3,0.4,0.5,0.9,0.6,1.5
			c0.2,12.1-1.5,25.7-5.3,41c-0.2,0.6-0.5,1.1-0.9,1.4c-0.4,0.3-1,0.3-1.6,0.3c-0.6-0.1-1-0.4-1.2-0.8c-0.3-0.5-0.3-1-0.2-1.8
			c3.8-14.7,5.6-28,5.3-40C590.8,53.7,591,53.2,591.3,52.8z M603.2,47.2c0.3-0.3,0.8-0.5,1.4-0.6c0.5,0.1,1,0.2,1.4,0.5
			c0.4,0.4,0.6,0.9,0.6,1.6v46.1c-0.1,1.5,0.3,2.7,1,3.4c0.6,0.7,1.6,1,2.9,1.2l0.9,0.1c10.4,1,17.4,0.7,21-0.8l0.5-0.2
			c1.3-0.8,2-2.9,2-6.2c0-6.4,0.2-9.9,0.7-10.3c0.3-0.3,0.8-0.5,1.4-0.5c0.5,0.1,1,0.2,1.4,0.5c0.3,0.5,0.5,1,0.5,1.7v11.9
			c-0.1,1.4-0.3,2.7-0.8,3.7c-0.6,1.4-1.6,2.4-2.9,2.9c-3,1.3-7.4,1.9-13.2,1.9c-9.5-0.1-15.2-0.8-16.7-2.1
			c-1.8-1.4-2.7-3.8-2.7-6.9V48.8C602.8,48.1,602.9,47.6,603.2,47.2z M616.4,42.8c0.2-0.5,0.6-0.8,1.2-0.9c0.5-0.2,1.1-0.1,1.6,0.1
			c0.5,0.3,0.8,0.8,1,1.4c3.3,10.6,5.2,23.1,5.8,37.4c0.1,0.7-0.1,1.2-0.3,1.6c-0.3,0.4-0.9,0.7-1.5,0.8c-0.6,0-1.1-0.1-1.4-0.5
			c-0.4-0.3-0.6-0.8-0.7-1.6c-0.5-13.9-2.3-26.1-5.6-36.5C616.2,43.9,616.2,43.3,616.4,42.8z M636.2,50.9c0.2-0.4,0.6-0.8,1.2-1
			c0.5-0.2,1.1-0.1,1.6,0.1c0.5,0.3,0.8,0.7,1,1.3c4.3,11.7,7.1,25.7,8.5,42c0.1,0.6-0.1,1.2-0.3,1.6c-0.3,0.4-0.8,0.7-1.4,0.8
			c-0.6,0.1-1-0.1-1.4-0.4c-0.4-0.3-0.7-0.9-0.8-1.6c-1.3-15.7-4-29.4-8.3-41C636,52,636,51.4,636.2,50.9z"/>
		<path class="st127" d="M700.4,64.8c-2.5,7.6-4.9,11.8-6.9,12.6c-0.4,0.1-0.9-0.1-1.4-0.3c-0.5-0.3-0.8-0.7-0.9-1.2
			c-0.3-0.5-0.2-1,0.3-1.6l2.5-4l-0.8,0.1h-10.8v21.9c4.3-2.1,7.8-3.9,10.2-5.5c0.5-0.3,1.1-0.5,1.6-0.3c0.4,0.1,0.8,0.4,1.1,0.9
			c0.3,0.5,0.4,1,0.3,1.5c-0.1,0.5-0.4,0.9-0.9,1.2l-12.4,6.4c-11.2,4.9-17.6,7-19.2,6.4c-0.5-0.3-0.8-0.7-1-1.2
			c-0.2-0.6-0.1-1.2,0.1-1.6c0.2-0.5,1.9-1.2,5-2V63c0-0.6,0.1-1.1,0.5-1.4c0.3-0.3,0.8-0.5,1.4-0.5c0.5,0,1,0.2,1.4,0.5
			c0.4,0.3,0.6,0.8,0.6,1.4v33.7l7-2.7V48.9h-13c-0.6,0-1.2-0.2-1.5-0.5c-0.3-0.3-0.5-0.8-0.5-1.4c0-0.5,0.2-1,0.5-1.4
			c0.3-0.3,0.9-0.5,1.5-0.5h29c0.5,0,1,0.1,1.4,0.5c0.3,0.3,0.5,0.9,0.5,1.5c0,0.5-0.2,1-0.5,1.4c-0.3,0.4-0.8,0.6-1.4,0.6h-11.9
			v17.5h10.8c0.6,0,1.1,0.1,1.4,0.5c0.3,0.3,0.4,0.7,0.5,1.2l0.1-0.3c3.2-6.5,4.9-14.7,4.9-24.2c0-0.6,0.1-1.1,0.5-1.4
			c0.3-0.3,0.9-0.5,1.5-0.5c0.5,0,1,0.2,1.4,0.5c0.6,0.6,0.7,3.2,0.3,7.6h20.6c0.6,0,1.1,0.1,1.4,0.5c0.3,0.3,0.5,0.8,0.5,1.4
			c0,0.5-0.2,1-0.5,1.4c-0.3,0.3-0.8,0.5-1.4,0.5h-2.7l-0.4,7.8c-1,9.5-4,18-8.6,25.4c3.4,5.2,7.6,9.8,12.6,13.9
			c0.5,0.5,0.8,1,0.8,1.6c0.1,0.5-0.1,1-0.5,1.6c-0.4,0.4-0.9,0.6-1.4,0.7c-0.6,0.1-1.1-0.2-1.6-0.7c-5.4-4.7-9.5-9.3-12.2-13.7
			l-8.2,8c-5.7,4.7-9.2,7-10.4,6.7c-0.5-0.1-0.9-0.5-1.2-1c-0.3-0.5-0.5-1.1-0.3-1.6c0.1-0.4,0.4-0.9,1-1.2
			c7.2-4.7,13-9.5,17.1-14.3C704.1,80.1,701.5,72.7,700.4,64.8z M717.6,53.7h-13.9v0.9c0,10,2.2,19.6,6.7,28.8
			c2.5-4.1,4.5-9.1,5.9-15C717.2,64.2,717.6,59.3,717.6,53.7z"/>
		<path class="st127" d="M771.6,43.4c0-0.6,0.1-1.2,0.5-1.4c0.3-0.3,0.9-0.5,1.5-0.5c0.5,0,1,0.2,1.4,0.5c0.4,0.3,0.6,0.8,0.6,1.4v4
			h25.1c0.6,0,1.2,0.2,1.6,0.5c0.4,0.4,0.6,0.9,0.6,1.4c0,0.8-0.2,1.2-0.6,1.4c-0.5,0.3-1,0.5-1.6,0.5h-49.4
			c-1.9-0.1-2.7,0.9-2.7,2.7v22c0,11.2-1.9,20.2-5.6,26.8c-0.3,0.6-0.8,1-1.4,1s-1,0-1.5-0.3c-0.9-0.7-1-1.6-0.3-2.9
			c3.2-7.1,4.8-15.8,4.8-25.9V52.6c-0.1-1.6,0.3-2.9,1.2-3.9c0.8-0.9,2.2-1.3,4-1.3h21.9V43.4z M756.9,76.1
			c-2.3,4.7-4.2,7.1-5.5,7.3c-0.5,0-1-0.1-1.5-0.5c-0.5-0.4-0.7-0.8-0.8-1.3c-0.1-0.5,1.1-2.3,3.4-5.5c3.8-5.8,6.6-13.2,8.3-21.9
			c0.1-0.6,0.4-1,0.8-1.4c0.5-0.3,1-0.3,1.5-0.3c0.5,0.1,1,0.4,1.4,0.9l0.1,0.2c0.4,2.1-0.8,6.6-3.4,13.5v36.1
			c0,0.6-0.2,1.2-0.5,1.6c-0.4,0.3-0.8,0.5-1.4,0.5c-0.5,0-1-0.2-1.4-0.5c-0.3-0.3-0.5-0.9-0.5-1.6V77.1l0.2-2.8L756.9,76.1z
			 M766.9,66.1c-0.6,0-1.1-0.2-1.4-0.5c-0.3-0.3-0.5-0.8-0.5-1.4c0-0.5,0.2-1,0.5-1.4c0.3-0.3,0.8-0.5,1.4-0.5h23.3v-6.6
			c0-0.7,0.2-1.2,0.5-1.6c0.3-0.3,0.8-0.5,1.4-0.5c0.5,0.1,1,0.1,1.4,0.5c0.4,0.4,0.6,1,0.6,1.7v6.6h6.2c0.6,0,1.1,0.1,1.4,0.5
			c0.3,0.3,0.5,0.9,0.5,1.5c0,0.5-0.2,1-0.5,1.4c-0.3,0.4-0.8,0.6-1.4,0.6h-6.2v29.2c0,3-1,5.3-2.9,6.9c-1.4,1.4-3.8,2.2-7,2.3
			c-1.9,0.1-5.1-0.4-9.6-1.4c-0.6-0.1-1.1-0.5-1.4-1c-0.3-0.5-0.4-1-0.3-1.6c0.4-1.3,1.4-1.9,2.7-1.4c7.3,1.2,11.9,0.8,13.7-1.1
			c0.5-0.8,0.8-1.9,0.8-3.5V66.1H766.9z M768.7,71.7c0.1-0.5,0.4-0.9,1-1.2c0.5-0.3,1-0.3,1.6-0.2c0.4,0.2,0.9,0.5,1.2,1
			c2.9,4.8,5.4,10.6,7.6,17.5c0.1,0.6,0.1,1.2-0.1,1.7c-0.2,0.4-0.6,0.8-1.2,1c-0.5,0.2-1,0.1-1.5-0.1c-0.4-0.3-0.8-0.8-1-1.4
			c-1.9-6.6-4.3-12.1-7.1-16.7C768.7,72.9,768.7,72.3,768.7,71.7z"/>
	</g>
</g>
</svg>
