<?xml version="1.0" encoding="utf-8"?>
<!-- Generator: Adobe Illustrator 19.1.0, SVG Export Plug-In . SVG Version: 6.00 Build 0)  -->
<svg version="1.1" id="圖層_1" xmlns="http://www.w3.org/2000/svg" xmlns:xlink="http://www.w3.org/1999/xlink" x="0px" y="0px"
	 viewBox="0 0 639.6 242.2" style="enable-background:new 0 0 639.6 242.2;" xml:space="preserve">
<style type="text/css">
	.st0{fill:#EEEEEF;}
	.st1{fill:none;stroke:#33CC99;stroke-miterlimit:10;}
	.st2{fill:#EEEEEF;stroke:#C8C9CA;stroke-width:1.2839;stroke-miterlimit:10;}
	.st3{fill:#9E9E9F;}
	.st4{fill:#FFFFFF;stroke:#33CC99;stroke-width:1.5;stroke-miterlimit:10;}
	.st5{fill:none;stroke:#33CC99;stroke-width:1.4057;stroke-miterlimit:10;}
	.st6{fill:#33CC99;}
	.st7{fill:#33CC99;stroke:#FFFFFF;stroke-width:1.4057;stroke-miterlimit:10;}
	.st8{fill:#FFFFFF;}
	.st9{fill:none;stroke:#FFFFFF;stroke-width:2;stroke-linecap:round;stroke-linejoin:round;stroke-miterlimit:10;}
	.st10{fill:none;stroke:#33CC99;stroke-width:1.5;stroke-linecap:round;stroke-linejoin:round;stroke-miterlimit:10;}
	.st11{fill:none;stroke:#888888;stroke-miterlimit:10;}
	.st12{fill:#FFFFFF;stroke:#29C5EF;stroke-width:1.5;stroke-miterlimit:10;}
	.st13{fill:#FFFFFF;stroke:#F27968;stroke-width:1.5;stroke-miterlimit:10;}
	.st14{fill:#FFFFFF;stroke:#BA8642;stroke-width:1.5;stroke-miterlimit:10;}
	.st15{fill:#FFFFFF;stroke:#1B70AF;stroke-width:1.5;stroke-miterlimit:10;}
	.st16{fill:#FFFFFF;stroke:#C5EF14;stroke-width:1.5;stroke-miterlimit:10;}
	.st17{fill:#FFFFFF;stroke:#D64C4C;stroke-width:1.5;stroke-miterlimit:10;}
	.st18{fill:#FFFFFF;stroke:#33871B;stroke-width:1.5;stroke-miterlimit:10;}
	.st19{fill:#FFFFFF;stroke:#6852C6;stroke-width:1.5;stroke-miterlimit:10;}
	.st20{fill:#FFFFFF;stroke:#345484;stroke-width:1.5;stroke-miterlimit:10;}
	.st21{fill:#FFFFFF;stroke:#1E9E70;stroke-width:1.5;stroke-miterlimit:10;}
	.st22{fill:#FFFFFF;stroke:#4BB735;stroke-width:1.5;stroke-miterlimit:10;}
	.st23{fill:#FFFFFF;stroke:#FFE000;stroke-width:1.5;stroke-miterlimit:10;}
	.st24{fill:#FFFFFF;stroke:#DA6FDD;stroke-width:1.5;stroke-miterlimit:10;}
	.st25{fill:#FFFFFF;stroke:#8A71DB;stroke-width:1.5;stroke-miterlimit:10;}
	.st26{fill:#FFFFFF;stroke:#FCA61D;stroke-width:1.5;stroke-miterlimit:10;}
	.st27{fill:#EEEEEF;stroke:#DBDCDC;stroke-miterlimit:10;}
	.st28{fill:#C8C9CA;}
	.st29{display:none;}
	.st30{display:inline;}
	.st31{fill:#33CC99;stroke:#33CC99;stroke-width:0.8099;stroke-miterlimit:10;}
	.st32{fill:none;stroke:#B4B4B5;stroke-width:2;stroke-linecap:round;stroke-linejoin:round;stroke-miterlimit:10;}
	.st33{fill:#B4B4B5;}
	.st34{fill:#F7F7F7;}
	.st35{fill:#33CC99;stroke:#33CC99;stroke-miterlimit:10;}
	.st36{fill:#FFE000;}
	.st37{fill:#F27968;}
	.st38{fill:#DA6FDD;}
	.st39{fill:#3399FF;}
	.st40{fill:#29C5EF;}
	.st41{fill:#FCA61D;}
	.st42{fill:#D64C4C;}
	.st43{fill:#8A71DB;}
	.st44{fill:#1B70AF;}
	.st45{fill:#C5EF14;}
	.st46{fill:#7BD661;}
	.st47{fill:#BA8642;}
	.st48{fill:#AF2F2F;}
	.st49{fill:#6852C6;}
	.st50{fill:#345484;}
	.st51{fill:#1E9E70;}
	.st52{fill:#33871B;}
	.st53{fill:none;stroke:#29C5EF;stroke-width:1.5;stroke-miterlimit:10;}
	.st54{fill:none;stroke:#F27968;stroke-width:1.4057;stroke-miterlimit:10;}
	.st55{fill:#FFFFFF;stroke:#33871B;stroke-width:3;stroke-miterlimit:10;}
	.st56{fill:none;stroke:#345484;stroke-width:1.5;stroke-miterlimit:10;}
	.st57{fill:none;stroke:#FFE000;stroke-width:1.5;stroke-miterlimit:10;}
	.st58{fill:none;stroke:#DA6FDD;stroke-width:1.5;stroke-miterlimit:10;}
	.st59{fill:none;stroke:#8A71DB;stroke-width:1.5;stroke-miterlimit:10;}
	.st60{fill:none;stroke:#FCA61D;stroke-width:1.5;stroke-miterlimit:10;}
	.st61{fill:#7BD661;stroke:#EEEEEF;stroke-width:1.5;stroke-miterlimit:10;}
	.st62{fill:#717071;}
	.st63{fill:#33CC99;stroke:#33CC99;stroke-width:0.7337;stroke-miterlimit:10;}
	.st64{fill:#33CC99;stroke:#33CC99;stroke-width:0.4284;stroke-miterlimit:10;}
	.st65{fill:none;stroke:#888888;stroke-width:2;stroke-linecap:round;stroke-linejoin:round;stroke-miterlimit:10;}
	.st66{display:inline;fill:none;stroke:#888888;stroke-width:2;stroke-linecap:round;stroke-linejoin:round;stroke-miterlimit:10;}
	.st67{fill:#8ACC7A;stroke:#9E9E9F;stroke-width:1.0885;stroke-miterlimit:10;}
	.st68{fill:#FFFFFF;stroke:#4BB735;stroke-width:1.0885;stroke-miterlimit:10;}
	.st69{fill:#589B42;stroke:#9E9E9F;stroke-width:1.0885;stroke-miterlimit:10;}
	.st70{fill:none;stroke:#4BB735;stroke-width:1.5;stroke-miterlimit:10;}
	.st71{fill:#4BB735;}
	.st72{fill:none;stroke:#29C5EF;stroke-miterlimit:10;}
	.st73{clip-path:url(#SVGID_2_);fill:#4BB735;}
	.st74{clip-path:url(#SVGID_4_);fill:#33CC99;}
	.st75{clip-path:url(#SVGID_6_);fill:#BA8642;}
	.st76{clip-path:url(#SVGID_8_);fill:#33CC99;}
	.st77{clip-path:url(#SVGID_10_);fill:#D64C4C;}
	.st78{clip-path:url(#SVGID_12_);fill:#1B70AF;}
	.st79{clip-path:url(#SVGID_14_);fill:#FFE000;}
	.st80{clip-path:url(#SVGID_16_);fill:#1E9E70;}
	.st81{clip-path:url(#SVGID_18_);fill:#C5EF14;}
	.st82{clip-path:url(#SVGID_20_);fill:#33CC99;}
	.st83{clip-path:url(#SVGID_22_);fill:#8A71DB;}
	.st84{clip-path:url(#SVGID_24_);fill:#FFFFFF;}
	.st85{clip-path:url(#SVGID_26_);fill:#BA8642;}
	.st86{clip-path:url(#SVGID_28_);fill:#33CC99;}
	.st87{clip-path:url(#SVGID_30_);fill:#D64C4C;}
	.st88{clip-path:url(#SVGID_32_);fill:#1B70AF;}
	.st89{clip-path:url(#SVGID_34_);fill:#FFE000;}
	.st90{clip-path:url(#SVGID_36_);fill:#1E9E70;}
	.st91{clip-path:url(#SVGID_38_);fill:#C5EF14;}
	.st92{clip-path:url(#SVGID_40_);fill:#8A71DB;}
</style>
<g>
	<g>
		<g>
			<g>
				<path class="st6" d="M307.6,120.3l-38.3-73.5c-2-3.8,0.8-8.3,5-8.3l76.8,0c4.3,0,7,4.5,5,8.3l-38.4,73.5
					C315.5,124.4,309.7,124.4,307.6,120.3z"/>
			</g>
		</g>
		<g>
			<g>
				<circle class="st6" cx="65" cy="116.5" r="12.6"/>
			</g>
		</g>
		<g>
			<g>
				<circle class="st6" cx="103" cy="181.6" r="12.6"/>
			</g>
		</g>
		<g>
			<g>
				<circle class="st6" cx="126.2" cy="83.1" r="49.2"/>
			</g>
		</g>
		<g>
			<g>
				<circle class="st6" cx="220.1" cy="83.1" r="49.2"/>
			</g>
		</g>
		<g>
			<g>
				<path class="st6" d="M133.4,194.2H103V169h30.4c9.2,0,16.7-7.5,16.7-16.7V80.9h25.1v71.5C175.2,175.4,156.4,194.2,133.4,194.2z"
					/>
			</g>
		</g>
		<g>
			<g>
				<path class="st6" d="M62.9,129.1H48.5c-17.9,0-32.5-14.6-32.5-32.5V57.4h25.1v39.1c0,4.1,3.3,7.4,7.4,7.4h14.4V129.1z"/>
			</g>
		</g>
		<g>
			<g>
				<rect x="223.9" y="34.1" class="st6" width="125.5" height="25.1"/>
			</g>
		</g>
		<g>
			<g>
				<path class="st6" d="M349.3,34.1h0.9c5.6,0,9.2,5.8,6.8,10.8l-1,2l-11.4-3.8L349.3,34.1z"/>
			</g>
		</g>
		<g>
			<g>
				<path class="st6" d="M15.9,57.4c0,0,11.9-7.5,25.3,0l-17.4,12L15.9,57.4z"/>
			</g>
		</g>
		<g>
			<path class="st6" d="M48,11c0.3,1.8,0.1,3.6-0.3,5.3c0,0.1,0,0.1,0,0.1c-1.1,6-5.2,16.2-19.2,27.7l-0.1-0.2l0,0.2
				C10.7,36.7,4.1,27.6,1.6,22.3c0,0,0,0,0,0c-0.7-1.4-1-2.5-1.2-3.2c-0.1-0.6-0.2-1-0.2-1C-0.9,11,4,4.4,11,3.4
				c3.5-0.5,6.9,0.5,9.5,2.4c1,0.8,1.9,1.7,2.7,2.7c1.5-4.3,5.4-7.7,10.2-8.4C37-0.4,40.4,0.6,43,2.5C45.6,4.5,47.5,7.5,48,11z"/>
			<path class="st6" d="M5.3,22.3c-0.5-0.8-0.8-1.8-1-2.7C4.4,20.2,4.7,21.2,5.3,22.3z"/>
		</g>
	</g>
	<g>
		<path class="st6" d="M413.6,115.4c0.2,1.2,0.5,2.1,1,2.6c0.9,1.1,2.4,1.6,4.6,1.6c1.3,0,2.4-0.1,3.2-0.4c1.5-0.5,2.3-1.5,2.3-3
			c0-0.9-0.4-1.5-1.1-2c-0.8-0.5-1.9-0.9-3.6-1.2l-2.8-0.6c-2.7-0.6-4.6-1.3-5.7-2c-1.7-1.2-2.6-3.1-2.6-5.6c0-2.3,0.9-4.2,2.6-5.8
			c1.7-1.5,4.2-2.3,7.5-2.3c2.8,0,5.1,0.7,7,2.2c1.9,1.4,3,3.5,3.1,6.3h-5.2c-0.1-1.6-0.8-2.7-2.1-3.3c-0.9-0.4-1.9-0.6-3.2-0.6
			c-1.4,0-2.6,0.3-3.4,0.8c-0.8,0.6-1.3,1.3-1.3,2.3c0,0.9,0.4,1.6,1.3,2.1c0.5,0.3,1.7,0.7,3.4,1.1l4.5,1.1c2,0.5,3.5,1.1,4.5,1.9
			c1.5,1.2,2.3,3,2.3,5.3c0,2.4-0.9,4.3-2.7,5.9c-1.8,1.6-4.4,2.3-7.7,2.3c-3.4,0-6.1-0.8-8-2.3c-1.9-1.5-2.9-3.6-2.9-6.3H413.6z"/>
		<path class="st6" d="M442.6,104.3v11.5c0,1.1,0.1,1.9,0.4,2.5c0.5,1,1.3,1.5,2.7,1.5c1.7,0,2.9-0.7,3.5-2.1c0.3-0.7,0.5-1.7,0.5-3
			v-10.4h5.1v19.1h-4.8v-2.7c0,0.1-0.2,0.2-0.3,0.5c-0.2,0.3-0.4,0.5-0.7,0.8c-0.8,0.7-1.5,1.2-2.3,1.4c-0.7,0.3-1.6,0.4-2.6,0.4
			c-2.8,0-4.7-1-5.7-3c-0.5-1.1-0.8-2.8-0.8-5v-11.5H442.6z"/>
		<path class="st6" d="M469.2,102h-5.1v-4.6h5.1V102z M464.1,104.3h5.1v19.1h-5.1V104.3z"/>
		<path class="st6" d="M476.5,108v-3.6h2.7v-5.3h4.9v5.3h3.1v3.6h-3.1v10.1c0,0.8,0.1,1.3,0.3,1.5c0.2,0.2,0.8,0.3,1.8,0.3
			c0.2,0,0.3,0,0.5,0c0.2,0,0.3,0,0.5,0v3.7l-2.4,0.1c-2.4,0.1-4-0.3-4.8-1.2c-0.6-0.6-0.8-1.5-0.8-2.6V108H476.5z"/>
		<path class="st6" d="M502.5,111.7c0.9-0.1,1.6-0.3,2-0.4c0.7-0.3,1.1-0.8,1.1-1.4c0-0.8-0.3-1.3-0.8-1.6c-0.6-0.3-1.4-0.4-2.4-0.4
			c-1.2,0-2,0.3-2.5,0.9c-0.4,0.4-0.6,1-0.7,1.8h-4.8c0.1-1.7,0.6-3,1.4-4.1c1.3-1.7,3.6-2.5,6.8-2.5c2.1,0,4,0.4,5.6,1.2
			c1.6,0.8,2.4,2.4,2.4,4.7v8.8c0,0.6,0,1.3,0,2.2c0,0.7,0.1,1.1,0.3,1.3c0.2,0.2,0.4,0.4,0.7,0.6v0.7h-5.4
			c-0.2-0.4-0.3-0.7-0.3-1.1c-0.1-0.3-0.1-0.7-0.1-1.2c-0.7,0.7-1.5,1.4-2.4,1.9c-1.1,0.6-2.3,0.9-3.7,0.9c-1.7,0-3.2-0.5-4.3-1.5
			s-1.7-2.4-1.7-4.2c0-2.3,0.9-4,2.7-5.1c1-0.6,2.5-1,4.4-1.2L502.5,111.7z M505.5,114.1c-0.3,0.2-0.6,0.4-1,0.5
			c-0.3,0.1-0.8,0.2-1.3,0.3l-1.1,0.2c-1.1,0.2-1.8,0.4-2.3,0.7c-0.8,0.5-1.2,1.2-1.2,2.1c0,0.9,0.2,1.5,0.7,1.8s1.1,0.6,1.8,0.6
			c1.1,0,2.1-0.3,3-0.9c0.9-0.6,1.4-1.8,1.4-3.4V114.1z"/>
		<path class="st6" d="M535.6,106.6c1.4,1.8,2.1,4.1,2.1,7c0,3-0.7,5.4-2.1,7.4c-1.4,1.9-3.4,2.9-5.9,2.9c-1.6,0-2.9-0.3-3.8-0.9
			c-0.6-0.4-1.2-1-1.9-2v2.4h-4.9V97.6h5v9.2c0.6-0.9,1.3-1.6,2.1-2c0.9-0.6,2.1-0.9,3.5-0.9C532.2,103.8,534.2,104.7,535.6,106.6z
			 M531.5,118.2c0.7-1,1.1-2.4,1.1-4.1c0-1.4-0.2-2.5-0.5-3.4c-0.7-1.7-1.9-2.5-3.7-2.5c-1.8,0-3.1,0.8-3.8,2.5
			c-0.4,0.9-0.5,2-0.5,3.4c0,1.6,0.4,3,1.1,4.1s1.8,1.6,3.3,1.6C529.7,119.7,530.8,119.2,531.5,118.2z"/>
		<path class="st6" d="M550.8,123.3h-5V97.5h5V123.3z"/>
		<path class="st6" d="M572.6,104.6c1.3,0.6,2.4,1.5,3.3,2.8c0.8,1.1,1.3,2.4,1.5,3.9c0.1,0.9,0.2,2.1,0.2,3.8h-13.9
			c0.1,1.9,0.7,3.3,2,4c0.8,0.5,1.7,0.7,2.8,0.7c1.1,0,2.1-0.3,2.8-0.9c0.4-0.3,0.7-0.8,1-1.3h5.1c-0.1,1.1-0.8,2.3-1.9,3.4
			c-1.7,1.9-4.1,2.8-7.2,2.8c-2.5,0-4.8-0.8-6.7-2.3c-1.9-1.6-2.9-4.1-2.9-7.6c0-3.3,0.9-5.8,2.6-7.6c1.8-1.8,4-2.6,6.8-2.6
			C569.8,103.8,571.3,104,572.6,104.6z M565.1,109c-0.7,0.7-1.1,1.7-1.3,3h8.6c-0.1-1.3-0.5-2.3-1.3-3c-0.8-0.7-1.8-1-3-1
			C566.8,107.9,565.9,108.2,565.1,109z"/>
		<path class="st6" d="M413.6,150.8c0.2,1.2,0.5,2.1,1,2.6c0.9,1.1,2.4,1.6,4.6,1.6c1.3,0,2.4-0.1,3.2-0.4c1.5-0.5,2.3-1.5,2.3-3
			c0-0.9-0.4-1.5-1.1-2c-0.8-0.5-1.9-0.9-3.6-1.2l-2.8-0.6c-2.7-0.6-4.6-1.3-5.7-2c-1.7-1.2-2.6-3.1-2.6-5.6c0-2.3,0.9-4.2,2.6-5.8
			c1.7-1.5,4.2-2.3,7.5-2.3c2.8,0,5.1,0.7,7,2.2c1.9,1.4,3,3.5,3.1,6.3h-5.2c-0.1-1.6-0.8-2.7-2.1-3.3c-0.9-0.4-1.9-0.6-3.2-0.6
			c-1.4,0-2.6,0.3-3.4,0.8c-0.8,0.6-1.3,1.3-1.3,2.3c0,0.9,0.4,1.6,1.3,2.1c0.5,0.3,1.7,0.7,3.4,1.1l4.5,1.1c2,0.5,3.5,1.1,4.5,1.9
			c1.5,1.2,2.3,3,2.3,5.3c0,2.4-0.9,4.3-2.7,5.9c-1.8,1.6-4.4,2.3-7.7,2.3c-3.4,0-6.1-0.8-8-2.3c-1.9-1.5-2.9-3.6-2.9-6.3H413.6z"/>
		<path class="st6" d="M450.1,140.1c1.3,0.6,2.4,1.5,3.3,2.8c0.8,1.1,1.3,2.4,1.5,3.9c0.1,0.9,0.2,2.1,0.2,3.8h-13.9
			c0.1,1.9,0.7,3.3,2,4c0.8,0.5,1.7,0.7,2.8,0.7c1.1,0,2.1-0.3,2.8-0.9c0.4-0.3,0.7-0.8,1-1.3h5.1c-0.1,1.1-0.8,2.3-1.9,3.4
			c-1.7,1.9-4.1,2.8-7.2,2.8c-2.5,0-4.8-0.8-6.7-2.3c-1.9-1.6-2.9-4.1-2.9-7.6c0-3.3,0.9-5.8,2.6-7.6c1.8-1.8,4-2.6,6.8-2.6
			C447.3,139.2,448.8,139.5,450.1,140.1z M442.6,144.4c-0.7,0.7-1.1,1.7-1.3,3h8.6c-0.1-1.3-0.5-2.3-1.3-3c-0.8-0.7-1.8-1-3-1
			C444.3,143.3,443.4,143.6,442.6,144.4z"/>
		<path class="st6" d="M473.5,146.5c-0.1-0.7-0.3-1.4-0.7-1.9c-0.6-0.8-1.4-1.2-2.6-1.2c-1.7,0-2.8,0.8-3.5,2.5
			c-0.3,0.9-0.5,2.1-0.5,3.5c0,1.4,0.2,2.5,0.5,3.4c0.6,1.6,1.7,2.4,3.4,2.4c1.2,0,2-0.3,2.5-0.9c0.5-0.6,0.8-1.4,0.9-2.5h5.1
			c-0.1,1.5-0.7,3-1.6,4.3c-1.6,2.2-3.9,3.3-7,3.3c-3.1,0-5.3-0.9-6.8-2.7c-1.4-1.8-2.2-4.2-2.2-7.1c0-3.3,0.8-5.8,2.4-7.6
			c1.6-1.8,3.8-2.7,6.6-2.7c2.4,0,4.4,0.5,5.9,1.6c1.5,1.1,2.4,3,2.7,5.7H473.5z"/>
		<path class="st6" d="M491.5,139.7v11.5c0,1.1,0.1,1.9,0.4,2.5c0.5,1,1.3,1.5,2.7,1.5c1.7,0,2.9-0.7,3.5-2.1c0.3-0.7,0.5-1.7,0.5-3
			v-10.4h5.1v19.1h-4.8v-2.7c0,0.1-0.2,0.2-0.3,0.5c-0.2,0.3-0.4,0.5-0.7,0.8c-0.8,0.7-1.5,1.2-2.3,1.4c-0.7,0.3-1.6,0.4-2.6,0.4
			c-2.8,0-4.7-1-5.7-3c-0.5-1.1-0.8-2.8-0.8-5v-11.5H491.5z"/>
		<path class="st6" d="M523.5,139.2c0.1,0,0.2,0,0.4,0v5.1c-0.3,0-0.6-0.1-0.8-0.1c-0.2,0-0.4,0-0.6,0c-2,0-3.4,0.7-4,2
			c-0.4,0.7-0.6,1.9-0.6,3.4v9.1h-5v-19.1h4.8v3.3c0.8-1.3,1.4-2.1,2-2.6c0.9-0.8,2.1-1.2,3.6-1.2
			C523.4,139.2,523.4,139.2,523.5,139.2z"/>
		<path class="st6" d="M543.8,140.1c1.3,0.6,2.4,1.5,3.3,2.8c0.8,1.1,1.3,2.4,1.5,3.9c0.1,0.9,0.2,2.1,0.2,3.8h-13.9
			c0.1,1.9,0.7,3.3,2,4c0.8,0.5,1.7,0.7,2.8,0.7c1.1,0,2.1-0.3,2.8-0.9c0.4-0.3,0.7-0.8,1-1.3h5.1c-0.1,1.1-0.8,2.3-1.9,3.4
			c-1.7,1.9-4.1,2.8-7.2,2.8c-2.5,0-4.8-0.8-6.7-2.3c-1.9-1.6-2.9-4.1-2.9-7.6c0-3.3,0.9-5.8,2.6-7.6c1.8-1.8,4-2.6,6.8-2.6
			C540.9,139.2,542.4,139.5,543.8,140.1z M536.3,144.4c-0.7,0.7-1.1,1.7-1.3,3h8.6c-0.1-1.3-0.5-2.3-1.3-3c-0.8-0.7-1.8-1-3-1
			C538,143.3,537,143.6,536.3,144.4z"/>
		<path class="st6" d="M413.6,186.2c0.2,1.2,0.5,2.1,1,2.6c0.9,1.1,2.4,1.6,4.6,1.6c1.3,0,2.4-0.1,3.2-0.4c1.5-0.5,2.3-1.5,2.3-3
			c0-0.9-0.4-1.5-1.1-2c-0.8-0.5-1.9-0.9-3.6-1.2l-2.8-0.6c-2.7-0.6-4.6-1.3-5.7-2c-1.7-1.2-2.6-3.1-2.6-5.6c0-2.3,0.9-4.2,2.6-5.8
			c1.7-1.5,4.2-2.3,7.5-2.3c2.8,0,5.1,0.7,7,2.2c1.9,1.4,3,3.5,3.1,6.3h-5.2c-0.1-1.6-0.8-2.7-2.1-3.3c-0.9-0.4-1.9-0.6-3.2-0.6
			c-1.4,0-2.6,0.3-3.4,0.8c-0.8,0.6-1.3,1.3-1.3,2.3c0,0.9,0.4,1.6,1.3,2.1c0.5,0.3,1.7,0.7,3.4,1.1l4.5,1.1c2,0.5,3.5,1.1,4.5,1.9
			c1.5,1.2,2.3,3,2.3,5.3c0,2.4-0.9,4.3-2.7,5.9c-1.8,1.6-4.4,2.3-7.7,2.3c-3.4,0-6.1-0.8-8-2.3c-1.9-1.5-2.9-3.6-2.9-6.3H413.6z"/>
		<path class="st6" d="M461.5,175.2c0.8,0.3,1.6,0.9,2.2,1.7c0.5,0.7,0.9,1.5,1.1,2.5c0.1,0.6,0.2,1.6,0.2,2.8l0,12h-5.1V182
			c0-0.7-0.1-1.3-0.4-1.8c-0.4-0.9-1.3-1.3-2.5-1.3c-1.4,0-2.3,0.6-2.9,1.7c-0.3,0.6-0.4,1.3-0.4,2.2v11.4h-5v-11.4
			c0-1.1-0.1-2-0.4-2.5c-0.4-0.9-1.2-1.4-2.5-1.4c-1.4,0-2.4,0.5-2.9,1.4c-0.3,0.5-0.4,1.3-0.4,2.3v11.5h-5.1v-19h4.8v2.8
			c0.6-1,1.2-1.7,1.8-2.1c1-0.7,2.2-1.1,3.8-1.1c1.5,0,2.6,0.3,3.5,1c0.7,0.6,1.3,1.4,1.6,2.3c0.7-1.1,1.5-1.9,2.4-2.5
			c1-0.5,2.2-0.8,3.4-0.8C459.8,174.7,460.7,174.8,461.5,175.2z"/>
		<path class="st6" d="M481.6,182.6c0.9-0.1,1.6-0.3,2-0.4c0.7-0.3,1.1-0.8,1.1-1.4c0-0.8-0.3-1.3-0.8-1.6s-1.4-0.4-2.4-0.4
			c-1.2,0-2,0.3-2.5,0.9c-0.4,0.4-0.6,1-0.7,1.8h-4.8c0.1-1.7,0.6-3,1.4-4.1c1.3-1.7,3.6-2.5,6.8-2.5c2.1,0,4,0.4,5.6,1.2
			c1.6,0.8,2.4,2.4,2.4,4.7v8.8c0,0.6,0,1.3,0,2.2c0,0.7,0.1,1.1,0.3,1.3c0.2,0.2,0.4,0.4,0.7,0.6v0.7h-5.4
			c-0.2-0.4-0.3-0.7-0.3-1.1c-0.1-0.3-0.1-0.7-0.1-1.2c-0.7,0.7-1.5,1.4-2.4,1.9c-1.1,0.6-2.3,0.9-3.7,0.9c-1.7,0-3.2-0.5-4.3-1.5
			c-1.1-1-1.7-2.4-1.7-4.2c0-2.3,0.9-4,2.7-5.1c1-0.6,2.5-1,4.4-1.2L481.6,182.6z M484.6,184.9c-0.3,0.2-0.6,0.4-1,0.5
			c-0.3,0.1-0.8,0.2-1.3,0.3l-1.1,0.2c-1.1,0.2-1.8,0.4-2.3,0.7c-0.8,0.5-1.2,1.2-1.2,2.1c0,0.9,0.2,1.5,0.7,1.8
			c0.5,0.4,1.1,0.6,1.8,0.6c1.1,0,2.1-0.3,3-0.9s1.4-1.8,1.4-3.4V184.9z"/>
		<path class="st6" d="M509.1,174.6c0.1,0,0.2,0,0.4,0v5.1c-0.3,0-0.6-0.1-0.8-0.1c-0.2,0-0.4,0-0.6,0c-2,0-3.4,0.7-4,2
			c-0.4,0.7-0.6,1.9-0.6,3.4v9.1h-5v-19.1h4.8v3.3c0.8-1.3,1.4-2.1,2-2.6c0.9-0.8,2.1-1.2,3.6-1.2
			C508.9,174.6,509,174.6,509.1,174.6z"/>
		<path class="st6" d="M514.9,178.8v-3.6h2.7v-5.3h4.9v5.3h3.1v3.6h-3.1v10.1c0,0.8,0.1,1.3,0.3,1.5c0.2,0.2,0.8,0.3,1.8,0.3
			c0.2,0,0.3,0,0.5,0c0.2,0,0.3,0,0.5,0v3.7l-2.4,0.1c-2.4,0.1-4-0.3-4.8-1.2c-0.6-0.6-0.8-1.5-0.8-2.6v-11.7H514.9z"/>
	</g>
	<g>
		<circle class="st8" cx="220.1" cy="83.1" r="13.7"/>
	</g>
	<g>
		<circle class="st8" cx="126.2" cy="83.1" r="13.7"/>
	</g>
	<g>
		<path class="st6" d="M156.5,242.2c-13.1,0-28.5-1.7-46.5-5.6c-3-0.7-4.9-3.6-4.2-6.6s3.6-4.9,6.6-4.2
			c78.7,17.3,101.2-11,107.6-29.4c1-2.9,4.2-4.4,7-3.4c2.9,1,4.4,4.2,3.4,7C224.4,217.4,207,242.2,156.5,242.2z"/>
	</g>
	<g>
		<g>
			<path class="st8" d="M309.8,93.8c-2.1,0-4-1.5-4.4-3.7c-0.4-2.4,1.2-4.7,3.6-5.1c6.5-1.1,6.5-4.9,6.5-5c0.1-3-4.1-4-4.2-4
				c-2-0.4-3.5-2.2-3.5-4.3c0-2.1,1.4-3.9,3.4-4.4c2-0.5,3.5-1.3,3.9-2.1c0.3-0.6,0.2-1.3,0.2-1.3c0-0.1-0.1-0.2-0.1-0.2
				c-0.2-0.6-0.5-1-1.1-1.3c-2.9-1.5-9.6-0.2-13.4,1.2c-2.3,0.8-4.8-0.4-5.7-2.7c-0.8-2.3,0.4-4.8,2.7-5.7c1.3-0.5,13-4.5,20.4-0.8
				c2.8,1.4,4.7,3.7,5.6,6.7c0.3,0.9,1.2,4.6-0.8,8.3c-0.5,0.9-1,1.6-1.7,2.4c1.9,2,3.2,4.7,3.1,8.3c0,3.8-2.8,11.7-13.9,13.6
				C310.3,93.8,310,93.8,309.8,93.8z"/>
		</g>
	</g>
	<g>
		<path class="st31" d="M404.6,53.7c-0.5,0-0.9-0.2-1.2-0.4c-0.3-0.3-0.4-0.7-0.4-1.2c0-0.4,0.1-0.8,0.4-1.2
			c0.3-0.3,0.7-0.4,1.2-0.4h15.2c1.5-2.4,2.9-4.9,4-7.5c0.2-0.5,0.6-0.8,0.9-1c0.4-0.2,0.8-0.1,1.3,0.1c0.3,0.2,0.7,0.5,0.8,0.9
			c0.3,0.8-0.8,3.4-3.4,7.6h28.6c0.5,0,0.9,0.1,1.2,0.4c0.3,0.3,0.4,0.7,0.4,1.2c0,0.4-0.2,0.8-0.4,1.1c-0.3,0.3-0.7,0.5-1.2,0.5
			h-8.8c-1.7,6.5-5.2,12.1-10.2,16.8l17.7,6.4c0.5,0.2,0.8,0.5,1,0.9c0.2,0.3,0.2,0.7,0.1,1.2c-0.2,0.4-0.4,0.7-0.8,0.9
			c-0.4,0.2-0.9,0.2-1.4,0l-19.2-7.2c-2.9,2-6.1,3.5-9.6,4.5c-4,1-9.2,1.7-15.7,1.9c-0.6-0.1-1-0.2-1.3-0.6
			c-0.3-0.3-0.4-0.7-0.3-1.1v-0.2c0-1,1.9-1.5,5.7-1.7c7.5-0.6,13.3-2.2,17.6-4.3l-14.4-5.4c-1.2-0.5-1.9-1.3-2.1-2.3
			c-0.2-1,0.6-2.3,2.2-3.8c1.8-1.7,3.5-3.8,5.3-6.1H404.6z M426.8,30.7c0-0.5,0.1-0.9,0.4-1.2c0.3-0.2,0.7-0.4,1.2-0.4
			c0.4,0,0.8,0.2,1.1,0.4c0.3,0.3,0.5,0.7,0.5,1.2v4.5h18.6c1-0.1,1.9,0.2,2.6,0.6c0.5,0.4,1,0.8,1.4,1.5c0.6,0.9,0.8,2,0.6,3.4
			c-0.2,1.3-0.9,3.2-1.9,5.7c-0.3,0.6-0.6,0.9-1,1c-0.4,0.2-0.8,0.1-1.2-0.1c-0.9-0.3-1.2-1.2-0.8-2.2c1.5-3,2-4.9,1.4-5.7
			c-0.4-0.7-1.3-1-2.5-1h-36.2c-1,0-1.7,0.2-2.3,0.8c-0.5,0.5-0.7,1.3-0.7,2.2v4.4c0,0.6-0.2,1-0.4,1.3l-1.2,0.4
			c-0.5-0.1-0.9-0.2-1.1-0.5c-0.3-0.3-0.4-0.8-0.4-1.3v-5.4c-0.1-1.6,0.4-2.8,1.4-3.8c0.9-0.9,2.2-1.4,3.7-1.4h16.8V30.7z
			 M429.7,69.2c5.1-4,8.5-9.2,10.1-15.5h-18.5c-2.2,2.9-4.4,5.5-6.9,7.9c-0.4,0.4-0.6,0.8-0.4,1.3c0.1,0.4,0.5,0.8,1,1L429.7,69.2z"
			/>
		<path class="st31" d="M469.8,38c0.3-0.3,0.7-0.4,1.2-0.5c0.5,0,0.9,0.2,1.1,0.5c0.3,0.3,0.4,0.7,0.5,1.2c0.2,9.7-1.2,20.7-4.3,33
			c-0.2,0.5-0.4,0.9-0.7,1.1c-0.3,0.2-0.8,0.3-1.3,0.2c-0.5-0.1-0.8-0.3-1-0.7c-0.2-0.4-0.3-0.8-0.2-1.4c3-11.8,4.5-22.5,4.3-32.1
			C469.3,38.7,469.5,38.3,469.8,38z M479.4,33.5c0.3-0.3,0.7-0.4,1.2-0.5c0.4,0.1,0.8,0.2,1.1,0.4c0.3,0.3,0.5,0.7,0.5,1.3v37.1
			c-0.1,1.2,0.2,2.2,0.8,2.8c0.5,0.6,1.3,0.8,2.3,1l0.7,0.1c8.4,0.8,14,0.6,16.9-0.6l0.4-0.2c1-0.7,1.6-2.3,1.6-5
			c0-5.1,0.2-8,0.6-8.3c0.3-0.3,0.7-0.4,1.1-0.4c0.4,0.1,0.8,0.2,1.2,0.4c0.3,0.4,0.4,0.8,0.4,1.4v9.6c-0.1,1.2-0.2,2.2-0.6,3
			c-0.5,1.2-1.3,1.9-2.3,2.3c-2.4,1-6,1.5-10.7,1.5c-7.7-0.1-12.2-0.7-13.5-1.7c-1.4-1.2-2.2-3-2.2-5.5V34.8
			C479,34.2,479.1,33.8,479.4,33.5z M490,30c0.2-0.4,0.5-0.6,0.9-0.7c0.4-0.2,0.9-0.1,1.3,0.1c0.4,0.3,0.6,0.6,0.8,1.1
			c2.7,8.5,4.2,18.6,4.6,30.1c0.1,0.6-0.1,1-0.3,1.3c-0.3,0.3-0.7,0.6-1.2,0.6c-0.5,0-0.9-0.1-1.1-0.4c-0.3-0.3-0.5-0.7-0.6-1.3
			c-0.4-11.2-1.9-21-4.5-29.4C489.8,30.9,489.8,30.4,490,30z M505.9,36.5c0.2-0.3,0.5-0.6,0.9-0.8c0.4-0.2,0.9-0.1,1.3,0.1
			c0.4,0.3,0.7,0.6,0.8,1c3.4,9.4,5.7,20.7,6.8,33.8c0.1,0.5-0.1,0.9-0.3,1.3c-0.3,0.3-0.7,0.6-1.2,0.7c-0.5,0.1-0.8-0.1-1.2-0.3
			c-0.3-0.3-0.6-0.7-0.6-1.3c-1-12.6-3.3-23.6-6.7-33C505.7,37.4,505.7,36.9,505.9,36.5z"/>
		<path class="st31" d="M557.6,47.7c-2,6.1-4,9.5-5.6,10.1c-0.3,0.1-0.7-0.1-1.2-0.3c-0.4-0.3-0.6-0.6-0.7-0.9
			c-0.2-0.4-0.2-0.8,0.2-1.3l2-3.2l-0.7,0.1H543v17.6c3.5-1.7,6.2-3.1,8.2-4.4c0.4-0.3,0.9-0.4,1.3-0.3c0.3,0.1,0.6,0.3,0.9,0.7
			c0.3,0.4,0.3,0.8,0.3,1.2c-0.1,0.4-0.3,0.7-0.7,1l-9.9,5.1c-9,3.9-14.2,5.6-15.4,5.1c-0.4-0.2-0.6-0.6-0.8-0.9
			c-0.2-0.5-0.1-0.9,0.1-1.3c0.2-0.4,1.5-0.9,4-1.6V46.2c0-0.5,0.1-0.9,0.4-1.2c0.3-0.3,0.7-0.4,1.2-0.4c0.4,0,0.8,0.2,1.2,0.4
			c0.3,0.3,0.5,0.7,0.5,1.2v27.1l5.6-2.2V34.9h-10.5c-0.5,0-0.9-0.2-1.2-0.4c-0.3-0.3-0.4-0.7-0.4-1.2c0-0.4,0.2-0.8,0.4-1.2
			c0.3-0.3,0.7-0.4,1.2-0.4h23.3c0.4,0,0.8,0.1,1.1,0.4c0.3,0.3,0.4,0.7,0.4,1.2c0,0.4-0.2,0.8-0.4,1.1c-0.3,0.3-0.7,0.5-1.1,0.5
			H543V49h8.7c0.5,0,0.9,0.1,1.1,0.4c0.2,0.2,0.3,0.6,0.4,1l0.1-0.2c2.6-5.2,3.9-11.8,3.9-19.5c0-0.5,0.1-0.9,0.4-1.2
			c0.3-0.2,0.7-0.4,1.2-0.4c0.4,0,0.8,0.2,1.1,0.4c0.5,0.5,0.6,2.5,0.2,6.1h16.6c0.5,0,0.9,0.1,1.2,0.4c0.2,0.2,0.4,0.7,0.4,1.2
			c0,0.4-0.2,0.8-0.4,1.2c-0.3,0.3-0.7,0.4-1.2,0.4h-2.2l-0.3,6.3c-0.8,7.6-3.2,14.5-7,20.4c2.7,4.2,6.1,7.9,10.1,11.2
			c0.4,0.4,0.6,0.8,0.7,1.3c0.1,0.4-0.1,0.8-0.4,1.3c-0.3,0.3-0.7,0.5-1.2,0.6c-0.5,0.1-0.9-0.2-1.3-0.6c-4.3-3.8-7.7-7.5-9.8-11
			l-6.6,6.4c-4.6,3.8-7.4,5.6-8.4,5.4c-0.4-0.1-0.7-0.4-1-0.8c-0.3-0.4-0.4-0.9-0.3-1.3c0.1-0.3,0.3-0.7,0.8-1
			c5.8-3.8,10.4-7.6,13.8-11.5C560.5,60,558.4,54,557.6,47.7z M571.4,38.8h-11.2v0.7c0,8.1,1.8,15.8,5.4,23.1c2-3.3,3.6-7.3,4.7-12
			C571,47.2,571.4,43.2,571.4,38.8z"/>
		<path class="st31" d="M614.8,30.5c0-0.5,0.1-0.9,0.4-1.2c0.3-0.3,0.7-0.4,1.2-0.4c0.4,0,0.8,0.2,1.1,0.4c0.3,0.2,0.5,0.7,0.5,1.2
			v3.2h20.2c0.5,0,0.9,0.2,1.3,0.4c0.3,0.3,0.5,0.7,0.5,1.2c0,0.6-0.2,1-0.5,1.2c-0.4,0.3-0.8,0.4-1.3,0.4h-39.7
			c-1.5-0.1-2.2,0.7-2.2,2.2v17.7c0,9-1.5,16.2-4.5,21.6c-0.3,0.5-0.7,0.8-1.1,0.8c-0.4,0.1-0.8,0-1.2-0.3c-0.7-0.6-0.8-1.3-0.3-2.3
			c2.5-5.7,3.9-12.7,3.9-20.8V37.9c-0.1-1.3,0.3-2.3,0.9-3.1c0.7-0.7,1.8-1,3.2-1h17.6V30.5z M603,56.8c-1.9,3.8-3.4,5.7-4.4,5.9
			c-0.4,0-0.8-0.1-1.2-0.4c-0.4-0.3-0.6-0.7-0.6-1c-0.1-0.4,0.9-1.9,2.8-4.4c3-4.7,5.3-10.6,6.7-17.6c0.1-0.5,0.3-0.8,0.7-1.1
			c0.4-0.2,0.8-0.3,1.2-0.2c0.4,0.1,0.8,0.3,1.1,0.7l0.1,0.2c0.3,1.7-0.6,5.3-2.7,10.8v29c0,0.5-0.2,0.9-0.4,1.3
			c-0.3,0.2-0.7,0.4-1.2,0.4c-0.4,0-0.8-0.2-1.2-0.4c-0.3-0.3-0.4-0.7-0.4-1.3v-21l0.2-2.3L603,56.8z M611,48.7
			c-0.5,0-0.9-0.2-1.2-0.4c-0.3-0.3-0.4-0.7-0.4-1.2c0-0.4,0.2-0.8,0.4-1.2c0.3-0.3,0.7-0.4,1.2-0.4h18.7v-5.3c0-0.6,0.2-1,0.4-1.3
			c0.3-0.3,0.7-0.4,1.1-0.4c0.4,0.1,0.8,0.1,1.2,0.4c0.3,0.3,0.5,0.8,0.5,1.4v5.3h5c0.5,0,0.9,0.1,1.2,0.4c0.3,0.3,0.4,0.7,0.4,1.2
			c0,0.4-0.2,0.8-0.4,1.1c-0.3,0.3-0.7,0.5-1.2,0.5h-5v23.5c0,2.4-0.8,4.3-2.3,5.5c-1.2,1.1-3,1.8-5.6,1.9c-1.5,0.1-4.1-0.3-7.7-1.2
			c-0.5-0.1-0.9-0.4-1.2-0.8c-0.3-0.4-0.3-0.8-0.2-1.3c0.3-1,1.2-1.5,2.2-1.2c5.9,0.9,9.6,0.7,11-0.9c0.4-0.7,0.7-1.5,0.7-2.8V48.7
			H611z M612.5,53.2c0.1-0.4,0.3-0.7,0.8-0.9c0.4-0.2,0.8-0.3,1.3-0.2c0.3,0.2,0.7,0.4,1,0.8c2.3,3.9,4.4,8.6,6.1,14.1
			c0.1,0.5,0.1,1-0.1,1.4c-0.2,0.3-0.5,0.6-1,0.8c-0.4,0.2-0.8,0.1-1.2-0.1c-0.3-0.2-0.7-0.6-0.8-1.1c-1.5-5.3-3.5-9.8-5.7-13.4
			C612.5,54.2,612.4,53.7,612.5,53.2z"/>
	</g>
</g>
</svg>
