<?xml version="1.0" encoding="utf-8"?>
<!-- Generator: Adobe Illustrator 19.1.0, SVG Export Plug-In . SVG Version: 6.00 Build 0)  -->
<svg version="1.1" id="圖層_1" xmlns="http://www.w3.org/2000/svg" xmlns:xlink="http://www.w3.org/1999/xlink" x="0px" y="0px"
	 viewBox="0 0 383.2 85.3" style="enable-background:new 0 0 383.2 85.3;" xml:space="preserve">
<style type="text/css">
	.st0{display:none;fill:#33CC99;}
	.st1{fill:none;}
	.st2{fill:#EEEEEF;}
	.st3{fill:none;stroke:#33CC99;stroke-miterlimit:10;}
	.st4{fill:#EEEEEF;stroke:#C8C9CA;stroke-width:1.2839;stroke-miterlimit:10;}
	.st5{fill:#9E9E9F;}
	.st6{fill:#FFFFFF;stroke:#33CC99;stroke-width:1.5;stroke-miterlimit:10;}
	.st7{fill:none;stroke:#33CC99;stroke-width:1.4057;stroke-miterlimit:10;}
	.st8{fill:#33CC99;}
	.st9{fill:#33CC99;stroke:#FFFFFF;stroke-width:1.4057;stroke-miterlimit:10;}
	.st10{fill:#FFFFFF;}
	.st11{fill:none;stroke:#FFFFFF;stroke-width:2;stroke-linecap:round;stroke-linejoin:round;stroke-miterlimit:10;}
	.st12{fill:none;stroke:#33CC99;stroke-width:1.5;stroke-linecap:round;stroke-linejoin:round;stroke-miterlimit:10;}
	.st13{fill:none;stroke:#888888;stroke-miterlimit:10;}
	.st14{fill:#FFFFFF;stroke:#29C5EF;stroke-width:1.5;stroke-miterlimit:10;}
	.st15{fill:#FFFFFF;stroke:#F27968;stroke-width:1.5;stroke-miterlimit:10;}
	.st16{fill:#FFFFFF;stroke:#BA8642;stroke-width:1.5;stroke-miterlimit:10;}
	.st17{fill:#FFFFFF;stroke:#1B70AF;stroke-width:1.5;stroke-miterlimit:10;}
	.st18{fill:#FFFFFF;stroke:#C5EF14;stroke-width:1.5;stroke-miterlimit:10;}
	.st19{fill:#FFFFFF;stroke:#D64C4C;stroke-width:1.5;stroke-miterlimit:10;}
	.st20{fill:#FFFFFF;stroke:#33871B;stroke-width:1.5;stroke-miterlimit:10;}
	.st21{fill:#FFFFFF;stroke:#6852C6;stroke-width:1.5;stroke-miterlimit:10;}
	.st22{fill:#FFFFFF;stroke:#345484;stroke-width:1.5;stroke-miterlimit:10;}
	.st23{fill:#FFFFFF;stroke:#1E9E70;stroke-width:1.5;stroke-miterlimit:10;}
	.st24{fill:#FFFFFF;stroke:#4BB735;stroke-width:1.5;stroke-miterlimit:10;}
	.st25{fill:#FFFFFF;stroke:#FFE000;stroke-width:1.5;stroke-miterlimit:10;}
	.st26{fill:#FFFFFF;stroke:#DA6FDD;stroke-width:1.5;stroke-miterlimit:10;}
	.st27{fill:#FFFFFF;stroke:#8A71DB;stroke-width:1.5;stroke-miterlimit:10;}
	.st28{fill:#FFFFFF;stroke:#FCA61D;stroke-width:1.5;stroke-miterlimit:10;}
	.st29{fill:#EEEEEF;stroke:#DBDCDC;stroke-miterlimit:10;}
	.st30{fill:#C8C9CA;}
	.st31{display:none;}
	.st32{display:inline;}
	.st33{fill:#33CC99;stroke:#33CC99;stroke-width:0.8099;stroke-miterlimit:10;}
	.st34{fill:none;stroke:#B4B4B5;stroke-width:2;stroke-linecap:round;stroke-linejoin:round;stroke-miterlimit:10;}
	.st35{fill:#B4B4B5;}
	.st36{fill:#F7F7F7;}
	.st37{fill:#33CC99;stroke:#33CC99;stroke-miterlimit:10;}
	.st38{fill:#FFE000;}
	.st39{fill:#F27968;}
	.st40{fill:#DA6FDD;}
	.st41{fill:#3399FF;}
	.st42{fill:#29C5EF;}
	.st43{fill:#FCA61D;}
	.st44{fill:#D64C4C;}
	.st45{fill:#8A71DB;}
	.st46{fill:#1B70AF;}
	.st47{fill:#C5EF14;}
	.st48{fill:#7BD661;}
	.st49{fill:#BA8642;}
	.st50{fill:#AF2F2F;}
	.st51{fill:#6852C6;}
	.st52{fill:#345484;}
	.st53{fill:#1E9E70;}
	.st54{fill:#33871B;}
	.st55{fill:none;stroke:#29C5EF;stroke-width:1.5;stroke-miterlimit:10;}
	.st56{fill:none;stroke:#F27968;stroke-width:1.4057;stroke-miterlimit:10;}
	.st57{fill:#FFFFFF;stroke:#33871B;stroke-width:3;stroke-miterlimit:10;}
	.st58{fill:none;stroke:#345484;stroke-width:1.5;stroke-miterlimit:10;}
	.st59{fill:none;stroke:#FFE000;stroke-width:1.5;stroke-miterlimit:10;}
	.st60{fill:none;stroke:#DA6FDD;stroke-width:1.5;stroke-miterlimit:10;}
	.st61{fill:none;stroke:#8A71DB;stroke-width:1.5;stroke-miterlimit:10;}
	.st62{fill:none;stroke:#FCA61D;stroke-width:1.5;stroke-miterlimit:10;}
	.st63{fill:#7BD661;stroke:#EEEEEF;stroke-width:1.5;stroke-miterlimit:10;}
	.st64{fill:#717071;}
	.st65{fill:#33CC99;stroke:#33CC99;stroke-width:0.7337;stroke-miterlimit:10;}
	.st66{fill:#33CC99;stroke:#33CC99;stroke-width:0.4284;stroke-miterlimit:10;}
	.st67{fill:none;stroke:#888888;stroke-width:2;stroke-linecap:round;stroke-linejoin:round;stroke-miterlimit:10;}
	.st68{display:inline;fill:none;stroke:#888888;stroke-width:2;stroke-linecap:round;stroke-linejoin:round;stroke-miterlimit:10;}
	.st69{fill:#8ACC7A;stroke:#9E9E9F;stroke-width:1.0885;stroke-miterlimit:10;}
	.st70{fill:#FFFFFF;stroke:#4BB735;stroke-width:1.0885;stroke-miterlimit:10;}
	.st71{fill:#589B42;stroke:#9E9E9F;stroke-width:1.0885;stroke-miterlimit:10;}
	.st72{fill:none;stroke:#4BB735;stroke-width:1.5;stroke-miterlimit:10;}
	.st73{fill:#4BB735;}
	.st74{fill:none;stroke:#29C5EF;stroke-miterlimit:10;}
	.st75{clip-path:url(#SVGID_2_);fill:#4BB735;}
	.st76{clip-path:url(#SVGID_4_);fill:#33CC99;}
	.st77{clip-path:url(#SVGID_6_);fill:#BA8642;}
	.st78{clip-path:url(#SVGID_8_);fill:#33CC99;}
	.st79{clip-path:url(#SVGID_10_);fill:#D64C4C;}
	.st80{clip-path:url(#SVGID_12_);fill:#1B70AF;}
	.st81{clip-path:url(#SVGID_14_);fill:#FFE000;}
	.st82{clip-path:url(#SVGID_16_);fill:#1E9E70;}
	.st83{clip-path:url(#SVGID_18_);fill:#C5EF14;}
	.st84{clip-path:url(#SVGID_20_);fill:#33CC99;}
	.st85{clip-path:url(#SVGID_22_);fill:#8A71DB;}
	.st86{clip-path:url(#SVGID_24_);fill:#4BB735;}
	.st87{clip-path:url(#SVGID_26_);fill:#33CC99;}
	.st88{clip-path:url(#SVGID_28_);fill:#BA8642;}
	.st89{clip-path:url(#SVGID_30_);fill:#33CC99;}
	.st90{clip-path:url(#SVGID_32_);fill:#D64C4C;}
	.st91{clip-path:url(#SVGID_34_);fill:#1B70AF;}
	.st92{clip-path:url(#SVGID_36_);fill:#FFE000;}
	.st93{clip-path:url(#SVGID_38_);fill:#1E9E70;}
	.st94{clip-path:url(#SVGID_40_);fill:#C5EF14;}
	.st95{clip-path:url(#SVGID_42_);fill:#8A71DB;}
	.st96{clip-path:url(#SVGID_44_);fill:#33CC99;stroke:#33CC99;stroke-width:0.4284;stroke-miterlimit:10;}
	.st97{clip-path:url(#SVGID_46_);fill:#33CC99;stroke:#33CC99;stroke-width:0.4284;stroke-miterlimit:10;}
	.st98{clip-path:url(#SVGID_48_);fill:#33CC99;stroke:#33CC99;stroke-width:0.4284;stroke-miterlimit:10;}
	.st99{clip-path:url(#SVGID_50_);fill:#33CC99;stroke:#33CC99;stroke-width:0.4284;stroke-miterlimit:10;}
	.st100{clip-path:url(#SVGID_52_);fill:#33CC99;stroke:#33CC99;stroke-width:0.4284;stroke-miterlimit:10;}
	.st101{clip-path:url(#SVGID_54_);fill:#33CC99;stroke:#33CC99;stroke-width:0.4284;stroke-miterlimit:10;}
	.st102{clip-path:url(#SVGID_56_);fill:#33CC99;stroke:#33CC99;stroke-width:0.4284;stroke-miterlimit:10;}
	.st103{clip-path:url(#SVGID_58_);fill:#33CC99;stroke:#33CC99;stroke-width:0.4284;stroke-miterlimit:10;}
	.st104{clip-path:url(#SVGID_60_);fill:#33CC99;stroke:#33CC99;stroke-width:0.4284;stroke-miterlimit:10;}
	.st105{clip-path:url(#SVGID_62_);fill:#FFFFFF;}
	.st106{clip-path:url(#SVGID_64_);fill:#BA8642;}
	.st107{clip-path:url(#SVGID_66_);fill:#33CC99;}
	.st108{clip-path:url(#SVGID_68_);fill:#D64C4C;}
	.st109{clip-path:url(#SVGID_70_);fill:#1B70AF;}
	.st110{clip-path:url(#SVGID_72_);fill:#FFE000;}
	.st111{clip-path:url(#SVGID_74_);fill:#1E9E70;}
	.st112{clip-path:url(#SVGID_76_);fill:#C5EF14;}
	.st113{clip-path:url(#SVGID_78_);fill:#8A71DB;}
</style>
<rect x="4.8" y="1.1" class="st0" width="373.5" height="83.1"/>
<g>
	<path class="st10" d="M21.3,9.3c0,4.5-3.7,8.2-8.2,8.2c-4.6,0-8.2-3.7-8.2-8.2c0-4.6,3.7-8.2,8.2-8.2C17.6,1.1,21.3,4.8,21.3,9.3z"
		/>
	<path class="st10" d="M35.3,49.1c0,3.2-2.6,5.7-5.7,5.7c-0.3,0-0.6,0-0.9-0.1v0h-6.5C14,54.7,7.4,48.1,7.4,40V22.4l0-0.1
		c0,0,5.4-3.4,11.4,0l0,0V40c0,1.9,1.5,3.4,3.4,3.4h6.5v0.1c0.3-0.1,0.6-0.1,0.9-0.1C32.7,43.4,35.3,45.9,35.3,49.1z"/>
	<path class="st10" d="M158.4,11.8H158v0h-56.7c-0.6-0.1-1.1-0.1-1.7-0.1c-10,0-18.4,6.6-21.2,15.6c-2.8-9-11.2-15.6-21.2-15.6
		c-12.3,0-22.2,10-22.2,22.2c0,12.3,9.9,22.2,22.2,22.2c3.9,0,7.6-1,10.8-2.8v11.9c0,4.2-3.4,7.5-7.5,7.5H47.3c-0.2,0-0.4,0-0.6,0
		c-3.2,0-5.7,2.6-5.7,5.7c0,3.2,2.6,5.7,5.7,5.7c0.2,0,0.4,0,0.6,0h13.1c10.4,0,18.9-8.5,18.9-18.9V43.1
		c3.5,7.7,11.2,13.1,20.3,13.1c12.3,0,22.2-10,22.2-22.2c0-3.9-1-7.6-2.8-10.8h5.7l14.4,27.6c1,1.8,3.6,1.8,4.5,0L161,17.6l0,0
		l0.4-0.9C162.6,14.5,160.9,11.8,158.4,11.8z M56.7,42.9c-4.6,0-8.4-3.8-8.4-8.4c0-4.6,3.8-8.4,8.4-8.4c4.6,0,8.4,3.8,8.4,8.4
		C65.1,39.1,61.3,42.9,56.7,42.9z M99.3,42.9c-4.6,0-8.4-3.8-8.4-8.4c0-4.6,3.8-8.4,8.4-8.4c4.6,0,8.4,3.8,8.4,8.4
		C107.7,39.1,103.9,42.9,99.3,42.9z M140.4,38.8c-0.1,0-0.2,0-0.3,0c-1,0-1.8-0.7-2-1.7c-0.2-1.1,0.5-2.1,1.6-2.3
		c2.9-0.5,2.9-2.2,2.9-2.2c0-1.4-1.9-1.8-1.9-1.8c-0.9-0.2-1.6-1-1.6-1.9c0-0.9,0.6-1.8,1.5-2c0.9-0.2,1.6-0.6,1.8-1
		c0.1-0.3,0.1-0.6,0.1-0.6c0,0,0-0.1,0-0.1c-0.1-0.3-0.2-0.5-0.5-0.6c-1.3-0.7-4.3-0.1-6.1,0.5c-1,0.4-2.2-0.2-2.6-1.2
		c-0.1-0.3-0.1-0.5-0.1-0.8c0-0.8,0.5-1.5,1.3-1.7c0.6-0.2,5.9-2,9.2-0.3c1,0.5,1.7,1.2,2.1,2.1c0.1,0.3,0.3,0.6,0.4,0.9
		c0.1,0.4,0.6,2-0.4,3.7c-0.2,0.4-0.5,0.7-0.8,1.1c0.9,0.9,1.5,2.1,1.4,3.7C146.7,34.3,145.4,37.9,140.4,38.8z"/>
</g>
<g>
	<g>
		<g>
			<path class="st10" d="M182.8,34c-0.4,0-0.8-0.1-1-0.4c-0.2-0.2-0.3-0.6-0.3-1c0-0.4,0.1-0.7,0.3-1c0.2-0.2,0.6-0.4,1-0.4h12.6
				c1.3-2,2.4-4.1,3.3-6.2c0.2-0.4,0.5-0.7,0.8-0.8c0.3-0.1,0.7-0.1,1.1,0c0.3,0.2,0.5,0.4,0.7,0.7c0.3,0.7-0.7,2.8-2.8,6.3h23.7
				c0.4,0,0.7,0.1,1,0.3c0.2,0.2,0.4,0.6,0.4,1c0,0.3-0.1,0.6-0.4,0.9c-0.2,0.3-0.5,0.4-1,0.4h-7.3c-1.4,5.3-4.3,10-8.5,13.9
				l14.6,5.3c0.4,0.1,0.6,0.4,0.8,0.7c0.1,0.3,0.2,0.6,0,1c-0.1,0.3-0.3,0.6-0.6,0.7c-0.3,0.1-0.7,0.1-1.2,0l-15.9-5.9
				c-2.4,1.6-5.1,2.9-8,3.7c-3.3,0.9-7.6,1.4-13,1.6c-0.5,0-0.8-0.2-1.1-0.5c-0.2-0.3-0.3-0.6-0.3-0.9v-0.1c0-0.8,1.6-1.3,4.7-1.4
				c6.2-0.5,11-1.8,14.6-3.6l-11.9-4.5c-1-0.4-1.6-1.1-1.7-1.9c-0.1-0.9,0.5-1.9,1.8-3.2c1.5-1.4,2.9-3.1,4.4-5.1H182.8z M201.1,15
				c0-0.4,0.1-0.8,0.3-1c0.2-0.2,0.6-0.3,1-0.3c0.3,0,0.6,0.1,0.9,0.3c0.3,0.2,0.4,0.6,0.4,1v3.7h15.4c0.9,0,1.6,0.1,2.1,0.5
				c0.4,0.3,0.8,0.7,1.1,1.2c0.5,0.7,0.6,1.6,0.5,2.8c-0.2,1.1-0.7,2.7-1.6,4.8c-0.2,0.5-0.5,0.7-0.8,0.9c-0.3,0.1-0.6,0.1-1,0
				c-0.8-0.3-1-1-0.7-1.8c1.2-2.5,1.6-4.1,1.1-4.8c-0.4-0.6-1.1-0.9-2.1-0.9H188c-0.8,0-1.4,0.2-1.9,0.7c-0.4,0.4-0.6,1.1-0.6,1.8
				v3.7c0,0.5-0.1,0.8-0.4,1.1l-1,0.4c-0.4,0-0.7-0.2-0.9-0.4c-0.2-0.3-0.4-0.6-0.4-1.1V23c0-1.3,0.4-2.3,1.2-3.2
				c0.8-0.7,1.8-1.1,3.1-1.1h13.9V15z M203.6,46.9c4.3-3.3,7-7.6,8.4-12.8h-15.3c-1.8,2.4-3.7,4.6-5.7,6.5c-0.3,0.3-0.5,0.6-0.4,1.1
				c0.1,0.4,0.4,0.6,0.9,0.8L203.6,46.9z"/>
			<path class="st10" d="M220.6,56.5c-0.3,0-0.6,0-0.9-0.1l-15.6-5.8c-2.4,1.6-5,2.8-7.8,3.6c-3.5,0.9-7.9,1.5-13.2,1.6
				c-0.8-0.1-1.3-0.3-1.6-0.7c-0.4-0.5-0.6-1-0.5-1.5c0-1.8,2.7-2.1,5.4-2.1c5-0.4,9.2-1.3,12.7-2.8l-10.3-3.9
				c-1.6-0.7-2.1-1.7-2.2-2.4c-0.2-1.1,0.4-2.3,2-3.8c1.1-1.1,2.3-2.4,3.4-3.8h-9.2c-0.6,0-1.2-0.2-1.5-0.6
				c-0.3-0.3-0.5-0.9-0.5-1.5c0-0.6,0.2-1,0.5-1.4c0.4-0.4,1-0.6,1.6-0.6H195c1.2-1.8,2.2-3.7,3.1-5.8c0.3-0.6,0.7-1,1.2-1.2
				c0.5-0.2,1-0.2,1.6,0c0.5,0.3,0.9,0.6,1.1,1.1c0.3,0.7,0.2,1.8-2.2,5.8h22.4c0.6,0,1.1,0.2,1.5,0.5c0.4,0.4,0.6,0.9,0.6,1.5
				c0,0.5-0.2,1-0.5,1.4c-0.4,0.4-0.9,0.7-1.5,0.7h-6.7c-1.4,4.8-4,9.2-7.7,12.9l13.5,4.9c0.7,0.2,1,0.7,1.2,1.1
				c0.3,0.5,0.3,1,0.1,1.6c-0.2,0.4-0.5,0.9-1.1,1.2C221.2,56.4,220.9,56.5,220.6,56.5z M204,48.9l16.3,6.1c0.2,0.1,0.5,0.1,0.6,0
				c0.1,0,0.1-0.1,0.3-0.3c0.1-0.2,0-0.3,0-0.4c-0.1-0.2-0.2-0.3-0.4-0.4l-15.8-5.7l0.9-0.8c4.1-3.8,6.9-8.4,8.2-13.5l0.1-0.6h7.9
				c0.2,0,0.3-0.1,0.4-0.1c0.1-0.1,0.2-0.3,0.2-0.4c0-0.2-0.1-0.4-0.1-0.5c-0.1-0.1-0.2-0.1-0.4-0.1h-25l0.7-1.1
				c2.8-4.5,2.8-5.5,2.8-5.6c0-0.1-0.2-0.2-0.4-0.4c0,0-0.1,0-0.2,0c-0.3,0.1-0.5,0.3-0.5,0.5c-1,2.2-2.1,4.3-3.4,6.3l-0.2,0.3h-13
				c-0.2,0-0.4,0.1-0.5,0.1c0,0-0.1,0.2-0.1,0.4c0,0.3,0.1,0.4,0.1,0.4c0.1,0.1,0.2,0.1,0.5,0.1H195l-0.9,1.2c-1.5,2-3,3.7-4.5,5.2
				c-1.1,1.1-1.7,1.9-1.6,2.5c0.1,0.6,0.5,1,1.3,1.3l13.5,5.1l-1.5,0.8c-3.9,1.9-8.9,3.2-14.9,3.6c-3.6,0.1-4,0.7-4,0.7
				c0,0.3,0,0.4,0.1,0.5c0,0,0.2,0.2,0.6,0.2c5.1-0.1,9.4-0.7,12.8-1.5c2.8-0.8,5.4-2.1,7.7-3.6L204,48.9z M203.7,47.7l-12.5-4.6
				c-0.9-0.4-1.2-0.9-1.3-1.3c-0.1-0.7,0-1.2,0.6-1.8c1.9-1.8,3.8-3.9,5.6-6.5l0.2-0.3h16.6l-0.2,0.9c-1.4,5.4-4.3,9.9-8.6,13.2
				L203.7,47.7z M197,34.8c-1.9,2.5-3.7,4.5-5.6,6.3c-0.2,0.2-0.2,0.3-0.2,0.4c0,0.1,0.1,0.2,0.4,0.3l11.7,4.3
				c3.7-2.9,6.2-6.7,7.5-11.3H197z M184.3,29.7l-0.2,0c-0.6-0.1-1.1-0.3-1.4-0.7c-0.3-0.4-0.5-0.9-0.5-1.5V23
				c-0.1-1.5,0.4-2.7,1.4-3.7c1-0.9,2.2-1.4,3.6-1.4h13.2v-3c0-0.7,0.2-1.2,0.5-1.5c0.8-0.6,1.9-0.8,2.9-0.1c0.5,0.4,0.7,1,0.7,1.6
				v3l14.9,0c0.9,0,1.7,0.2,2.3,0.6c0.5,0.4,1,0.8,1.4,1.5c0.6,0.8,0.8,1.9,0.5,3.3c-0.2,1.1-0.7,2.6-1.6,4.9
				c-0.3,0.6-0.7,1.1-1.2,1.3c-0.5,0.2-1,0.2-1.5,0c-0.5-0.2-0.9-0.5-1.1-1c-0.2-0.5-0.2-1.1,0-1.8c1.6-3.3,1.3-4,1.2-4.1
				c-0.3-0.5-1-0.6-1.5-0.6H188c-0.8,0-1.1,0.2-1.3,0.4c-0.3,0.3-0.4,0.7-0.4,1.3v3.7c0,0.6-0.2,1.2-0.5,1.6l-0.1,0.1L184.3,29.7z
				 M188,20.6H218c1.6,0,2.3,0.7,2.7,1.2c0.7,0.9,0.4,2.5-1.1,5.5c-0.1,0.2-0.1,0.4,0,0.6c0,0,0.1,0.1,0.3,0.2
				c0.2,0.1,0.2,0.1,0.3,0.1c0.3-0.1,0.4-0.3,0.6-0.5c0.9-2.2,1.4-3.6,1.5-4.5c0.2-1,0-1.7-0.3-2.2c-0.3-0.5-0.6-0.8-1-1.1
				c-0.3-0.2-0.8-0.4-1.4-0.4l-0.2,0l-16.2,0V15c0-0.2-0.1-0.4-0.1-0.4c-0.4-0.2-0.8-0.1-1,0c0,0,0,0.1,0,0.4v4.4h-14.7
				c-1,0-1.9,0.3-2.6,0.9c-0.7,0.7-1,1.5-1,2.6l0,4.5c0,0.2,0.1,0.4,0.2,0.6c0,0,0.1,0.1,0.3,0.1l0.6-0.2c0.1-0.1,0.1-0.3,0.1-0.5
				v-3.7c0-1,0.3-1.8,0.8-2.3C186.4,20.7,187.4,20.6,188,20.6z"/>
		</g>
		<g>
			<path class="st10" d="M236.7,21c0.2-0.2,0.5-0.4,1-0.4c0.4,0,0.7,0.1,0.9,0.4c0.2,0.3,0.4,0.6,0.4,1c0.1,8-1,17.1-3.5,27.3
				c-0.1,0.4-0.3,0.7-0.6,0.9c-0.3,0.2-0.6,0.2-1.1,0.2c-0.4-0.1-0.7-0.3-0.8-0.5c-0.2-0.3-0.2-0.7-0.1-1.2
				c2.5-9.8,3.7-18.6,3.5-26.6C236.4,21.6,236.5,21.3,236.7,21z M244.7,17.3c0.2-0.2,0.5-0.4,1-0.4c0.4,0,0.6,0.1,0.9,0.4
				c0.3,0.3,0.4,0.6,0.4,1.1v30.7c0,1,0.2,1.8,0.7,2.3c0.4,0.5,1.1,0.7,1.9,0.8l0.6,0.1c6.9,0.6,11.6,0.5,14-0.5l0.4-0.1
				c0.9-0.5,1.3-1.9,1.3-4.1c0-4.3,0.1-6.6,0.5-6.9c0.2-0.2,0.5-0.4,0.9-0.4c0.4,0,0.7,0.1,1,0.3c0.2,0.3,0.4,0.7,0.4,1.1v7.9
				c0,1-0.2,1.8-0.5,2.5c-0.4,1-1.1,1.6-1.9,1.9c-2,0.9-4.9,1.3-8.8,1.2c-6.4-0.1-10.1-0.5-11.2-1.4c-1.2-1-1.8-2.5-1.8-4.6v-31
				C244.4,17.9,244.5,17.6,244.7,17.3z M253.5,14.4c0.1-0.3,0.4-0.5,0.8-0.6c0.4-0.1,0.7-0.1,1.1,0c0.3,0.2,0.5,0.5,0.6,0.9
				c2.2,7,3.5,15.4,3.8,24.9c0,0.5,0,0.8-0.2,1.1c-0.2,0.3-0.6,0.5-1,0.5c-0.4,0-0.7-0.1-0.9-0.3c-0.3-0.2-0.4-0.5-0.5-1.1
				c-0.3-9.2-1.6-17.4-3.7-24.3C253.3,15.1,253.3,14.7,253.5,14.4z M266.6,19.8c0.1-0.3,0.4-0.5,0.8-0.6c0.4-0.1,0.7-0.1,1.1,0
				c0.3,0.2,0.5,0.5,0.7,0.9c2.8,7.8,4.7,17.1,5.7,28c0,0.4,0,0.8-0.2,1.1c-0.2,0.3-0.5,0.5-1,0.5c-0.4,0-0.7,0-1-0.3
				c-0.3-0.2-0.5-0.6-0.5-1.1c-0.9-10.5-2.7-19.6-5.5-27.3C266.5,20.5,266.5,20.1,266.6,19.8z"/>
			<path class="st10" d="M257.9,56l-0.6,0c-8.8-0.1-10.8-0.9-11.6-1.5c-1.4-1.1-2.1-2.8-2.1-5.2v-31c0-0.6,0.2-1.1,0.5-1.5
				c0.4-0.4,0.9-0.6,1.4-0.7c0.7,0.1,1.1,0.2,1.5,0.5c0.5,0.5,0.7,1,0.7,1.7v30.7c0,0.8,0.1,1.4,0.5,1.8c0.3,0.3,0.7,0.5,1.5,0.6
				l0.6,0.1c6.6,0.6,11.3,0.5,13.6-0.5l0.4-0.1c0.5-0.3,0.8-1.6,0.8-3.4c0-6.8,0.3-7.1,0.7-7.4c0.3-0.3,0.8-0.5,1.4-0.5
				c0.6,0.1,1,0.2,1.4,0.4l0.2,0.2c0.3,0.5,0.5,1,0.5,1.6v7.9c-0.1,1.2-0.2,2.1-0.6,2.8c-0.5,1.1-1.3,1.9-2.3,2.3
				C264.4,55.6,261.6,56,257.9,56z M245.6,17.6c-0.1,0-0.2,0.1-0.3,0.2c0,0-0.1,0.2-0.1,0.5v31c0,1.8,0.5,3.2,1.5,4
				c0.5,0.4,2.6,1.1,10.7,1.2l0.6,0c3.5,0,6.1-0.4,7.9-1.2c0.7-0.3,1.2-0.8,1.5-1.5c0.3-0.5,0.4-1.2,0.4-2.2l0-7.9
				c0-0.2,0-0.4-0.1-0.6c-0.1-0.1-0.3-0.1-0.5-0.1c-0.1,0-0.2,0.1-0.3,0.2c0,0.1-0.2,1.2-0.2,6.3c0,2.5-0.5,4-1.7,4.7l-0.5,0.2
				c-2.5,1-7.3,1.2-14.3,0.5l-0.6-0.1c-0.8-0.1-1.7-0.4-2.4-1.1c-0.6-0.6-0.9-1.6-0.9-2.8l0-30.7c0-0.3-0.1-0.5-0.2-0.6
				C246,17.7,245.9,17.7,245.6,17.6z M234.1,51.2c-0.1,0-0.2,0-0.4,0c-0.9-0.2-1.2-0.6-1.4-1c-0.3-0.4-0.3-1-0.2-1.7
				c2.5-9.8,3.7-18.7,3.5-26.5c-0.1-0.6,0.1-1.2,0.5-1.6c0.4-0.3,0.8-0.6,1.4-0.6c0.7,0,1.3,0.3,1.6,0.7c0.3,0.3,0.5,0.8,0.5,1.3
				c0.1,8.3-1,17.5-3.5,27.5c-0.2,0.7-0.5,1.1-0.9,1.4C235,51.1,234.6,51.2,234.1,51.2z M237.7,21.4c-0.2,0-0.3,0.1-0.4,0.2
				c0,0-0.1,0.1-0.1,0.5c0.2,8-1,17-3.5,26.9c-0.1,0.3,0,0.5,0.1,0.6c0.1,0.1,0.2,0.2,0.3,0.2c0,0,0.1,0,0.1,0c0.2,0,0.3,0,0.4-0.1
				c0.1,0,0.2-0.2,0.3-0.5c2.4-9.9,3.6-19,3.5-27c0-0.2-0.1-0.4-0.2-0.5C238,21.4,237.8,21.4,237.7,21.4z M273.4,50.4
				c-0.5,0-0.9-0.1-1.2-0.5c-0.3-0.3-0.7-0.7-0.8-1.6c-0.9-10.4-2.7-19.5-5.5-27.1c-0.2-0.7-0.2-1.3,0-1.7c0.2-0.5,0.7-0.8,1.2-1
				c0.5-0.2,1.1-0.2,1.6,0.1c0.5,0.3,0.9,0.7,1.1,1.3c2.8,7.8,4.7,17.2,5.7,28.1c0.1,0.5-0.1,1.1-0.4,1.5c-0.4,0.5-0.8,0.7-1.4,0.9
				C273.6,50.4,273.5,50.4,273.4,50.4z M267.9,19.8c-0.1,0-0.1,0-0.2,0c-0.2,0.1-0.3,0.2-0.4,0.3c0,0.1,0,0.4,0,0.6
				c2.8,7.7,4.7,16.9,5.6,27.4c0,0.2,0.1,0.4,0.2,0.6c0.1,0.1,0.2,0.1,0.3,0.1l0.1,0c0.2,0,0.4-0.1,0.5-0.3c0-0.1,0.1-0.3,0.1-0.5
				c-1-10.8-2.8-20.1-5.6-27.8c-0.1-0.2-0.2-0.3-0.4-0.5C268.1,19.8,268,19.8,267.9,19.8z M258.6,41.9L258.6,41.9
				c-0.7,0-1.2-0.2-1.5-0.6c-0.5-0.4-0.6-1-0.6-1.4c-0.3-9.3-1.6-17.4-3.7-24.2c-0.2-0.6-0.2-1.2,0.1-1.7c0.1-0.3,0.5-0.7,1.2-0.9
				c0.3-0.1,1-0.1,1.5,0.1c0.6,0.4,0.9,0.8,1.1,1.4c2.2,7.1,3.5,15.5,3.9,25.1c0.1,0.6-0.1,1.2-0.4,1.5
				C259.8,41.6,259.2,41.9,258.6,41.9L258.6,41.9z M254.7,14.4c-0.1,0-0.1,0-0.2,0c-0.3,0.1-0.3,0.2-0.4,0.2c-0.1,0.2-0.1,0.4,0,0.6
				c2.2,6.9,3.5,15.2,3.8,24.5c0,0.4,0.1,0.5,0.2,0.5c0.1,0.1,0.2,0.1,0.4,0.1c0.2,0,0.4-0.1,0.5-0.2c0,0,0.1-0.2,0.1-0.5
				c-0.4-9.5-1.6-17.8-3.8-24.8c-0.1-0.3-0.2-0.4-0.4-0.5C254.9,14.5,254.8,14.4,254.7,14.4z"/>
		</g>
		<g>
			<path class="st10" d="M309.4,29c-1.7,5.1-3.3,7.9-4.6,8.4c-0.3,0-0.6,0-1-0.2c-0.3-0.2-0.5-0.5-0.6-0.8c-0.2-0.3-0.1-0.6,0.2-1.1
				l1.7-2.7l-0.5,0.1h-7.2v14.6c2.9-1.4,5.2-2.6,6.8-3.7c0.4-0.2,0.7-0.3,1.1-0.2c0.3,0,0.5,0.3,0.7,0.6c0.2,0.3,0.3,0.6,0.2,1
				c0,0.3-0.3,0.6-0.6,0.8l-8.2,4.3c-7.5,3.2-11.7,4.7-12.8,4.3c-0.3-0.2-0.5-0.5-0.6-0.8c-0.1-0.4-0.1-0.8,0-1.1
				c0.1-0.4,1.3-0.8,3.3-1.3V27.8c0-0.4,0.1-0.7,0.3-1c0.2-0.2,0.5-0.4,1-0.4c0.4,0,0.7,0.1,1,0.4c0.3,0.2,0.4,0.5,0.4,1v22.4
				l4.7-1.8v-30H286c-0.4,0-0.8-0.1-1-0.4c-0.2-0.2-0.4-0.5-0.4-1c0-0.4,0.1-0.7,0.4-1c0.2-0.2,0.6-0.4,1-0.4h19.3
				c0.4,0,0.7,0.1,0.9,0.3c0.2,0.2,0.4,0.6,0.4,1c0,0.4-0.1,0.6-0.4,0.9c-0.2,0.3-0.5,0.4-0.9,0.4h-8v11.7h7.2
				c0.4,0,0.7,0.1,0.9,0.3c0.2,0.2,0.3,0.5,0.3,0.8l0.1-0.2c2.1-4.3,3.2-9.8,3.2-16.1c0-0.4,0.1-0.7,0.3-1c0.2-0.2,0.6-0.3,1-0.3
				c0.4,0,0.6,0.1,0.9,0.3c0.4,0.4,0.5,2.1,0.2,5.1h13.7c0.4,0,0.7,0.1,1,0.3c0.2,0.2,0.3,0.5,0.3,1c0,0.4-0.1,0.7-0.3,1
				c-0.2,0.2-0.5,0.4-1,0.4h-1.8l-0.3,5.2c-0.7,6.3-2.7,12-5.8,16.9c2.2,3.5,5,6.5,8.4,9.2c0.4,0.3,0.5,0.7,0.5,1.1
				c0,0.3-0.1,0.7-0.3,1.1c-0.3,0.3-0.6,0.4-1,0.5c-0.4,0-0.7-0.1-1.1-0.5c-3.6-3.1-6.4-6.2-8.1-9.1l-5.4,5.3
				c-3.8,3.2-6.1,4.7-6.9,4.5c-0.3-0.1-0.6-0.3-0.8-0.6c-0.2-0.4-0.3-0.7-0.2-1.1c0-0.3,0.3-0.6,0.7-0.8c4.8-3.2,8.6-6.3,11.4-9.5
				C311.8,39.2,310.1,34.3,309.4,29z M320.8,21.6h-9.2v0.6c0,6.7,1.5,13.1,4.5,19.2c1.6-2.7,3-6,3.9-10
				C320.6,28.6,320.8,25.3,320.8,21.6z"/>
			<path class="st10" d="M303.6,56.5l-0.3,0c-0.5-0.1-0.9-0.5-1.3-0.9c-0.4-0.6-0.5-1.2-0.3-1.7c0.1-0.5,0.5-1,1-1.3
				c4.7-3.1,8.2-6,10.8-8.9c-2.1-3.6-3.6-7.6-4.4-11.7c-1.4,3.6-2.8,5.7-4.1,6.2l-0.4,0.1c-0.3,0-0.7-0.1-1.1-0.3
				c-0.6-0.4-0.8-0.8-1-1.2c-0.3-0.4-0.2-1.1,0.3-1.7l0.9-1.4l-5.6,0v12.7c2.3-1.1,4.2-2.2,5.7-3.1c0.6-0.4,1.1-0.5,1.7-0.3
				c0.5,0.1,0.9,0.5,1.2,0.9c0.3,0.4,0.4,0.9,0.4,1.5c-0.1,0.4-0.2,0.9-0.9,1.3l-8.3,4.3c-6.8,3-10.9,4.4-12.6,4.4
				c-0.3,0-0.5,0-0.7-0.1c-0.6-0.4-0.9-0.8-1-1.2c-0.2-0.6-0.2-1.2,0-1.7c0.2-0.6,1-1,3.3-1.6V27.8c0-0.6,0.2-1.1,0.5-1.5
				c0.7-0.7,2-0.8,2.9,0c0.4,0.4,0.7,0.9,0.7,1.5v21.4l3.2-1.2V19.2H286c-0.6,0-1.2-0.2-1.5-0.6c-0.4-0.4-0.6-0.9-0.6-1.5
				c0-0.5,0.2-1,0.5-1.4c0.4-0.4,1-0.6,1.6-0.6h19.3c0.7,0,1.2,0.3,1.4,0.5c0.4,0.4,0.6,0.9,0.6,1.5c0,0.7-0.3,1.1-0.5,1.4
				c-0.4,0.4-0.9,0.7-1.5,0.7h-7.2v10.2h6.5c0.5,0,0.9,0.1,1.2,0.3c1.8-4.1,2.7-9,2.7-14.7c0-0.6,0.2-1.1,0.5-1.5
				c0.4-0.4,1-0.5,1.5-0.5c0.6,0,1,0.2,1.3,0.4c0.6,0.6,0.8,1.6,0.6,4.9h12.9c0.6,0,1.1,0.2,1.5,0.5c0.3,0.3,0.5,0.9,0.5,1.5
				c0,0.5-0.1,0.9-0.4,1.4c-0.5,0.5-1,0.7-1.6,0.7h-1.1l-0.2,4.5c-0.7,6.2-2.6,11.9-5.6,16.9c2.1,3.2,4.8,6.1,8,8.7
				c0.5,0.4,0.7,0.9,0.8,1.5c0.1,0.5-0.1,1-0.4,1.5c-0.5,0.5-0.9,0.7-1.5,0.8l-0.2,0c-0.6,0-1.1-0.3-1.5-0.6c-3.4-3-6-5.8-7.8-8.5
				l-4.8,4.7C305.9,56,304.4,56.5,303.6,56.5z M309.7,25.8l0.4,3.1c0.7,5.2,2.4,10,5,14.4l0.3,0.5l-0.3,0.4
				c-2.7,3.2-6.5,6.3-11.5,9.6c-0.3,0.2-0.4,0.3-0.4,0.3c0,0.1,0,0.3,0.1,0.6c0.1,0.1,0.2,0.2,0.4,0.3c0.3,0,1.6-0.4,6.3-4.3
				l6.1-5.9l0.5,0.8c1.7,2.8,4.4,5.8,8,8.9c0.3,0.2,0.4,0.3,0.5,0.3c0.3,0,0.4-0.1,0.6-0.2c0.1-0.2,0.1-0.4,0.1-0.4
				c0-0.3-0.1-0.4-0.3-0.6c-3.4-2.7-6.3-5.9-8.5-9.4l-0.3-0.4l0.3-0.4c3.1-4.9,5-10.5,5.6-16.6l0.3-5.9h2.5c0.3,0,0.4-0.1,0.4-0.1
				c0-0.1,0.1-0.3,0.1-0.4c0-0.2-0.1-0.4-0.1-0.4c-0.1-0.1-0.2-0.1-0.4-0.1h-14.5l0.1-0.8c0.3-3.3,0.1-4.2,0-4.5
				c-0.4-0.3-0.8-0.1-0.9,0c0,0,0,0.2,0,0.4c0,6.5-1.1,12-3.3,16.5l-0.2,0.3l0.2,0l-1.3,2.1l0-0.1l-1.3,2c-0.2,0.2-0.2,0.3-0.2,0.3
				l0.1,0.2c0,0.1,0.1,0.2,0.3,0.4c0.2,0.1,0.3,0.1,0.4,0.1c0.3-0.1,1.8-1.2,4.1-7.9L309.7,25.8z M285,53.7c0,0,0.1,0,0.1,0h0
				c0.8,0,3.5-0.6,12-4.3l8.2-4.2c0.1-0.1,0.2-0.2,0.2-0.3c0-0.2,0-0.3-0.1-0.5c-0.2-0.3-0.3-0.3-0.3-0.3c-0.3,0-0.4,0-0.6,0.1
				c-1.7,1.1-4,2.3-6.9,3.7l-1.1,0.5V32l8.5-0.1l-0.1-0.6c0-0.3-0.1-0.4-0.1-0.4c0,0-0.1-0.1-0.4-0.1h-8V17.7h8.7
				c0.2,0,0.3-0.1,0.3-0.1c0.2-0.2,0.2-0.3,0.2-0.4c0-0.2-0.1-0.4-0.1-0.5c-0.1-0.1-0.3-0.1-0.4-0.1H286c-0.2,0-0.4,0.1-0.5,0.1
				c-0.1,0.1-0.1,0.3-0.1,0.4c0,0.2,0,0.3,0.1,0.4c0.1,0.1,0.2,0.1,0.5,0.1h9.4V49l-6.1,2.4V27.8c0-0.2-0.1-0.3-0.1-0.4
				c-0.3-0.3-0.7-0.2-0.9,0c-0.1,0.1-0.1,0.2-0.1,0.4v23.9l-0.6,0.1c-2.2,0.6-2.8,0.9-2.9,1c0,0.1,0,0.3,0,0.5
				C284.8,53.5,284.8,53.6,285,53.7C285,53.7,285,53.7,285,53.7z M316,42.9l-0.6-1.2c-3-6.1-4.6-12.6-4.6-19.5v-1.3h10.7v0.7
				c0,3.8-0.3,7.1-0.8,9.9c-1,4-2.3,7.4-4,10.2L316,42.9z M312.3,22.4c0,6.1,1.3,11.9,3.8,17.4c1.3-2.4,2.4-5.3,3.1-8.5
				c0.5-2.5,0.8-5.5,0.8-8.9H312.3z"/>
		</g>
		<g>
			<path class="st10" d="M356.8,14.8c0-0.4,0.1-0.8,0.3-1c0.2-0.2,0.6-0.4,1-0.4c0.4,0,0.6,0.1,0.9,0.4c0.3,0.2,0.4,0.5,0.4,1v2.7
				h16.7c0.4,0,0.8,0.1,1.1,0.3c0.3,0.3,0.4,0.6,0.4,1c0,0.5-0.1,0.8-0.4,1c-0.3,0.2-0.7,0.4-1.1,0.4h-32.9c-1.2,0-1.8,0.6-1.8,1.8
				v14.7c0,7.4-1.3,13.4-3.7,17.9c-0.2,0.4-0.5,0.6-0.9,0.7c-0.4,0-0.7,0-1-0.2c-0.6-0.5-0.7-1.1-0.2-1.9c2.1-4.8,3.2-10.5,3.2-17.2
				V20.9c0-1.1,0.2-1.9,0.8-2.6c0.5-0.6,1.5-0.9,2.7-0.9h14.6V14.8z M347,36.5c-1.6,3.1-2.8,4.8-3.7,4.8c-0.4,0-0.7-0.1-1-0.3
				c-0.3-0.3-0.5-0.5-0.5-0.9c0-0.3,0.7-1.6,2.3-3.7c2.5-3.9,4.4-8.8,5.5-14.6c0.1-0.4,0.3-0.7,0.5-0.9c0.3-0.2,0.6-0.2,1-0.2
				c0.4,0.1,0.7,0.3,0.9,0.6l0.1,0.1c0.3,1.4-0.5,4.4-2.2,9v24c0,0.4-0.1,0.8-0.4,1.1c-0.3,0.2-0.5,0.3-1,0.3c-0.4,0-0.7-0.1-1-0.3
				c-0.2-0.2-0.4-0.6-0.4-1.1V37.2l0.1-1.9L347,36.5z M353.6,29.9c-0.4,0-0.7-0.1-1-0.4c-0.2-0.2-0.4-0.5-0.4-1c0-0.4,0.1-0.7,0.4-1
				c0.2-0.2,0.5-0.4,1-0.4h15.5v-4.4c0-0.5,0.1-0.8,0.4-1.1c0.2-0.2,0.5-0.3,0.9-0.4c0.4,0,0.7,0.1,1,0.3c0.3,0.3,0.4,0.6,0.4,1.1
				v4.4h4.2c0.4,0,0.7,0.1,1,0.3c0.2,0.2,0.4,0.6,0.4,1c0,0.4-0.1,0.6-0.4,0.9c-0.2,0.3-0.5,0.4-1,0.4h-4.2v19.5
				c0,2-0.7,3.5-1.9,4.6c-1,0.9-2.5,1.5-4.7,1.6c-1.3,0-3.4-0.3-6.4-1c-0.4-0.1-0.7-0.3-1-0.6c-0.2-0.3-0.3-0.7-0.2-1.1
				c0.3-0.9,1-1.2,1.8-1c4.9,0.8,8,0.5,9.1-0.7c0.4-0.5,0.5-1.3,0.5-2.3V29.9H353.6z M354.9,33.6c0-0.3,0.3-0.6,0.6-0.8
				c0.3-0.2,0.7-0.2,1.1-0.1c0.3,0.1,0.6,0.3,0.8,0.7c1.9,3.2,3.6,7.1,5,11.7c0.1,0.4,0,0.8,0,1.1c-0.1,0.3-0.4,0.5-0.8,0.6
				c-0.4,0.1-0.7,0.1-1,0c-0.3-0.2-0.5-0.5-0.7-0.9c-1.3-4.4-2.9-8.1-4.8-11.1C354.9,34.4,354.8,34,354.9,33.6z"/>
			<path class="st10" d="M348.7,56.7c-0.5,0-0.9-0.1-1.4-0.4c-0.5-0.5-0.7-1-0.7-1.7V38.9c-1.6,2.7-2.5,3.2-3.2,3.2
				c-0.6,0-1.1-0.1-1.5-0.4c-0.5,5.2-1.7,9.6-3.6,13.1c-0.3,0.6-0.9,1-1.5,1.1c-0.6,0.1-1.1,0-1.5-0.4c-0.9-0.7-1.1-1.8-0.4-2.9
				c2.1-4.6,3.1-10.3,3.1-16.9V20.9c-0.1-1.2,0.3-2.2,0.9-3.1c0.7-0.8,1.8-1.1,3.2-1.1H356v-1.9c0-0.7,0.2-1.2,0.6-1.5
				c0.3-0.3,0.9-0.5,1.5-0.5c0.7,0,1.1,0.3,1.4,0.5c0.4,0.3,0.7,0.8,0.7,1.5v1.9h15.9c0.5,0,1,0.1,1.5,0.4l0.2,0.1
				c0.4,0.4,0.6,0.9,0.6,1.5c0,1-0.4,1.4-0.8,1.6c-0.4,0.3-0.9,0.4-1.4,0.4h-4.9c0.2,0.1,0.4,0.2,0.6,0.3c0.5,0.5,0.7,1,0.7,1.7v3.6
				h3.4c0.6,0,1.1,0.2,1.5,0.5c0.4,0.4,0.6,0.9,0.6,1.5c0,0.7-0.3,1.1-0.5,1.4c-0.4,0.4-0.9,0.7-1.5,0.7h-3.4v18.7
				c0,2.1-0.8,3.9-2.2,5.1c-1.1,1-2.8,1.6-5.1,1.7l-0.3,0c-1.3,0-3.4-0.3-6.3-1c-0.6-0.1-1.1-0.4-1.4-0.9c-0.3-0.5-0.4-1-0.3-1.7
				c0.4-1.3,1.5-1.9,2.8-1.5c1.7,0.3,3.3,0.4,4.6,0.4c2.4,0,3.4-0.5,3.7-0.9c0.2-0.4,0.4-1,0.4-1.8V30.6h-14.8
				c-0.6,0-1.1-0.2-1.5-0.6c-0.4-0.4-0.6-0.9-0.6-1.5c0-0.1,0-0.1,0-0.2c-0.3,0.7-0.5,1.5-0.9,2.4v23.9c0,0.6-0.2,1.1-0.5,1.5
				l-0.2,0.1C349.7,56.5,349.3,56.7,348.7,56.7z M348.6,30.4l-0.5,6.9l0,17.3c0,0.3,0.1,0.5,0.1,0.5c0.2,0.1,0.6,0.1,0.9,0
				c0.1-0.1,0.1-0.3,0.1-0.5l0-24.3c1.6-4.3,2.4-7.1,2.2-8.4c-0.1-0.1-0.2-0.2-0.5-0.3c-0.2,0-0.3,0-0.5,0.1c0,0-0.1,0.2-0.2,0.4
				c-1.1,5.8-3,10.8-5.6,14.8c-1.9,2.6-2.1,3.2-2.2,3.3c0,0,0.1,0.1,0.3,0.3c0.1,0.1,0.3,0.1,0.5,0.1c0,0,0.8-0.1,3-4.4L348.6,30.4z
				 M358.9,52.5c-0.1,0-0.4,0-0.6,0.5c0,0.2,0,0.4,0.1,0.4c0.1,0.2,0.3,0.3,0.5,0.3c2.8,0.6,4.8,0.9,6,0.9l0.2,0
				c1.9-0.1,3.3-0.5,4.2-1.3c1.1-1,1.7-2.3,1.7-4V29.1h4.9c0.2,0,0.3-0.1,0.4-0.1c0.2-0.2,0.2-0.3,0.2-0.4c0-0.2-0.1-0.4-0.1-0.5
				c-0.1-0.1-0.2-0.1-0.4-0.1H371v-5.1c0-0.4-0.1-0.5-0.2-0.6c0,0-0.2-0.1-0.4-0.1c-0.2,0-0.3,0.1-0.4,0.1c-0.1,0.1-0.1,0.3-0.1,0.6
				V28h-16.2c-0.2,0-0.3,0-0.4,0.1c-0.1,0.1-0.1,0.3-0.1,0.4c0,0.2,0,0.3,0.1,0.4c0.1,0.1,0.2,0.1,0.4,0.1h16.2v19.6
				c0,1.2-0.2,2.1-0.7,2.7c-0.9,1-2.5,1.5-4.9,1.5c0,0,0,0,0,0c-1.4,0-3-0.2-4.9-0.5C359.1,52.5,359,52.5,358.9,52.5z M342.2,18.2
				c-0.7,0-1.6,0.1-2.1,0.6c-0.4,0.5-0.6,1.2-0.6,2.1l0,14.8c0,6.7-1.1,12.6-3.3,17.5c-0.4,0.7-0.2,0.9,0,1c0.1,0.1,0.2,0.1,0.3,0.1
				l0.1,0c0.1,0,0.3-0.1,0.4-0.3c2.4-4.4,3.6-10.3,3.6-17.5V21.9c0-1.6,0.9-2.6,2.5-2.6l33,0c0.2,0,0.5-0.1,0.7-0.2
				c0.1,0,0.1-0.1,0.1-0.4c0-0.1,0-0.3-0.1-0.4c-0.2-0.1-0.4-0.2-0.6-0.2h-17.4v-3.4c0-0.2-0.1-0.3-0.1-0.3
				c-0.3-0.2-0.4-0.2-0.5-0.2c-0.2,0-0.4,0.1-0.5,0.1c-0.1,0.1-0.1,0.2-0.1,0.4v3.4H342.2z M343.2,20.8c-0.7,0-1.1,0.2-1.1,1.1v14.7
				c0,0.5,0,1,0,1.5c0.3-0.5,0.8-1.1,1.4-1.9c2.5-3.8,4.3-8.6,5.4-14.3c0.1-0.4,0.3-0.7,0.5-1H343.2
				C343.3,20.8,343.3,20.8,343.2,20.8z M352.5,20.8c0.1,0.1,0.1,0.2,0.2,0.2l0.2,0.4c0.2,1.2-0.1,3-1.1,6c0.1-0.1,0.1-0.2,0.2-0.3
				c0.4-0.4,0.9-0.6,1.5-0.6h14.8v-3.6c0-0.6,0.2-1.1,0.5-1.6c0.2-0.2,0.5-0.4,0.7-0.5H352.5z M361.1,47.6c-0.3,0-0.6-0.1-0.9-0.2
				c-0.6-0.4-0.9-0.8-1.1-1.4c-1.2-4.3-2.8-8-4.7-11c-0.3-0.5-0.4-1-0.3-1.6c0.1-0.6,0.5-1.1,1-1.4c0.4-0.2,1-0.3,1.6-0.2
				c0.5,0.2,1,0.5,1.3,1c2,3.3,3.7,7.3,5.1,11.8c0.1,0.5,0.1,1.1,0,1.6c-0.3,0.6-0.7,0.9-1.3,1.1C361.6,47.6,361.3,47.6,361.1,47.6z
				 M361,46.2c0.1,0,0.2,0,0.3,0c0.2-0.1,0.4-0.2,0.4-0.3c0,0,0.1-0.3,0-0.7c-1.4-4.4-3-8.2-4.9-11.4c-0.1-0.2-0.3-0.3-0.5-0.4
				c0,0,0,0-0.1,0c-0.1,0-0.2,0-0.3,0.1c-0.2,0.1-0.3,0.2-0.3,0.2c0,0.3,0,0.5,0.1,0.6c1.9,3.1,3.6,6.9,4.8,11.3
				C360.6,45.9,360.8,46.1,361,46.2C360.9,46.2,360.9,46.2,361,46.2z"/>
		</g>
	</g>
</g>
</svg>
