<?xml version="1.0" encoding="utf-8"?>
<!-- Generator: Adobe Illustrator 19.1.0, SVG Export Plug-In . SVG Version: 6.00 Build 0)  -->
<svg version="1.1" id="圖層_1" xmlns="http://www.w3.org/2000/svg" xmlns:xlink="http://www.w3.org/1999/xlink" x="0px" y="0px"
	 viewBox="0 0 283.4 212.5" style="enable-background:new 0 0 283.4 212.5;" xml:space="preserve">
<style type="text/css">
	.st0{fill:url(#SVGID_1_);}
	.st1{fill:none;stroke:#33CC99;stroke-width:1.5;stroke-miterlimit:10;}
	.st2{fill:#33CC99;stroke:#33CC99;stroke-width:0.1705;stroke-miterlimit:10;}
	.st3{fill:url(#SVGID_2_);stroke:#906C8C;stroke-width:2.533;stroke-miterlimit:10;}
	.st4{fill:#717071;}
	.st5{fill:url(#SVGID_3_);}
	.st6{fill:#33CC99;stroke:#33CC99;stroke-width:0.2457;stroke-miterlimit:10;}
	.st7{fill:#FFFFFF;}
	.st8{fill:url(#SVGID_4_);}
	.st9{fill:url(#SVGID_5_);stroke:#33CC99;stroke-width:1.5;stroke-miterlimit:10;}
	.st10{fill:#33CC99;}
	.st11{fill:url(#SVGID_6_);}
	.st12{fill:url(#SVGID_7_);}
	.st13{fill:url(#SVGID_8_);stroke:#33CC99;stroke-width:1.5;stroke-miterlimit:10;}
	.st14{fill:url(#SVGID_9_);}
	.st15{fill:url(#SVGID_10_);}
	.st16{fill:url(#SVGID_11_);}
	.st17{fill:url(#SVGID_12_);stroke:#33CC99;stroke-width:1.5;stroke-miterlimit:10;}
	.st18{fill:url(#SVGID_13_);stroke:#33CC99;stroke-width:1.5;stroke-miterlimit:10;}
	.st19{fill:url(#SVGID_14_);}
	.st20{fill:url(#SVGID_15_);}
	.st21{fill:url(#SVGID_16_);stroke:#33CC99;stroke-width:1.5;stroke-miterlimit:10;}
	.st22{fill:url(#SVGID_17_);stroke:#33CC99;stroke-width:1.5;stroke-miterlimit:10;}
	.st23{fill:url(#SVGID_18_);stroke:#33CC99;stroke-width:1.5;stroke-miterlimit:10;}
	.st24{fill:url(#SVGID_19_);}
	.st25{fill:url(#SVGID_20_);stroke:#33CC99;stroke-width:1.5;stroke-miterlimit:10;}
	.st26{opacity:0.66;}
	.st27{fill:url(#SVGID_21_);}
	.st28{fill:url(#SVGID_22_);}
	.st29{fill:url(#SVGID_23_);stroke:#33CC99;stroke-width:1.5;stroke-miterlimit:10;}
	.st30{fill:url(#SVGID_24_);stroke:#33CC99;stroke-width:1.5;stroke-miterlimit:10;}
	.st31{fill:url(#SVGID_25_);stroke:#33CC99;stroke-width:1.5;stroke-miterlimit:10;}
	.st32{fill:none;stroke:#29C5EF;stroke-miterlimit:10;}
	.st33{fill:url(#SVGID_26_);stroke:#33CC99;stroke-width:1.5;stroke-miterlimit:10;}
	.st34{fill:url(#SVGID_27_);}
	.st35{fill:url(#SVGID_28_);}
	.st36{fill:url(#SVGID_29_);stroke:#33CC99;stroke-width:1.5;stroke-miterlimit:10;}
	.st37{fill:url(#SVGID_30_);}
	.st38{fill:url(#SVGID_31_);}
	.st39{fill:url(#SVGID_32_);}
	.st40{fill:url(#SVGID_33_);stroke:#33CC99;stroke-width:1.5;stroke-miterlimit:10;}
	.st41{fill:url(#SVGID_34_);stroke:#33CC99;stroke-width:1.5;stroke-miterlimit:10;}
	.st42{fill:url(#SVGID_35_);}
	.st43{fill:url(#SVGID_36_);}
	.st44{fill:url(#SVGID_37_);stroke:#33CC99;stroke-width:1.5;stroke-miterlimit:10;}
	.st45{fill:url(#SVGID_38_);stroke:#33CC99;stroke-width:1.5;stroke-miterlimit:10;}
	.st46{fill:url(#SVGID_39_);stroke:#33CC99;stroke-width:1.5;stroke-miterlimit:10;}
	.st47{fill:url(#SVGID_40_);}
	.st48{fill:url(#SVGID_41_);stroke:#33CC99;stroke-width:1.5;stroke-miterlimit:10;}
	.st49{fill:url(#SVGID_42_);}
	.st50{fill:url(#SVGID_43_);}
	.st51{fill:url(#SVGID_44_);stroke:#33CC99;stroke-width:1.5;stroke-miterlimit:10;}
	.st52{fill:url(#SVGID_45_);stroke:#33CC99;stroke-width:1.5;stroke-miterlimit:10;}
	.st53{fill:url(#SVGID_46_);stroke:#33CC99;stroke-width:1.5;stroke-miterlimit:10;}
	.st54{fill:url(#SVGID_47_);stroke:#33CC99;stroke-width:1.5;stroke-miterlimit:10;}
	.st55{fill:url(#SVGID_48_);}
	.st56{fill:url(#SVGID_49_);}
	.st57{fill:url(#SVGID_50_);stroke:#33CC99;stroke-width:1.5;stroke-miterlimit:10;}
	.st58{fill:url(#SVGID_51_);}
	.st59{fill:url(#SVGID_52_);}
	.st60{fill:url(#SVGID_53_);}
	.st61{fill:url(#SVGID_54_);stroke:#33CC99;stroke-width:1.5;stroke-miterlimit:10;}
	.st62{fill:url(#SVGID_55_);stroke:#33CC99;stroke-width:1.5;stroke-miterlimit:10;}
	.st63{fill:url(#SVGID_56_);}
	.st64{fill:url(#SVGID_57_);}
	.st65{fill:url(#SVGID_58_);stroke:#33CC99;stroke-width:1.5;stroke-miterlimit:10;}
	.st66{fill:url(#SVGID_59_);stroke:#33CC99;stroke-width:1.5;stroke-miterlimit:10;}
	.st67{fill:url(#SVGID_60_);stroke:#33CC99;stroke-width:1.5;stroke-miterlimit:10;}
	.st68{fill:url(#SVGID_61_);}
	.st69{fill:url(#SVGID_62_);stroke:#33CC99;stroke-width:1.5;stroke-miterlimit:10;}
	.st70{fill:url(#SVGID_63_);}
	.st71{fill:url(#SVGID_64_);}
	.st72{fill:url(#SVGID_65_);stroke:#33CC99;stroke-width:1.5;stroke-miterlimit:10;}
	.st73{fill:url(#SVGID_66_);stroke:#33CC99;stroke-width:1.5;stroke-miterlimit:10;}
	.st74{fill:url(#SVGID_67_);}
	.st75{fill:url(#SVGID_68_);}
	.st76{fill:url(#SVGID_69_);}
	.st77{fill:url(#SVGID_70_);}
	.st78{fill:url(#SVGID_71_);}
	.st79{fill:url(#SVGID_72_);}
	.st80{fill:url(#SVGID_73_);}
	.st81{opacity:0.66;fill:url(#SVGID_74_);}
	.st82{fill:url(#SVGID_75_);}
	.st83{opacity:0.78;}
	.st84{opacity:0.1;}
	.st85{fill:#4C423F;}
	.st86{fill:url(#SVGID_76_);}
	.st87{fill:url(#SVGID_77_);}
	.st88{fill:url(#SVGID_78_);}
	.st89{fill:url(#SVGID_79_);}
	.st90{fill:none;}
	.st91{fill:url(#SVGID_80_);}
	.st92{fill:url(#SVGID_81_);}
	.st93{fill:url(#SVGID_82_);}
	.st94{fill:url(#SVGID_83_);}
	.st95{fill:url(#SVGID_84_);}
	.st96{fill:url(#SVGID_85_);}
	.st97{fill:url(#SVGID_86_);}
	.st98{opacity:0.66;fill:url(#SVGID_87_);}
	.st99{fill:url(#SVGID_88_);}
	.st100{fill:url(#SVGID_89_);}
	.st101{fill:url(#SVGID_90_);}
	.st102{fill:url(#SVGID_91_);}
	.st103{fill:url(#SVGID_92_);}
	.st104{fill:#F27968;}
	.st105{fill:#7779B8;}
	.st106{fill:#906C8C;}
	.st107{fill:#727171;}
	.st108{fill:#C9A063;}
	.st109{fill:#B367B7;}
	.st110{fill:#D86464;}
	.st111{fill:#A5B548;}
	.st112{fill:url(#SVGID_93_);}
	.st113{fill:url(#SVGID_94_);}
	.st114{fill:url(#SVGID_95_);}
	.st115{fill:#F7B52C;}
	.st116{fill:#13AE67;}
	.st117{fill:#5BADC9;}
	.st118{fill:#0095A0;}
	.st119{fill:url(#SVGID_96_);}
	.st120{fill:url(#SVGID_97_);}
	.st121{fill:#33CC99;stroke:#1E9E70;stroke-width:0.4995;stroke-miterlimit:10;}
	.st122{fill:url(#SVGID_98_);}
	.st123{fill:url(#SVGID_99_);}
	.st124{fill:#F27968;stroke:#1E9E70;stroke-width:0.4995;stroke-miterlimit:10;}
	.st125{fill:#1E9E70;}
	.st126{fill:url(#SVGID_100_);}
	.st127{fill:#33CC99;stroke:#33CC99;stroke-width:0.9336;stroke-miterlimit:10;}
	.st128{fill:url(#SVGID_101_);stroke:#F7B52C;stroke-width:2.533;stroke-miterlimit:10;}
	.st129{fill:url(#SVGID_102_);stroke:#5BADC9;stroke-width:2.533;stroke-miterlimit:10;}
	.st130{fill:url(#SVGID_103_);stroke:#F27968;stroke-width:2.6098;stroke-miterlimit:10;}
	.st131{fill:url(#SVGID_104_);stroke:#C9A063;stroke-width:2.6098;stroke-miterlimit:10;}
	.st132{fill:url(#SVGID_105_);stroke:#727171;stroke-width:2.6098;stroke-miterlimit:10;}
	.st133{fill:url(#SVGID_106_);stroke:#F44F47;stroke-width:2.533;stroke-miterlimit:10;}
	.st134{fill:url(#SVGID_107_);stroke:#13AE67;stroke-width:2.533;stroke-miterlimit:10;}
	.st135{fill:#F44F47;}
	.st136{fill:url(#SVGID_108_);stroke:#0095A0;stroke-width:2.533;stroke-miterlimit:10;}
	.st137{fill:url(#SVGID_109_);stroke:#7779B8;stroke-width:2.533;stroke-miterlimit:10;}
	.st138{fill:url(#SVGID_110_);stroke:#A5B548;stroke-width:2.533;stroke-miterlimit:10;}
	.st139{fill:url(#SVGID_111_);stroke:#B367B7;stroke-width:2.533;stroke-miterlimit:10;}
	.st140{fill:url(#SVGID_112_);}
	.st141{fill:none;stroke:#906C8C;stroke-width:2.533;stroke-miterlimit:10;}
	.st142{fill:#231815;}
	.st143{fill:url(#SVGID_113_);}
	.st144{fill:none;stroke:#F7B52C;stroke-width:2.533;stroke-miterlimit:10;}
	.st145{fill:url(#SVGID_114_);}
	.st146{fill:none;stroke:#5BADC9;stroke-width:2.533;stroke-miterlimit:10;}
	.st147{fill:url(#SVGID_115_);}
	.st148{fill:none;stroke:#F27968;stroke-width:2.6098;stroke-miterlimit:10;}
	.st149{fill:url(#SVGID_116_);}
	.st150{fill:none;stroke:#C9A063;stroke-width:2.6098;stroke-miterlimit:10;}
	.st151{fill:url(#SVGID_117_);}
	.st152{fill:none;stroke:#727171;stroke-width:2.6098;stroke-miterlimit:10;}
	.st153{fill:url(#SVGID_118_);}
	.st154{fill:none;stroke:#F44F47;stroke-width:2.533;stroke-miterlimit:10;}
	.st155{fill:url(#SVGID_119_);}
	.st156{fill:none;stroke:#13AE67;stroke-width:2.533;stroke-miterlimit:10;}
	.st157{fill:url(#SVGID_120_);}
	.st158{fill:none;stroke:#0095A0;stroke-width:2.533;stroke-miterlimit:10;}
	.st159{fill:url(#SVGID_121_);}
	.st160{fill:none;stroke:#7779B8;stroke-width:2.533;stroke-miterlimit:10;}
	.st161{fill:url(#SVGID_122_);}
	.st162{fill:none;stroke:#A5B548;stroke-width:2.533;stroke-miterlimit:10;}
	.st163{fill:url(#SVGID_123_);}
	.st164{fill:none;stroke:#B367B7;stroke-width:2.533;stroke-miterlimit:10;}
	.st165{fill:url(#SVGID_124_);stroke:#906C8C;stroke-width:2.533;stroke-miterlimit:10;}
	.st166{fill:url(#SVGID_125_);stroke:#F7B52C;stroke-width:2.533;stroke-miterlimit:10;}
	.st167{fill:url(#SVGID_126_);stroke:#5BADC9;stroke-width:2.533;stroke-miterlimit:10;}
	.st168{fill:url(#SVGID_127_);stroke:#F27968;stroke-width:2.6098;stroke-miterlimit:10;}
	.st169{fill:url(#SVGID_128_);stroke:#C9A063;stroke-width:2.6098;stroke-miterlimit:10;}
	.st170{fill:url(#SVGID_129_);stroke:#727171;stroke-width:2.6098;stroke-miterlimit:10;}
	.st171{fill:url(#SVGID_130_);stroke:#D86464;stroke-width:2.533;stroke-miterlimit:10;}
	.st172{fill:url(#SVGID_131_);stroke:#13AE67;stroke-width:2.533;stroke-miterlimit:10;}
	.st173{fill:url(#SVGID_132_);stroke:#0095A0;stroke-width:2.533;stroke-miterlimit:10;}
	.st174{fill:url(#SVGID_133_);stroke:#7779B8;stroke-width:2.533;stroke-miterlimit:10;}
	.st175{fill:url(#SVGID_134_);stroke:#A5B548;stroke-width:2.533;stroke-miterlimit:10;}
	.st176{fill:url(#SVGID_135_);stroke:#B367B7;stroke-width:2.533;stroke-miterlimit:10;}
	.st177{fill:url(#SVGID_136_);}
	.st178{fill:url(#SVGID_137_);}
	.st179{fill:url(#SVGID_138_);}
	.st180{fill:url(#SVGID_139_);}
	.st181{fill:url(#SVGID_140_);}
	.st182{fill:url(#SVGID_141_);}
	.st183{fill:url(#SVGID_142_);}
	.st184{fill:none;stroke:#D86464;stroke-width:2.533;stroke-miterlimit:10;}
	.st185{fill:url(#SVGID_143_);}
	.st186{fill:url(#SVGID_144_);}
	.st187{fill:url(#SVGID_145_);}
	.st188{fill:url(#SVGID_146_);}
	.st189{fill:url(#SVGID_147_);}
	.st190{fill:#5CB5BC;}
	.st191{fill:#65C696;}
	.st192{fill:#F5A298;}
	.st193{fill:#D9BD95;}
	.st194{fill:#9D9C9C;}
	.st195{fill:#F8CB78;}
	.st196{fill:#8FC6D8;}
	.st197{fill:#EA7373;}
	.st198{fill:#B098AF;}
	.st199{fill:#A0A2CC;}
	.st200{fill:#C0CB84;}
	.st201{fill:#C997CB;}
	.st202{fill:url(#SVGID_148_);stroke:#0095A0;stroke-width:2.5;stroke-miterlimit:10;}
	.st203{fill:#C9CACA;}
	.st204{fill:none;stroke:#9FA0A0;stroke-width:0.75;stroke-miterlimit:10;}
	.st205{fill:url(#SVGID_149_);}
	.st206{fill:none;stroke:#E8A734;stroke-width:2.5;stroke-miterlimit:10;}
	.st207{fill:url(#SVGID_150_);stroke:#13AE67;stroke-width:2.5;stroke-miterlimit:10;}
	.st208{fill:url(#SVGID_151_);stroke:#5BADC9;stroke-width:2.5;stroke-miterlimit:10;}
	.st209{fill:url(#SVGID_152_);stroke:#B367B7;stroke-width:2.5;stroke-miterlimit:10;}
	.st210{fill:url(#SVGID_153_);stroke:#7779B8;stroke-width:2.5;stroke-miterlimit:10;}
	.st211{fill:url(#SVGID_154_);}
	.st212{fill:url(#SVGID_155_);}
	.st213{fill:url(#SVGID_156_);}
	.st214{fill:url(#SVGID_157_);stroke:#A5B548;stroke-width:2.5;stroke-miterlimit:10;}
	.st215{fill:url(#SVGID_158_);}
	.st216{fill:url(#SVGID_159_);stroke:#F27968;stroke-width:2.5;stroke-miterlimit:10;}
	.st217{fill:url(#SVGID_160_);}
	.st218{fill:url(#SVGID_161_);}
	.st219{fill:url(#SVGID_162_);stroke:#D86464;stroke-width:2.5;stroke-miterlimit:10;}
	.st220{fill:url(#SVGID_163_);}
	.st221{fill:url(#SVGID_164_);stroke:#727171;stroke-width:2.5;stroke-miterlimit:10;}
	.st222{fill:url(#SVGID_165_);}
	.st223{fill:url(#SVGID_166_);}
	.st224{fill:url(#SVGID_167_);stroke:#906C8C;stroke-width:2.5;stroke-miterlimit:10;}
	.st225{fill:url(#SVGID_168_);stroke:#C9A063;stroke-width:2.5;stroke-miterlimit:10;}
</style>
<rect x="70.9" y="0" class="st90" width="70.8" height="70.8"/>
<g>
	<path class="st115" d="M106.3,6.8c-16.1,0-29.2,12.8-29.2,28.6c0,15.8,13.1,28.6,29.2,28.6s29.2-12.8,29.2-28.6
		C135.5,19.6,122.4,6.8,106.3,6.8z M106.3,59.5c-13.5,0-24.5-10.8-24.5-24.1s11-24.1,24.5-24.1s24.5,10.8,24.5,24.1
		S119.8,59.5,106.3,59.5z"/>
	<path class="st115" d="M111.5,28.1c0,1.3,1,2.3,2.3,2.3c1.3,0,2.3-1,2.3-2.3c0-4.5-3.2-8.3-7.5-9.3v-2.4c0-1.3-1-2.3-2.3-2.3
		c-1.3,0-2.3,1-2.3,2.3v2.4c-4.3,1-7.5,4.8-7.5,9.3c0,4.5,3.2,8.3,7.5,9.3v9.8c-1.7-0.8-2.8-2.5-2.8-4.5c0-1.3-1-2.3-2.3-2.3
		c-1.3,0-2.3,1-2.3,2.3c0,4.5,3.2,8.3,7.5,9.3v2.4c0,1.3,1,2.3,2.3,2.3c1.3,0,2.3-1,2.3-2.3v-2.4c4.3-1,7.5-4.8,7.5-9.3
		c0-4.5-3.2-8.3-7.5-9.3v-9.8C110.3,24.4,111.5,26.1,111.5,28.1L111.5,28.1z M101.2,28.1c0-2,1.2-3.7,2.8-4.5v9
		C102.3,31.8,101.2,30.1,101.2,28.1L101.2,28.1z M111.5,42.7c0,2-1.2,3.7-2.8,4.5v-9C110.3,39.1,111.5,40.8,111.5,42.7L111.5,42.7z
		 M111.5,42.7"/>
</g>
<rect x="212.6" y="70.8" class="st90" width="70.8" height="70.8"/>
<path class="st104" d="M252.9,82.4h-9.8c-1.1,0-2,0.9-2,2V99h-13.8c-1.1,0-2,0.9-2,2v10.4c0,1.1,0.9,2,2,2h13.8v14.6
	c0,1.1,0.9,2,2,2h9.8c1.1,0,2-0.9,2-2v-14.6h13.8c1.1,0,2-0.9,2-2V101c0-1.1-0.9-2-2-2h-13.8V84.4C254.9,83.3,254,82.4,252.9,82.4z
	 M254.9,82.4"/>
<rect x="212.6" y="141.7" class="st90" width="70.8" height="70.8"/>
<g>
	<path class="st108" d="M248,175c6.1,0,11.1-5,11.1-11.1c0-6.1-5-11.1-11.1-11.1c-6.1,0-11.1,5-11.1,11.1
		C236.9,170,241.9,175,248,175L248,175z"/>
	<path class="st108" d="M266.9,194.3L266.9,194.3c0,0,0,3.5-3,4.8c-0.2,0.1-0.4,0.1-0.6,0.2c-0.1,0-0.2,0.1-0.3,0.1
		c-2.8,0.9-7.5,2-13.8,2c-4.6,0-10.1-0.6-16.3-2.2c0,0,0,0,0,0c-3.7-0.9-3.8-4.7-3.8-5c0,0,0,0,0,0v-7.7c0-7.8,6.4-14.2,14.2-14.2
		h9.4c7.8,0,14.2,6.4,14.2,14.2V194.3z"/>
</g>
<rect x="70.9" y="141.7" class="st90" width="70.8" height="70.8"/>
<path class="st107" d="M82.5,179.4h5L87.5,201h7.6l0.1-17.2h7.4l-0.1,17.2h7.6l0.1-17.2h7.4l-0.1,17.2h7.6l0.1-21.5h4.9
	c0.7,0,1.4-0.2,1.8-0.6c0.5-0.4,0.7-0.9,0.7-1.5c0-0.7-0.3-1.3-1-1.7v-0.1h-0.1l-23.8-11.6v-3.4c1.4,0.6,3.5,0.7,6.4,0.3
	s5.3-0.3,7.4,0.4v-7.5c-2-0.7-4.4-0.8-7.4-0.4c-2.9,0.4-5.1,0.4-6.4-0.3v-0.5c0-0.7-0.4-1.1-1.3-1.1c-0.8,0-1.3,0.4-1.3,1.1v11.5
	l-23.8,11.6h-0.1v0.1c-0.7,0.4-1.1,1-1.1,1.7c0,0.6,0.3,1.1,0.8,1.5C81.3,179.2,81.9,179.4,82.5,179.4L82.5,179.4z M82.5,179.4
	 M87.5,195.9"/>
<rect x="212.6" y="0" class="st90" width="70.8" height="70.8"/>
<g>
	<path class="st117" d="M273.8,21l-9.5,4.4l0.1-2.1l6.1-2.8c-0.9-0.1-1.8-0.1-2.7-0.1c-3.4,0-9.1,1.7-15.5,4.3l-20.3-5.4
		c-1.9-0.5-3.9-0.2-5.6,0.9l-1,0.6c-1,0.6-1,2.1,0,2.7l12.2,8.1c-2.9,1.5-5.7,3.1-8.1,4.5l-6.3-3.4c-1-0.6-2.2-0.6-3.3-0.2l-0.6,0.2
		c-0.9,0.4-1.3,1.4-0.8,2.3l3.5,6.2l0,0c-1.3,1.1-2,2.1-2,2.7c0,2,2.4,2.4,4.5,2.4c3.7,0,52.9-11.4,52.9-21.8
		C277.5,22.6,276.1,21.5,273.8,21L273.8,21z"/>
	<path class="st117" d="M253.1,41.2l10.8-3.9c0.5-0.2,1,0.2,1,0.7l0.9,8.2c0.2,2.1-0.9,4-2.7,4.9l-1,0.5c-0.6,0.3-1.4,0.1-1.8-0.4
		l-7.6-8.8C252.4,42.1,252.6,41.4,253.1,41.2L253.1,41.2z"/>
</g>
<rect x="0.2" y="141.7" class="st90" width="70.8" height="70.8"/>
<g>
	<g>
		<g>
			<path class="st110" d="M35.6,151C21,151,9,162.7,9,177.1c0,14.4,11.9,26.1,26.6,26.1s26.6-11.7,26.6-26.1
				C62.2,162.7,50.3,151,35.6,151z M35.6,199.1c-12.3,0-22.4-9.8-22.4-22s10-22,22.4-22S58,165,58,177.1S48,199.1,35.6,199.1z"/>
		</g>
	</g>
	<g>
		<path class="st110" d="M22.5,198.8l-1.7-0.6l1.4-1.4l-0.1-2c-0.8,0-1.3,0.6-1.4,0.6c1.3-1.5,16.1-24.3,25.8-39.3l3.4,2.2
			C24,198.7,23.9,198.7,22.5,198.8z"/>
	</g>
	<g>
		
			<rect x="32.3" y="183.1" transform="matrix(0.7263 0.6874 -0.6874 0.7263 139.3716 20.1951)" class="st110" width="24" height="4.1"/>
	</g>
</g>
<rect x="141.7" y="0" class="st90" width="70.8" height="70.8"/>
<g>
	<path class="st116" d="M202.2,18.1h-50.2c-0.8,0-1.5,0.7-1.5,1.5v31.6c0,0.8,0.7,1.5,1.5,1.5h50.2c0.8,0,1.5-0.7,1.5-1.5V19.6
		C203.8,18.8,203.1,18.1,202.2,18.1z M197.8,21.1l-9.3,8.1l-11.4,9.9l-11.4-9.9l-9.3-8.1H197.8z M200.7,49.7h-2.9l0,0h-41.4l0,0
		h-2.8v-1.5l-0.1,0.1V22.6l10.2,8.9l12.4,10.8c0.6,0.5,1.4,0.5,2,0l12.3-10.8l10.2-8.9V49.7z"/>
</g>
<rect class="st90" width="70.8" height="70.8"/>
<g>
	<g>
		<path class="st118" d="M61.6,37.7c0-1-0.2-2-0.7-2.9c0-0.2-0.1-0.5-0.2-0.7l-4.6-11.3l0-0.1c-1.6-4.7-3.9-9.1-9.6-9.1l-22,0.1
			c-5.9,0-7.9,4.5-9.6,9.1l-4.7,11.3c-0.7,1.1-1.1,2.4-1.1,3.7l0,3.5c0,0.5,0.1,1.1,0.2,1.6c-0.1,0.3-0.2,0.6-0.2,1l0,10.4
			c0,1.5,1.3,2.8,2.8,2.8l5.8,0c1.5,0,2.8-1.3,2.8-2.8l0-5.2L50.7,49l0,5.2c0,1.5,1.3,2.8,2.8,2.8l5.4,0c1.5,0,2.8-1.3,2.8-2.8
			l0-10.4c0-0.3-0.1-0.7-0.2-1c0.1-0.5,0.2-1,0.2-1.6L61.6,37.7z M18.4,24c1.8-5.1,3.2-6.7,6.2-6.7l22-0.1c2.9,0,4.6,1.7,6.2,6.6
			l3.3,6.7c-1.1-0.4-2.3-0.6-3.5-0.6l-34.4,0.1c-1.1,0-2.2,0.2-3.2,0.5L18.4,24z M21.3,42.7l-6.1,0c-1.1,0-2-0.9-2-2
			c0-1.1,0.9-2,2-2l6.1,0c1.1,0,2,0.9,2,2C23.3,41.8,22.4,42.7,21.3,42.7L21.3,42.7z M42.7,42.2l-14.1,0.1c-0.7,0-1.3-0.6-1.3-1.2
			c0-0.7,0.6-1.3,1.2-1.3l14.1-0.1c0.7,0,1.3,0.6,1.3,1.2C44,41.7,43.4,42.2,42.7,42.2L42.7,42.2z M55.4,42.6l-6.1,0
			c-1.1,0-2-0.9-2-2c0-1.1,0.9-2,2-2l6.1,0c1.1,0,2,0.9,2,2C57.4,41.7,56.5,42.6,55.4,42.6L55.4,42.6z M55.4,42.6"/>
	</g>
</g>
<rect x="141.7" y="141.7" class="st90" width="70.8" height="70.8"/>
<g>
	<path class="st106" d="M194,186.5l-14.8-31.7c-0.6-1.6-3.5-1.6-4.1,0l-14.8,31.7h-4c-0.5,0-0.8,0.5-0.6,0.9
		c3.5,7.7,11.8,13.2,21.5,13.2c9.7,0,18-5.5,21.5-13.2c0.2-0.5-0.1-1-0.7-1H194z M165.5,186.7l11.6-27l12,27H165.5z"/>
</g>
<rect x="70.9" y="70.8" class="st90" width="70.8" height="70.8"/>
<g>
	<path class="st105" d="M120.8,120.8l-14,13.8c-0.3,0.3-0.8,0.3-1,0l-14-13.8c-0.3-0.3-0.5-0.8-0.3-1.3L103,87.6h6.6l11.5,32
		C121.3,119.9,121.2,120.4,120.8,120.8z"/>
	<path class="st105" d="M110.4,84.7h-7.7c-1.6,0-3-1.2-3-2.6v-1.8c0-1.4,1.3-2.6,3-2.6h7.7c1.6,0,3,1.2,3,2.6v1.8
		C113.3,83.5,112,84.7,110.4,84.7z"/>
</g>
<rect x="141.7" y="70.8" class="st90" width="70.8" height="70.8"/>
<g>
	<path class="st111" d="M205,83.3c0-3-2.5-5.5-5.5-5.5L154.7,78c-3,0-5.4,2.5-5.4,5.5l0,9.4c0,3,2.5,5.5,5.5,5.5h1.8l0.1,34.3
		c0,1.1,0.9,1.9,1.9,1.9l37.5-0.1c1.1,0,1.9-0.9,1.9-1.9l-0.1-34.3l1.8,0c3,0,5.4-2.5,5.4-5.5L205,83.3z M194.2,130.6l-3.9,0
		c0,0,0,0,0,0h-2.6c0,0,0,0,0,0l-20.7,0.1c0,0,0-0.1,0-0.1h-2.7c0,0,0,0.1,0,0.1h-3.9v-0.1h0v-8.5l-0.1-32.5v-0.1l33.7-0.1l0.1,32.7
		h0V130.6z M199.6,94.4h-1.8v-7.6l-41,0.2v7.6h-2c-0.9,0-1.6-0.7-1.6-1.6l0-9.4c0-0.9,0.7-1.6,1.6-1.6l44.9-0.2
		c0.9,0,1.6,0.7,1.6,1.6l0,9.4C201.3,93.7,200.5,94.4,199.6,94.4z"/>
	<path class="st111" d="M181.6,108.5l0-7.9c2,0.8,3.2,2.1,3.2,3.2c0,0.8,0.6,1.5,1.4,1.5c0.8,0,1.4-0.7,1.4-1.5c0-2.9-2.4-5.2-6-6.3
		v-0.7c0-0.8-0.6-1.5-1.4-1.5c-0.8,0-1.4,0.7-1.4,1.5V97c-0.5,0-1.1-0.1-1.6-0.1c-0.5,0-1.1,0-1.6,0.1v-0.2c0-0.8-0.6-1.5-1.4-1.5
		c-0.8,0-1.4,0.7-1.4,1.5v0.7c-3.5,1.1-5.9,3.5-5.9,6.4c0,2.8,2.4,5.2,6,6.3l0,7.9c-2-0.8-3.2-2-3.2-3.2c0-0.8-0.6-1.5-1.4-1.5
		c-0.8,0-1.4,0.7-1.4,1.5c0,2.8,2.4,5.2,6,6.3v0.7c0,0,0,0.1,0,0.1c0.1,0.8,0.7,1.4,1.4,1.4c0.7,0,1.3-0.6,1.4-1.4c0,0,0-0.1,0-0.1
		v-0.2c0.5,0,1.1,0.1,1.6,0.1c0.5,0,1.1,0,1.6-0.1v0.2c0,0,0,0.1,0,0.1c0.1,0.8,0.7,1.3,1.4,1.3c0.7,0,1.3-0.6,1.4-1.3
		c0,0,0-0.1,0-0.1v-0.7c3.5-1.1,5.9-3.5,5.9-6.4C187.6,112,185.2,109.6,181.6,108.5z M169.7,103.9c0-1.2,1.2-2.5,3.2-3.3l0,6.5
		C170.9,106.4,169.7,105.1,169.7,103.9z M177.2,99.9c0.5,0,1.1,0,1.6,0.1l0,8c-0.5,0-1-0.1-1.6-0.1s-1.1,0-1.6-0.1l0-7.9
		C176.1,99.9,176.7,99.9,177.2,99.9z M177.3,118.9c-0.6,0-1.1,0-1.6-0.1l0-8c0.5,0,1,0.1,1.6,0.1s1.1,0,1.6,0.1l0,7.9
		C178.4,118.9,177.8,118.9,177.3,118.9z M181.7,118.1l0-6.5c2,0.8,3.2,2,3.2,3.2C184.8,116.1,183.6,117.3,181.7,118.1z"/>
</g>
<rect y="70.8" class="st90" width="70.8" height="70.8"/>
<g>
	<ellipse class="st109" cx="29.6" cy="94.5" rx="0.1" ry="0.1"/>
	<path class="st109" d="M54.4,78.9H16.5c-0.8,0-1.4,0.5-1.4,1.2v52.2c0,0.7,0.6,1.2,1.4,1.2h37.9c0.8,0,1.4-0.5,1.4-1.2V80.2
		C55.7,79.5,55.1,78.9,54.4,78.9z M42.6,92c-3.5,0-6.8,1.3-8.8,3.3l-3.6-12.8c6.1,1.6,11.6,4.7,15.6,9.2c0.3,0.3,0.6,0.7,0.9,1
		C45.4,92.2,44,92,42.6,92z M45.6,97.1c0,1.5-1.3,2.7-3,2.7c-1.6,0-3-1.2-3-2.7s1.3-2.7,3-2.7C44.2,94.5,45.6,95.7,45.6,97.1z
		 M37.1,98.3c-0.6-0.3-1.1-0.7-1.5-1.2c0.4-0.4,0.9-0.8,1.5-1.2c-0.1,0.4-0.2,0.8-0.2,1.2C36.9,97.5,37,97.9,37.1,98.3z M30.1,92.2
		c-0.2,0-0.3,0-0.5,0c-1.5,0-2.6,1.1-2.6,2.4c0,1.3,1.2,2.4,2.6,2.4c0.6,0,1.2-0.2,1.7-0.5l4.2,15.2h-3.1v-4c0-0.5-0.3-0.9-0.8-1.1
		c-0.5-0.2-1.1-0.1-1.5,0.3l-0.7,0.6c-1.5,1.4-4,1.4-5.5,0c-1-0.9-1.4-2.1-1-3.3l5.2-18.8L30.1,92.2z M29.7,94.5
		C29.7,94.6,29.6,94.6,29.7,94.5c-0.1,0.1-0.2,0-0.2,0C29.5,94.5,29.5,94.4,29.7,94.5C29.6,94.4,29.7,94.5,29.7,94.5z M22.5,131.1
		h-4.6V81.4h8.5l-6.1,22c-0.6,2,0.1,4.2,1.7,5.6c2.1,1.9,5.2,2.2,7.7,1.1v2.7c0,0.7,0.6,1.2,1.4,1.2h5l-5.8,4.4
		c-0.3,0.2-0.5,0.6-0.5,0.9v5.3C26,125.1,23,127.8,22.5,131.1z M36.9,116.5l0.8,2.7l-3.5-0.6L36.9,116.5z M25.3,131.1
		c0.6-2.4,2.9-4.2,5.8-4.2c2.8,0,5.2,1.8,5.8,4.2H25.3z M39.6,131.1c-0.5-3.4-3.5-6-7.2-6.5v-3.8l6,1.1l2.6,9.3H39.6z M53,131.1
		h-7.3c3.1-2.8,5.6-6.1,7.3-9.6V131.1z M43.4,129.8l-4.2-15l1.5-1.1c0.4-0.3,0.6-0.9,0.4-1.4c-0.2-0.5-0.7-0.8-1.3-0.8h-1.5
		L35.1,100c2,1.4,4.7,2.2,7.5,2.2c3.2,0,6.3-1,8.3-2.8c1.4,3.2,2.1,6.6,2.1,10.1C53,117.2,49.5,124.5,43.4,129.8z M48.1,95.9
		c0.6,0.3,1.1,0.7,1.5,1.2c-0.4,0.4-0.9,0.8-1.5,1.2c0.1-0.4,0.2-0.8,0.2-1.2C48.3,96.7,48.3,96.3,48.1,95.9z M53,97.5
		c-1.3-2.7-3-5.2-5.1-7.5c-3.5-3.8-8-6.8-12.9-8.7h18V97.5z"/>
</g>
</svg>
