<?xml version="1.0" encoding="utf-8"?>
<!-- Generator: Adobe Illustrator 19.1.0, SVG Export Plug-In . SVG Version: 6.00 Build 0)  -->
<svg version="1.1" id="圖層_1" xmlns="http://www.w3.org/2000/svg" xmlns:xlink="http://www.w3.org/1999/xlink" x="0px" y="0px"
	 viewBox="0 0 512 512" style="enable-background:new 0 0 512 512;" xml:space="preserve">
<style type="text/css">
	.st0{fill:#33CC99;}
	.st1{fill:#EEEEEF;}
	.st2{fill:none;stroke:#33CC99;stroke-miterlimit:10;}
	.st3{fill:#EEEEEF;stroke:#C8C9CA;stroke-width:1.2839;stroke-miterlimit:10;}
	.st4{fill:#9E9E9F;}
	.st5{fill:#FFFFFF;stroke:#33CC99;stroke-width:1.5;stroke-miterlimit:10;}
	.st6{fill:none;stroke:#33CC99;stroke-width:1.4057;stroke-miterlimit:10;}
	.st7{fill:#33CC99;stroke:#FFFFFF;stroke-width:1.4057;stroke-miterlimit:10;}
	.st8{fill:#FFFFFF;}
	.st9{fill:none;stroke:#FFFFFF;stroke-width:2;stroke-linecap:round;stroke-linejoin:round;stroke-miterlimit:10;}
	.st10{fill:none;stroke:#33CC99;stroke-width:1.5;stroke-linecap:round;stroke-linejoin:round;stroke-miterlimit:10;}
	.st11{fill:none;stroke:#888888;stroke-miterlimit:10;}
	.st12{fill:#FFFFFF;stroke:#29C5EF;stroke-width:1.5;stroke-miterlimit:10;}
	.st13{fill:#FFFFFF;stroke:#F27968;stroke-width:1.5;stroke-miterlimit:10;}
	.st14{fill:#FFFFFF;stroke:#BA8642;stroke-width:1.5;stroke-miterlimit:10;}
	.st15{fill:#FFFFFF;stroke:#1B70AF;stroke-width:1.5;stroke-miterlimit:10;}
	.st16{fill:#FFFFFF;stroke:#C5EF14;stroke-width:1.5;stroke-miterlimit:10;}
	.st17{fill:#FFFFFF;stroke:#D64C4C;stroke-width:1.5;stroke-miterlimit:10;}
	.st18{fill:#FFFFFF;stroke:#33871B;stroke-width:1.5;stroke-miterlimit:10;}
	.st19{fill:#FFFFFF;stroke:#6852C6;stroke-width:1.5;stroke-miterlimit:10;}
	.st20{fill:#FFFFFF;stroke:#345484;stroke-width:1.5;stroke-miterlimit:10;}
	.st21{fill:#FFFFFF;stroke:#1E9E70;stroke-width:1.5;stroke-miterlimit:10;}
	.st22{fill:#FFFFFF;stroke:#4BB735;stroke-width:1.5;stroke-miterlimit:10;}
	.st23{fill:#FFFFFF;stroke:#FFE000;stroke-width:1.5;stroke-miterlimit:10;}
	.st24{fill:#FFFFFF;stroke:#DA6FDD;stroke-width:1.5;stroke-miterlimit:10;}
	.st25{fill:#FFFFFF;stroke:#8A71DB;stroke-width:1.5;stroke-miterlimit:10;}
	.st26{fill:#FFFFFF;stroke:#FCA61D;stroke-width:1.5;stroke-miterlimit:10;}
	.st27{fill:#EEEEEF;stroke:#DBDCDC;stroke-miterlimit:10;}
	.st28{fill:#C8C9CA;}
	.st29{display:none;}
	.st30{display:inline;}
	.st31{fill:#33CC99;stroke:#33CC99;stroke-width:0.8099;stroke-miterlimit:10;}
	.st32{fill:none;stroke:#B4B4B5;stroke-width:2;stroke-linecap:round;stroke-linejoin:round;stroke-miterlimit:10;}
	.st33{fill:#B4B4B5;}
	.st34{fill:#F7F7F7;}
	.st35{fill:#33CC99;stroke:#33CC99;stroke-miterlimit:10;}
	.st36{fill:#FFE000;}
	.st37{fill:#F27968;}
	.st38{fill:#DA6FDD;}
	.st39{fill:#3399FF;}
	.st40{fill:#29C5EF;}
	.st41{fill:#FCA61D;}
	.st42{fill:#D64C4C;}
	.st43{fill:#8A71DB;}
	.st44{fill:#1B70AF;}
	.st45{fill:#C5EF14;}
	.st46{fill:#7BD661;}
	.st47{fill:#BA8642;}
	.st48{fill:#AF2F2F;}
	.st49{fill:#6852C6;}
	.st50{fill:#345484;}
	.st51{fill:#1E9E70;}
	.st52{fill:#33871B;}
	.st53{fill:none;stroke:#29C5EF;stroke-width:1.5;stroke-miterlimit:10;}
	.st54{fill:none;stroke:#F27968;stroke-width:1.4057;stroke-miterlimit:10;}
	.st55{fill:#FFFFFF;stroke:#33871B;stroke-width:3;stroke-miterlimit:10;}
	.st56{fill:none;stroke:#345484;stroke-width:1.5;stroke-miterlimit:10;}
	.st57{fill:none;stroke:#FFE000;stroke-width:1.5;stroke-miterlimit:10;}
	.st58{fill:none;stroke:#DA6FDD;stroke-width:1.5;stroke-miterlimit:10;}
	.st59{fill:none;stroke:#8A71DB;stroke-width:1.5;stroke-miterlimit:10;}
	.st60{fill:none;stroke:#FCA61D;stroke-width:1.5;stroke-miterlimit:10;}
	.st61{fill:#7BD661;stroke:#EEEEEF;stroke-width:1.5;stroke-miterlimit:10;}
	.st62{fill:#717071;}
	.st63{fill:#33CC99;stroke:#33CC99;stroke-width:0.7337;stroke-miterlimit:10;}
	.st64{fill:#33CC99;stroke:#33CC99;stroke-width:0.4284;stroke-miterlimit:10;}
	.st65{fill:none;stroke:#888888;stroke-width:2;stroke-linecap:round;stroke-linejoin:round;stroke-miterlimit:10;}
	.st66{display:inline;fill:none;stroke:#888888;stroke-width:2;stroke-linecap:round;stroke-linejoin:round;stroke-miterlimit:10;}
	.st67{fill:#8ACC7A;stroke:#9E9E9F;stroke-width:1.0885;stroke-miterlimit:10;}
	.st68{fill:#FFFFFF;stroke:#4BB735;stroke-width:1.0885;stroke-miterlimit:10;}
	.st69{fill:#589B42;stroke:#9E9E9F;stroke-width:1.0885;stroke-miterlimit:10;}
	.st70{fill:none;stroke:#4BB735;stroke-width:1.5;stroke-miterlimit:10;}
	.st71{fill:#4BB735;}
	.st72{fill:none;stroke:#29C5EF;stroke-miterlimit:10;}
	.st73{clip-path:url(#SVGID_2_);fill:#4BB735;}
	.st74{clip-path:url(#SVGID_4_);fill:#33CC99;}
	.st75{clip-path:url(#SVGID_6_);fill:#BA8642;}
	.st76{clip-path:url(#SVGID_8_);fill:#33CC99;}
	.st77{clip-path:url(#SVGID_10_);fill:#D64C4C;}
	.st78{clip-path:url(#SVGID_12_);fill:#1B70AF;}
	.st79{clip-path:url(#SVGID_14_);fill:#FFE000;}
	.st80{clip-path:url(#SVGID_16_);fill:#1E9E70;}
	.st81{clip-path:url(#SVGID_18_);fill:#C5EF14;}
	.st82{clip-path:url(#SVGID_20_);fill:#33CC99;}
	.st83{clip-path:url(#SVGID_22_);fill:#8A71DB;}
	.st84{fill:none;}
	.st85{clip-path:url(#SVGID_24_);fill:#4BB735;}
	.st86{clip-path:url(#SVGID_26_);fill:#33CC99;}
	.st87{clip-path:url(#SVGID_28_);fill:#BA8642;}
	.st88{clip-path:url(#SVGID_30_);fill:#33CC99;}
	.st89{clip-path:url(#SVGID_32_);fill:#D64C4C;}
	.st90{clip-path:url(#SVGID_34_);fill:#1B70AF;}
	.st91{clip-path:url(#SVGID_36_);fill:#FFE000;}
	.st92{clip-path:url(#SVGID_38_);fill:#1E9E70;}
	.st93{clip-path:url(#SVGID_40_);fill:#C5EF14;}
	.st94{clip-path:url(#SVGID_42_);fill:#8A71DB;}
	.st95{fill:#1A1A1A;stroke:#1A1A1A;stroke-width:0.4284;stroke-miterlimit:10;}
	.st96{fill:#1A1A1A;}
	.st97{fill:none;stroke:#1A1A1A;stroke-width:0.4284;stroke-miterlimit:10;}
	.st98{clip-path:url(#SVGID_44_);fill:#FFFFFF;}
	.st99{clip-path:url(#SVGID_46_);fill:#BA8642;}
	.st100{clip-path:url(#SVGID_48_);fill:#33CC99;}
	.st101{clip-path:url(#SVGID_50_);fill:#D64C4C;}
	.st102{clip-path:url(#SVGID_52_);fill:#1B70AF;}
	.st103{clip-path:url(#SVGID_54_);fill:#FFE000;}
	.st104{clip-path:url(#SVGID_56_);fill:#1E9E70;}
	.st105{clip-path:url(#SVGID_58_);fill:#C5EF14;}
	.st106{clip-path:url(#SVGID_60_);fill:#8A71DB;}
</style>
<path class="st95" d="M480.9,48h-13.4v16.2h-15.4v14h15.4v16.2h13.4V78.2h15.4v-14h-15.4V48z M480.9,48"/>
<path class="st95" d="M444.2,57.2h15.7V41h27.4v16.2h7.9c2.8-4.7,4.5-10,4.5-15.8c0-16.2-12.8-29.4-28.6-29.4
	c-9.6,0-18.1,4.9-23.3,12.3c-5.2-7.5-13.7-12.3-23.3-12.3c-15.8,0-28.6,13.2-28.6,29.4c0,7.1,2.4,13.5,6.5,18.6l45.5,56.5l12.1-15
	V85.3h-15.7V57.2z M444.2,57.2"/>
<path class="st95" d="M357.7,16.6h-75.6c-5.1,0-9.2,4.1-9.2,9.2v15.9c0,5.1,4.1,9.2,9.2,9.2h3v57.7c0,1.8,1.4,3.2,3.2,3.2h63.2
	c1.8,0,3.2-1.5,3.2-3.2V50.9h3c5.1,0,9.2-4.1,9.2-9.2V25.8C366.9,20.7,362.8,16.6,357.7,16.6L357.7,16.6z M291.6,35.9h56.7v58.4
	c-5.4,1.2-9.7,5.5-11,11h-34.8c-1.2-5.5-5.5-9.8-11-11V35.9z M291.6,98.8c3.1,1,5.5,3.5,6.5,6.5h-6.5V98.8z M341.8,105.3
	c1-3.1,3.4-5.5,6.5-6.5v6.5H341.8z M360.4,41.7c0,1.5-1.2,2.8-2.7,2.8h-5.2v-8.5h3.4c1.2,0,2.1-1,2.1-2.2c0-1.2-1-2.2-2.1-2.2h-72.1
	c-1.2,0-2.1,1-2.1,2.2c0,1.2,1,2.2,2.1,2.2h3.4v8.5h-5.2c-1.5,0-2.7-1.2-2.7-2.8V25.8c0-1.5,1.2-2.8,2.7-2.8h75.6
	c1.5,0,2.7,1.2,2.7,2.8V41.7z M360.4,41.7"/>
<path class="st95" d="M315.7,64.6c2.9,0,5.3-2,6-4.7h5.8c-0.5,0.9-1.5,1.4-2.5,1.4c-0.9,0-1.6,0.7-1.6,1.6c0,0.9,0.7,1.6,1.6,1.6
	c2.9,0,5.3-2,6-4.7h0.7c0.9,0,1.6-0.7,1.6-1.6c0-0.9-0.7-1.6-1.6-1.6H331c-0.7-2.7-3.1-4.7-6-4.7s-5.3,2-6,4.7h-5.8
	c0.5-0.9,1.5-1.4,2.5-1.4c0.9,0,1.6-0.7,1.6-1.6c0-0.9-0.7-1.6-1.6-1.6c-2.9,0-5.3,2-6,4.7H309c-0.9,0-1.6,0.7-1.6,1.6
	c0,0.9,0.7,1.6,1.6,1.6h0.7C310.4,62.7,312.9,64.6,315.7,64.6L315.7,64.6z M315.7,61.4c-1.1,0-2-0.6-2.5-1.4h5.1
	C317.7,60.8,316.8,61.4,315.7,61.4L315.7,61.4z M325,55.3c1.1,0,2,0.6,2.5,1.4h-5.1C323,55.9,323.9,55.3,325,55.3L325,55.3z
	 M325,55.3"/>
<path class="st95" d="M320.4,78.3c10.9,0,19.8-8.9,19.8-19.9c0-11-8.9-19.9-19.8-19.9c-10.9,0-19.8,8.9-19.8,19.9
	C300.6,69.3,309.4,78.3,320.4,78.3L320.4,78.3z M320.4,42.7c8.5,0,15.5,7,15.5,15.6s-7,15.6-15.5,15.6s-15.5-7-15.5-15.6
	S311.8,42.7,320.4,42.7L320.4,42.7z M320.4,42.7"/>
<g>
	<g>
		<g>
			<g>
				<path class="st96" d="M243.5,84.2c-0.8-2.3-2.5-4.1-4.7-5c-2.2-0.8-4.6-0.6-6.6,0.7L213,92.1l-2.6,1.2h-13.9
					c-0.2,0-0.3-0.1-0.3-0.2c0-0.1-0.1-0.2,0-0.4c0-0.1,0.1-0.2,0.2-0.2l10.5-4c4.1-1.4,6.4-5.8,5.3-10c-0.6-2.2-1.9-4-3.8-5.1
					c-1.9-1-4.1-1.2-6.1-0.5l-10.9,3.8l-28.5,2c-1.9,0.1-3.6,1-5,2.4l-15.5,16.4c-3,3.1-3.3,8.1-0.6,11.3c0.7,0.9,3.7,3.9,8.2,8.4
					c2.6,2.6,5.1,5.1,6.3,6.3c0.4,0.4,0.8,0.6,1.3,0.6c0.4,0,0.8-0.1,1.2-0.5l8.5-7.5c1.8-1.6,4.1-2.4,6.4-2.4h29.2
					c1.1,0,2.1-0.2,3.1-0.7l13.8-6.2c0,0,0.1,0,0.1-0.1l0.7-0.4c0,0,0.1,0,0.1-0.1L240,94.1C243.3,92,244.8,87.8,243.5,84.2
					L243.5,84.2z M238.1,90.7L218.7,103l-0.6,0.3l-13.7,6.2c-0.5,0.2-1,0.3-1.6,0.3h-29.2c-3.2,0-6.3,1.2-8.7,3.3l-7.2,6.4
					c-1.3-1.4-3.2-3.2-5.1-5.2c-3.2-3.3-7.3-7.3-7.9-8.1c-1.4-1.7-1.2-4.4,0.4-6l15.5-16.4c0.7-0.7,1.6-1.2,2.6-1.2l28.8-2
					c0.2,0,0.3,0,0.5-0.1l11.1-3.9c0.4-0.1,0.9-0.2,1.3-0.2c0.7,0,1.3,0.2,1.9,0.5c1,0.6,1.7,1.5,2,2.7c0.6,2.2-0.8,4.5-2.9,5.3
					c0,0,0,0,0,0l-10.6,4c-1,0.4-1.8,1.1-2.3,2.1c-0.6,1.3-0.6,2.9,0.2,4.2c0.7,1.3,2,2,3.4,2h14.3c0.3,0,0.5-0.1,0.7-0.2l3.1-1.4
					c0.1,0,0.2-0.1,0.2-0.1l19.4-12.2c1-0.7,2.3-0.8,3.4-0.4c1.2,0.4,2,1.4,2.5,2.6C240.7,87.4,239.9,89.6,238.1,90.7L238.1,90.7z
					 M238.1,90.7"/>
			</g>
			<g>
				<path class="st97" d="M243.5,84.2c-0.8-2.3-2.5-4.1-4.7-5c-2.2-0.8-4.6-0.6-6.6,0.7L213,92.1l-2.6,1.2h-13.9
					c-0.2,0-0.3-0.1-0.3-0.2c0-0.1-0.1-0.2,0-0.4c0-0.1,0.1-0.2,0.2-0.2l10.5-4c4.1-1.4,6.4-5.8,5.3-10c-0.6-2.2-1.9-4-3.8-5.1
					c-1.9-1-4.1-1.2-6.1-0.5l-10.9,3.8l-28.5,2c-1.9,0.1-3.6,1-5,2.4l-15.5,16.4c-3,3.1-3.3,8.1-0.6,11.3c0.7,0.9,3.7,3.9,8.2,8.4
					c2.6,2.6,5.1,5.1,6.3,6.3c0.4,0.4,0.8,0.6,1.3,0.6c0.4,0,0.8-0.1,1.2-0.5l8.5-7.5c1.8-1.6,4.1-2.4,6.4-2.4h29.2
					c1.1,0,2.1-0.2,3.1-0.7l13.8-6.2c0,0,0.1,0,0.1-0.1l0.7-0.4c0,0,0.1,0,0.1-0.1L240,94.1C243.3,92,244.8,87.8,243.5,84.2
					L243.5,84.2z M238.1,90.7L218.7,103l-0.6,0.3l-13.7,6.2c-0.5,0.2-1,0.3-1.6,0.3h-29.2c-3.2,0-6.3,1.2-8.7,3.3l-7.2,6.4
					c-1.3-1.4-3.2-3.2-5.1-5.2c-3.2-3.3-7.3-7.3-7.9-8.1c-1.4-1.7-1.2-4.4,0.4-6l15.5-16.4c0.7-0.7,1.6-1.2,2.6-1.2l28.8-2
					c0.2,0,0.3,0,0.5-0.1l11.1-3.9c0.4-0.1,0.9-0.2,1.3-0.2c0.7,0,1.3,0.2,1.9,0.5c1,0.6,1.7,1.5,2,2.7c0.6,2.2-0.8,4.5-2.9,5.3
					c0,0,0,0,0,0l-10.6,4c-1,0.4-1.8,1.1-2.3,2.1c-0.6,1.3-0.6,2.9,0.2,4.2c0.7,1.3,2,2,3.4,2h14.3c0.3,0,0.5-0.1,0.7-0.2l3.1-1.4
					c0.1,0,0.2-0.1,0.2-0.1l19.4-12.2c1-0.7,2.3-0.8,3.4-0.4c1.2,0.4,2,1.4,2.5,2.6C240.7,87.4,239.9,89.6,238.1,90.7L238.1,90.7z
					 M238.1,90.7"/>
			</g>
		</g>
	</g>
</g>
<path class="st95" d="M206.8,66c16.2,0,29.4-13.9,29.4-31c0-17.1-13.2-31-29.4-31s-29.4,13.9-29.4,31C177.3,52.1,190.5,66,206.8,66
	L206.8,66z M206.8,7.9c14.2,0,25.7,12.2,25.7,27.1c0,14.9-11.5,27.1-25.7,27.1C192.6,62.2,181,50,181,35
	C181,20.1,192.6,7.9,206.8,7.9L206.8,7.9z M206.8,7.9"/>
<path class="st95" d="M196.8,42.3c0-1.1-0.8-1.9-1.8-1.9c-1,0-1.8,0.9-1.8,1.9c0,3.8,3.2,6.9,7.9,8.4v1c0,1.1,0.8,1.9,1.8,1.9
	c1,0,1.8-0.9,1.8-1.9v-0.2c0.7,0.1,1.4,0.1,2.1,0.1c0.7,0,1.4,0,2.1-0.1v0.2c0,1.1,0.8,1.9,1.8,1.9c1,0,1.8-0.9,1.8-1.9v-1
	c4.7-1.4,7.9-4.6,7.9-8.4c0-3.8-3.2-6.9-7.9-8.4V23.5c2.6,1,4.2,2.7,4.2,4.3c0,1.1,0.8,1.9,1.8,1.9c1,0,1.8-0.9,1.8-1.9
	c0-3.8-3.2-6.9-7.9-8.4v-1c0-1.1-0.8-1.9-1.8-1.9c-1,0-1.8,0.9-1.8,1.9v0.2c-0.7-0.1-1.4-0.1-2.1-0.1c-0.7,0-1.4,0-2.1,0.1v-0.2
	c0-1.1-0.8-1.9-1.8-1.9c-1,0-1.8,0.9-1.8,1.9v1c-4.7,1.4-7.9,4.6-7.9,8.4c0,3.8,3.2,6.9,7.9,8.4v10.4
	C198.4,45.5,196.8,43.9,196.8,42.3L196.8,42.3z M212.5,38c2.6,1,4.2,2.7,4.2,4.3c0,1.6-1.6,3.2-4.2,4.3V38z M204.7,22.6
	c0.7-0.1,1.4-0.1,2.1-0.1s1.4,0,2.1,0.1v10.6c-0.7-0.1-1.4-0.1-2.1-0.1c-0.7,0-1.4,0-2.1-0.1V22.6z M204.7,36.9
	c0.7,0.1,1.4,0.1,2.1,0.1c0.7,0,1.4,0,2.1,0.1v10.4c-0.7,0.1-1.4,0.1-2.1,0.1s-1.4,0-2.1-0.1V36.9z M196.8,27.8
	c0-1.6,1.6-3.2,4.2-4.3v8.6C198.4,31,196.8,29.3,196.8,27.8L196.8,27.8z M196.8,27.8"/>
<g>
	<g>
		<g>
			<g>
				<path class="st96" d="M117.6,68.9c0-2.1-0.5-4.1-1.3-5.9c-0.1-0.5-0.2-0.9-0.3-1.4l-9.3-23l-0.1-0.2
					c-3.2-9.7-7.9-18.6-19.5-18.6H42.3c-12,0-16.2,9.2-19.5,18.5l-9.7,23c-1.4,2.2-2.2,4.8-2.2,7.5v7.1c0,1.1,0.1,2.2,0.4,3.2
					c-0.2,0.6-0.4,1.3-0.4,2v21.2c0,3.1,2.5,5.6,5.6,5.6h11.7c3.1,0,5.6-2.5,5.6-5.6V91.9h61.3v10.6c0,3.1,2.5,5.6,5.6,5.6h11
					c3.1,0,5.6-2.5,5.6-5.6V81.3c0-0.7-0.1-1.4-0.4-2c0.2-1,0.4-2.1,0.4-3.2V68.9z M29.7,40.7c3.7-10.4,6.7-13.6,12.7-13.6h44.7
					c6,0,9.3,3.5,12.6,13.5l6.8,13.7c-2.2-0.8-4.6-1.3-7.2-1.3h-70c-2.3,0-4.5,0.4-6.5,1L29.7,40.7z M35.5,78.8H23.1
					c-2.2,0-4-1.8-4-4c0-2.2,1.8-4,4-4h12.4c2.2,0,4,1.8,4,4C39.5,77,37.7,78.8,35.5,78.8L35.5,78.8z M79.1,78H50.4
					c-1.4,0-2.5-1.1-2.5-2.6c0-1.4,1.1-2.5,2.5-2.5h28.7c1.4,0,2.5,1.1,2.5,2.5C81.7,76.8,80.5,78,79.1,78L79.1,78z M105,78.8H92.7
					c-2.2,0-4-1.8-4-4c0-2.2,1.8-4,4-4H105c2.2,0,4,1.8,4,4C109.1,77,107.3,78.8,105,78.8L105,78.8z M105,78.8"/>
			</g>
			<g>
				<path class="st97" d="M117.6,68.9c0-2.1-0.5-4.1-1.3-5.9c-0.1-0.5-0.2-0.9-0.3-1.4l-9.3-23l-0.1-0.2
					c-3.2-9.7-7.9-18.6-19.5-18.6H42.3c-12,0-16.2,9.2-19.5,18.5l-9.7,23c-1.4,2.2-2.2,4.8-2.2,7.5v7.1c0,1.1,0.1,2.2,0.4,3.2
					c-0.2,0.6-0.4,1.3-0.4,2v21.2c0,3.1,2.5,5.6,5.6,5.6h11.7c3.1,0,5.6-2.5,5.6-5.6V91.9h61.3v10.6c0,3.1,2.5,5.6,5.6,5.6h11
					c3.1,0,5.6-2.5,5.6-5.6V81.3c0-0.7-0.1-1.4-0.4-2c0.2-1,0.4-2.1,0.4-3.2V68.9z M29.7,40.7c3.7-10.4,6.7-13.6,12.7-13.6h44.7
					c6,0,9.3,3.5,12.6,13.5l6.8,13.7c-2.2-0.8-4.6-1.3-7.2-1.3h-70c-2.3,0-4.5,0.4-6.5,1L29.7,40.7z M35.5,78.8H23.1
					c-2.2,0-4-1.8-4-4c0-2.2,1.8-4,4-4h12.4c2.2,0,4,1.8,4,4C39.5,77,37.7,78.8,35.5,78.8L35.5,78.8z M79.1,78H50.4
					c-1.4,0-2.5-1.1-2.5-2.6c0-1.4,1.1-2.5,2.5-2.5h28.7c1.4,0,2.5,1.1,2.5,2.5C81.7,76.8,80.5,78,79.1,78L79.1,78z M105,78.8H92.7
					c-2.2,0-4-1.8-4-4c0-2.2,1.8-4,4-4H105c2.2,0,4,1.8,4,4C109.1,77,107.3,78.8,105,78.8L105,78.8z M105,78.8"/>
			</g>
		</g>
	</g>
</g>
<path class="st95" d="M90.2,239.1v3.9H38.2v-3.9c0-2.2,1.9-3.9,4.3-3.9h8.7c0.2-4.9,3.7-9,8.6-10.6v-46.1c-2.3-1.3-3.8-3.6-3.8-6.2
	h16.3c0,2.6-1.5,4.9-3.8,6.2v46.1c4.9,1.6,8.4,5.7,8.6,10.6h8.7C88.2,235.2,90.2,236.9,90.2,239.1L90.2,239.1z M120.5,203.7
	c-3.2,8.1-11.6,14-21.6,14c-10,0-18.5-5.9-21.6-14h5l14.6-35.2c0.6-1.5,3.4-1.5,4.1,0l14.6,35.2H120.5z M110.9,203.7l-12-28.9
	l-12,28.9H110.9z M29.6,164.5c2,0,3.6-1.2,4.1-2.8c1.4-0.5,2.9-1.2,4.4-1.8c3.3-1.5,7.1-3.2,11-3.2c3.7,0,6.1,1.6,7.4,2.9
	c0,0.3-0.1,0.7-0.1,1c0,3.9,3.5,7.1,7.8,7.1c4.3,0,7.9-3.2,7.9-7.1c0-0.4-0.1-0.7-0.1-1c1.3-1.3,3.7-2.9,7.4-2.9
	c3.9,0,7.7,1.7,11,3.2c1.5,0.7,3,1.4,4.4,1.8c0.6,1.6,2.2,2.8,4.1,2.8c2.4,0,4.4-1.8,4.4-4c0-2.2-2-4-4.4-4c-1.3,0-2.4,0.5-3.1,1.2
	c-1.1-0.4-2.2-0.9-3.4-1.5c-3.7-1.7-8-3.7-12.9-3.7c-4.3,0-7.3,1.5-9.3,3.1c-0.9-0.9-2.1-1.6-3.4-2c1.6-0.8,2.7-2.3,2.7-4.1
	c0-2.6-5.1-8.6-5.1-8.6s-5.1,6-5.1,8.6c0,1.8,1.1,3.3,2.7,4.1c-1.3,0.4-2.5,1.1-3.4,2c-2-1.6-5-3.1-9.3-3.1c-4.9,0-9.2,1.9-12.9,3.7
	c-1.2,0.5-2.3,1.1-3.4,1.5c-0.8-0.8-1.9-1.2-3.1-1.2c-2.4,0-4.4,1.8-4.4,4C25.2,162.7,27.1,164.5,29.6,164.5L29.6,164.5z
	 M29.6,217.7c-10,0-18.5-5.9-21.6-14h5l14.6-35.2c0.6-1.5,3.4-1.5,4.1,0l14.6,35.2h5C48,211.8,39.6,217.7,29.6,217.7L29.6,217.7z
	 M41.6,203.7l-12-28.9l-12,28.9H41.6z M41.6,203.7"/>
<path class="st95" d="M152.3,184.8h8.4v50.8h12.7v-43.5h12.4v43.5h12.7v-43.5h12.4v43.5h12.7v-50.8h8.2c1.3,0,2.3-0.3,3-1
	c0.8-0.7,1.2-1.5,1.2-2.5c0-1.2-0.5-2.1-1.6-2.9v-0.2h-0.2l-39.8-19.4v-5.7c2.3,1,5.9,1.2,10.7,0.4c4.8-0.7,8.9-0.5,12.3,0.7v-12.6
	c-3.3-1.2-7.4-1.4-12.3-0.7c-4.9,0.7-8.5,0.6-10.7-0.4v-0.9c0-1.2-0.7-1.8-2.1-1.8c-1.4,0-2.1,0.6-2.1,1.8v19.2l-39.8,19.4H150v0.2
	c-1.2,0.7-1.9,1.7-1.9,2.9c0,1,0.4,1.9,1.3,2.5C150.3,184.4,151.3,184.8,152.3,184.8L152.3,184.8z M152.3,184.8"/>
<path class="st95" d="M156.6,239.1l-8.4,7.3H236l-8.2-7.3H156.6z M156.6,239.1"/>
<g>
	<g>
		<g>
			<g>
				<path class="st96" d="M373.4,243.8h-0.3l-5.3-39.7c1,0,1.9-1,1.9-2.2c0-1.2-0.9-2.2-1.9-2.2h-6.1V194l5.3-6c0,0,0,0,0,0
					c0,0,0.1-0.1,0.1-0.1c0,0,0,0,0-0.1c0,0,0.1-0.1,0.1-0.1c0,0,0,0,0-0.1c0-0.1,0.1-0.1,0.1-0.2c0,0,0-0.1,0-0.1c0,0,0-0.1,0-0.1
					c0,0,0-0.1,0-0.1c0,0,0-0.1,0-0.1c0,0,0-0.1,0-0.1c0,0,0-0.1,0-0.1c0,0,0-0.1,0-0.1c0,0,0,0,0-0.1c0,0,0,0,0,0c0,0,0-0.1,0-0.1
					c0,0,0-0.1,0-0.1c0,0,0-0.1,0-0.1c0,0,0-0.1,0-0.1c0,0,0-0.1,0-0.1c0,0,0-0.1,0-0.1c0,0,0-0.1,0-0.1c0,0,0-0.1,0-0.1
					c0,0,0-0.1,0-0.1c0,0,0-0.1,0-0.1c0,0,0-0.1,0-0.1c0,0,0-0.1,0-0.1c0,0,0-0.1,0-0.1c0,0,0-0.1,0-0.1c0,0,0-0.1-0.1-0.1
					c0,0,0-0.1-0.1-0.1c0,0,0,0,0-0.1c0-0.1-0.1-0.1-0.1-0.2c0,0,0,0,0,0c0,0,0,0,0,0c0,0-0.1-0.1-0.1-0.1c0,0,0,0-0.1,0
					c0,0-0.1-0.1-0.1-0.1c0,0,0,0-0.1,0c0,0-0.1,0-0.1-0.1c0,0-0.1,0-0.1,0c0,0-0.1,0-0.1,0c0,0-0.1,0-0.1,0c0,0-0.1,0-0.1,0
					c0,0-0.1,0-0.1,0c0,0,0,0,0,0c-2.4-0.7-8.6-3-12.3-6.4l8.8-5c0,0,0,0,0,0c0,0,0,0,0.1,0c0,0,0,0,0.1,0c0,0,0,0,0.1,0
					c0,0,0,0,0,0c0,0,0,0,0.1,0c0,0,0,0,0.1-0.1c0,0,0,0,0,0c0,0,0,0,0,0c0,0,0,0,0.1-0.1c0,0,0,0,0,0c0,0,0,0,0,0c0,0,0,0,0,0
					c0,0,0-0.1,0.1-0.1c0,0,0,0,0-0.1c0,0,0-0.1,0.1-0.1c0,0,0,0,0,0c0,0,0,0,0-0.1c0,0,0-0.1,0-0.1c0,0,0,0,0,0c0,0,0-0.1,0-0.1
					c0,0,0-0.1,0-0.1c0,0,0,0,0,0c0,0,0-0.1,0-0.1c0,0,0,0,0-0.1c0,0,0,0,0,0c0,0,0-0.1,0-0.1c0,0,0,0,0-0.1c0,0,0,0,0-0.1
					c0,0,0-0.1,0-0.1c0,0,0,0,0,0c0,0,0,0,0,0c0,0,0-0.1,0-0.1c0,0,0-0.1,0-0.1c0,0,0,0,0-0.1c0,0,0-0.1,0-0.1c0,0,0,0,0,0s0,0,0,0
					c0,0,0,0,0-0.1c0,0,0-0.1,0-0.1c0,0,0,0,0-0.1c0,0,0,0,0-0.1c0,0,0-0.1,0-0.1c0,0,0-0.1,0-0.1c0,0,0,0,0-0.1c0,0,0,0,0-0.1
					c0,0,0-0.1,0-0.1c0,0,0,0,0-0.1c0,0,0,0,0-0.1c0,0,0-0.1,0-0.1c0,0,0,0,0-0.1c0,0,0,0,0,0c0,0,0,0,0,0c0,0,0,0,0,0
					c0,0,0,0,0-0.1c0,0,0,0,0,0l0,0c0,0,0,0,0-0.1c0,0,0,0,0-0.1c0,0,0,0,0,0c0,0,0-0.1-0.1-0.1c0,0,0,0,0,0c0,0,0,0,0,0
					c0,0,0-0.1-0.1-0.1c0,0,0,0,0,0c0,0,0,0,0,0c0,0,0,0-0.1-0.1c0,0,0,0,0,0c0,0,0,0-0.1,0c0,0,0,0-0.1-0.1c0,0,0,0,0,0
					c0,0,0,0-0.1,0c0,0,0,0-0.1,0c0,0,0,0,0,0c0,0-0.1,0-0.1,0c0,0,0,0,0,0c0,0,0,0,0,0c0,0,0,0-0.1,0c0,0,0,0,0,0c0,0,0,0-0.1,0
					c0,0,0,0-0.1,0c0,0,0,0-0.1,0c0,0,0,0-0.1,0c0,0,0,0-0.1,0c0,0,0,0,0,0c-0.3-0.1-26.5-5.4-41.2-22.9v-1.3c0-1.2-0.9-2.2-1.9-2.2
					c-1.1,0-1.9,1-1.9,2.2v1.3c-14.6,17.5-40.9,22.9-41.2,22.9c0,0,0,0-0.1,0c0,0-0.1,0-0.1,0c0,0-0.1,0-0.1,0c0,0-0.1,0-0.1,0
					c0,0-0.1,0-0.1,0c0,0,0,0-0.1,0c0,0-0.1,0-0.1,0.1c0,0,0,0-0.1,0c0,0-0.1,0-0.1,0.1c0,0,0,0-0.1,0.1c0,0,0,0-0.1,0.1
					c0,0-0.1,0-0.1,0.1c0,0,0,0-0.1,0.1c0,0-0.1,0.1-0.1,0.1c0,0,0,0-0.1,0.1c0,0,0,0.1-0.1,0.1c0,0-0.1,0.1-0.1,0.1c0,0,0,0,0,0.1
					c0,0.1-0.1,0.1-0.1,0.2c0,0,0,0,0,0c0,0,0,0,0,0c0,0,0,0.1-0.1,0.1c0,0,0,0,0,0.1c0,0,0,0.1,0,0.1c0,0,0,0.1,0,0.1
					c0,0,0,0.1,0,0.1c0,0,0,0.1,0,0.1c0,0,0,0.1,0,0.1c0,0,0,0.1,0,0.1c0,0,0,0.1,0,0.1c0,0,0,0.1,0,0.1c0,0,0,0,0,0.1c0,0,0,0,0,0
					c0,0,0,0.1,0,0.1c0,0,0,0.1,0,0.1c0,0,0,0.1,0,0.1c0,0,0,0.1,0,0.1c0,0,0,0.1,0,0.1c0,0,0,0.1,0,0.1c0,0,0,0.1,0,0.1
					c0,0,0,0.1,0,0.1c0,0,0,0.1,0,0.1c0,0,0,0.1,0.1,0.1c0,0,0,0.1,0.1,0.1c0,0,0,0.1,0.1,0.1c0,0,0,0.1,0.1,0.1c0,0,0,0,0.1,0.1
					c0,0,0,0.1,0.1,0.1c0,0,0,0,0.1,0.1c0,0,0,0,0.1,0.1c0,0,0.1,0.1,0.1,0.1c0,0,0,0,0,0c0.1,0,0.1,0.1,0.2,0.1l0,0l8.8,5
					c-3.6,3.3-9.8,5.7-12.3,6.4c0,0,0,0,0,0c0,0-0.1,0-0.1,0c0,0-0.1,0-0.1,0c0,0-0.1,0-0.1,0c0,0-0.1,0-0.1,0c0,0-0.1,0-0.1,0
					c0,0-0.1,0-0.1,0.1c0,0,0,0-0.1,0.1c0,0-0.1,0-0.1,0.1c0,0,0,0-0.1,0.1c0,0-0.1,0.1-0.1,0.1c0,0,0,0,0,0c0,0,0,0,0,0
					c0,0-0.1,0.1-0.1,0.2c0,0,0,0,0,0.1c0,0,0,0.1-0.1,0.1c0,0,0,0.1-0.1,0.1c0,0,0,0.1,0,0.1c0,0,0,0.1,0,0.1c0,0,0,0.1,0,0.1
					c0,0,0,0.1,0,0.1c0,0,0,0.1,0,0.1c0,0,0,0.1,0,0.1c0,0,0,0.1,0,0.1c0,0,0,0.1,0,0.1c0,0,0,0.1,0,0.1c0,0,0,0.1,0,0.1
					c0,0,0,0.1,0,0.1c0,0,0,0.1,0,0.1c0,0,0,0.1,0,0.1c0,0,0,0.1,0,0.1c0,0,0,0,0,0c0,0,0,0,0,0.1c0,0,0,0.1,0,0.1c0,0,0,0.1,0,0.1
					c0,0,0,0.1,0,0.1c0,0,0,0.1,0,0.1c0,0,0,0.1,0,0.1c0,0,0,0.1,0,0.1c0,0,0,0.1,0,0.1c0,0,0,0.1,0.1,0.1c0,0,0,0.1,0.1,0.1
					c0,0,0,0.1,0.1,0.1c0,0,0,0,0,0.1c0,0,0.1,0.1,0.1,0.1c0,0,0,0,0,0l5.3,6v5.7h-3.9c-1.1,0-1.9,1-1.9,2.2c0,1.1,0.7,2,1.6,2.2
					l-5.3,39.7h-0.3c-1.1,0-1.9,1-1.9,2.2c0,1.2,0.9,2.2,1.9,2.2h1.9c0,0,0,0,0,0c0,0,0,0,0,0h103c0,0,0,0,0,0s0,0,0,0h1.9
					c1.1,0,1.9-1,1.9-2.2C375.4,244.8,374.5,243.8,373.4,243.8L373.4,243.8z M342.3,204.1H364l5.2,39.7h-26.9V204.1z M278.9,190.9
					l-1.9-2.2h83.9l-1.9,2.2H278.9z M288.3,175.5l-3.9-2.2h69.1l-3.9,2.2H288.3z M292.6,168c13.4-5.7,21.6-12.7,26.4-18.1
					c8,9.1,18.6,14.8,26.4,18.1c0.7,0.3,1.3,0.5,1.9,0.8h-56.7C291.3,168.6,291.9,168.3,292.6,168L292.6,168z M288,179.9h61.9
					c1.4,1.7,3.4,3.2,5.4,4.4h-72.6C284.6,183.1,286.6,181.6,288,179.9L288,179.9z M280.1,195.3h77.8v4.4h-17.3c0,0-0.1,0-0.1,0
					c0,0-0.1,0-0.1,0c-1.1,0-1.9,1-1.9,2.2v41.9h-5.8v-20.9c0-7.9-5.7-14.3-12.6-14.3c-7,0-12.6,6.4-12.6,14.3v20.9h-5.8v-41.9
					c0-1.2-0.9-2.2-1.9-2.2h-19.4V195.3z M328.7,243.8h-17.5v-20.9c0-5.5,3.9-9.9,8.7-9.9c4.8,0,8.8,4.4,8.8,9.9V243.8z
					 M275.9,204.1h21.7v39.7h-26.9L275.9,204.1z M275.9,204.1"/>
			</g>
			<g>
				<path class="st97" d="M373.4,243.8h-0.3l-5.3-39.7c1,0,1.9-1,1.9-2.2c0-1.2-0.9-2.2-1.9-2.2h-6.1V194l5.3-6c0,0,0,0,0,0
					c0,0,0.1-0.1,0.1-0.1c0,0,0,0,0-0.1c0,0,0.1-0.1,0.1-0.1c0,0,0,0,0-0.1c0-0.1,0.1-0.1,0.1-0.2c0,0,0-0.1,0-0.1c0,0,0-0.1,0-0.1
					c0,0,0-0.1,0-0.1c0,0,0-0.1,0-0.1c0,0,0-0.1,0-0.1c0,0,0-0.1,0-0.1c0,0,0-0.1,0-0.1c0,0,0,0,0-0.1c0,0,0,0,0,0c0,0,0-0.1,0-0.1
					c0,0,0-0.1,0-0.1c0,0,0-0.1,0-0.1c0,0,0-0.1,0-0.1c0,0,0-0.1,0-0.1c0,0,0-0.1,0-0.1c0,0,0-0.1,0-0.1c0,0,0-0.1,0-0.1
					c0,0,0-0.1,0-0.1c0,0,0-0.1,0-0.1c0,0,0-0.1,0-0.1c0,0,0-0.1,0-0.1c0,0,0-0.1,0-0.1c0,0,0-0.1,0-0.1c0,0,0-0.1-0.1-0.1
					c0,0,0-0.1-0.1-0.1c0,0,0,0,0-0.1c0-0.1-0.1-0.1-0.1-0.2c0,0,0,0,0,0c0,0,0,0,0,0c0,0-0.1-0.1-0.1-0.1c0,0,0,0-0.1,0
					c0,0-0.1-0.1-0.1-0.1c0,0,0,0-0.1,0c0,0-0.1,0-0.1-0.1c0,0-0.1,0-0.1,0c0,0-0.1,0-0.1,0c0,0-0.1,0-0.1,0c0,0-0.1,0-0.1,0
					c0,0-0.1,0-0.1,0c0,0,0,0,0,0c-2.4-0.7-8.6-3-12.3-6.4l8.8-5c0,0,0,0,0,0c0,0,0,0,0.1,0c0,0,0,0,0.1,0c0,0,0,0,0.1,0
					c0,0,0,0,0,0c0,0,0,0,0.1,0c0,0,0,0,0.1-0.1c0,0,0,0,0,0c0,0,0,0,0,0c0,0,0,0,0.1-0.1c0,0,0,0,0,0c0,0,0,0,0,0c0,0,0,0,0,0
					c0,0,0-0.1,0.1-0.1c0,0,0,0,0-0.1c0,0,0-0.1,0.1-0.1c0,0,0,0,0,0c0,0,0,0,0-0.1c0,0,0-0.1,0-0.1c0,0,0,0,0,0c0,0,0-0.1,0-0.1
					c0,0,0-0.1,0-0.1c0,0,0,0,0,0c0,0,0-0.1,0-0.1c0,0,0,0,0-0.1c0,0,0,0,0,0c0,0,0-0.1,0-0.1c0,0,0,0,0-0.1c0,0,0,0,0-0.1
					c0,0,0-0.1,0-0.1c0,0,0,0,0,0c0,0,0,0,0,0c0,0,0-0.1,0-0.1c0,0,0-0.1,0-0.1c0,0,0,0,0-0.1c0,0,0-0.1,0-0.1c0,0,0,0,0,0s0,0,0,0
					c0,0,0,0,0-0.1c0,0,0-0.1,0-0.1c0,0,0,0,0-0.1c0,0,0,0,0-0.1c0,0,0-0.1,0-0.1c0,0,0-0.1,0-0.1c0,0,0,0,0-0.1c0,0,0,0,0-0.1
					c0,0,0-0.1,0-0.1c0,0,0,0,0-0.1c0,0,0,0,0-0.1c0,0,0-0.1,0-0.1c0,0,0,0,0-0.1c0,0,0,0,0,0c0,0,0,0,0,0c0,0,0,0,0,0
					c0,0,0,0,0-0.1c0,0,0,0,0,0l0,0c0,0,0,0,0-0.1c0,0,0,0,0-0.1c0,0,0,0,0,0c0,0,0-0.1-0.1-0.1c0,0,0,0,0,0c0,0,0,0,0,0
					c0,0,0-0.1-0.1-0.1c0,0,0,0,0,0c0,0,0,0,0,0c0,0,0,0-0.1-0.1c0,0,0,0,0,0c0,0,0,0-0.1,0c0,0,0,0-0.1-0.1c0,0,0,0,0,0
					c0,0,0,0-0.1,0c0,0,0,0-0.1,0c0,0,0,0,0,0c0,0-0.1,0-0.1,0c0,0,0,0,0,0c0,0,0,0,0,0c0,0,0,0-0.1,0c0,0,0,0,0,0c0,0,0,0-0.1,0
					c0,0,0,0-0.1,0c0,0,0,0-0.1,0c0,0,0,0-0.1,0c0,0,0,0-0.1,0c0,0,0,0,0,0c-0.3-0.1-26.5-5.4-41.2-22.9v-1.3c0-1.2-0.9-2.2-1.9-2.2
					c-1.1,0-1.9,1-1.9,2.2v1.3c-14.6,17.5-40.9,22.9-41.2,22.9c0,0,0,0-0.1,0c0,0-0.1,0-0.1,0c0,0-0.1,0-0.1,0c0,0-0.1,0-0.1,0
					c0,0-0.1,0-0.1,0c0,0,0,0-0.1,0c0,0-0.1,0-0.1,0.1c0,0,0,0-0.1,0c0,0-0.1,0-0.1,0.1c0,0,0,0-0.1,0.1c0,0,0,0-0.1,0.1
					c0,0-0.1,0-0.1,0.1c0,0,0,0-0.1,0.1c0,0-0.1,0.1-0.1,0.1c0,0,0,0-0.1,0.1c0,0,0,0.1-0.1,0.1c0,0-0.1,0.1-0.1,0.1c0,0,0,0,0,0.1
					c0,0.1-0.1,0.1-0.1,0.2c0,0,0,0,0,0c0,0,0,0,0,0c0,0,0,0.1-0.1,0.1c0,0,0,0,0,0.1c0,0,0,0.1,0,0.1c0,0,0,0.1,0,0.1
					c0,0,0,0.1,0,0.1c0,0,0,0.1,0,0.1c0,0,0,0.1,0,0.1c0,0,0,0.1,0,0.1c0,0,0,0.1,0,0.1c0,0,0,0.1,0,0.1c0,0,0,0,0,0.1c0,0,0,0,0,0
					c0,0,0,0.1,0,0.1c0,0,0,0.1,0,0.1c0,0,0,0.1,0,0.1c0,0,0,0.1,0,0.1c0,0,0,0.1,0,0.1c0,0,0,0.1,0,0.1c0,0,0,0.1,0,0.1
					c0,0,0,0.1,0,0.1c0,0,0,0.1,0,0.1c0,0,0,0.1,0.1,0.1c0,0,0,0.1,0.1,0.1c0,0,0,0.1,0.1,0.1c0,0,0,0.1,0.1,0.1c0,0,0,0,0.1,0.1
					c0,0,0,0.1,0.1,0.1c0,0,0,0,0.1,0.1c0,0,0,0,0.1,0.1c0,0,0.1,0.1,0.1,0.1c0,0,0,0,0,0c0.1,0,0.1,0.1,0.2,0.1l0,0l8.8,5
					c-3.6,3.3-9.8,5.7-12.3,6.4c0,0,0,0,0,0c0,0-0.1,0-0.1,0c0,0-0.1,0-0.1,0c0,0-0.1,0-0.1,0c0,0-0.1,0-0.1,0c0,0-0.1,0-0.1,0
					c0,0-0.1,0-0.1,0.1c0,0,0,0-0.1,0.1c0,0-0.1,0-0.1,0.1c0,0,0,0-0.1,0.1c0,0-0.1,0.1-0.1,0.1c0,0,0,0,0,0c0,0,0,0,0,0
					c0,0-0.1,0.1-0.1,0.2c0,0,0,0,0,0.1c0,0,0,0.1-0.1,0.1c0,0,0,0.1-0.1,0.1c0,0,0,0.1,0,0.1c0,0,0,0.1,0,0.1c0,0,0,0.1,0,0.1
					c0,0,0,0.1,0,0.1c0,0,0,0.1,0,0.1c0,0,0,0.1,0,0.1c0,0,0,0.1,0,0.1c0,0,0,0.1,0,0.1c0,0,0,0.1,0,0.1c0,0,0,0.1,0,0.1
					c0,0,0,0.1,0,0.1c0,0,0,0.1,0,0.1c0,0,0,0.1,0,0.1c0,0,0,0.1,0,0.1c0,0,0,0,0,0c0,0,0,0,0,0.1c0,0,0,0.1,0,0.1c0,0,0,0.1,0,0.1
					c0,0,0,0.1,0,0.1c0,0,0,0.1,0,0.1c0,0,0,0.1,0,0.1c0,0,0,0.1,0,0.1c0,0,0,0.1,0,0.1c0,0,0,0.1,0.1,0.1c0,0,0,0.1,0.1,0.1
					c0,0,0,0.1,0.1,0.1c0,0,0,0,0,0.1c0,0,0.1,0.1,0.1,0.1c0,0,0,0,0,0l5.3,6v5.7h-3.9c-1.1,0-1.9,1-1.9,2.2c0,1.1,0.7,2,1.6,2.2
					l-5.3,39.7h-0.3c-1.1,0-1.9,1-1.9,2.2c0,1.2,0.9,2.2,1.9,2.2h1.9c0,0,0,0,0,0c0,0,0,0,0,0h103c0,0,0,0,0,0s0,0,0,0h1.9
					c1.1,0,1.9-1,1.9-2.2C375.4,244.8,374.5,243.8,373.4,243.8L373.4,243.8z M342.3,204.1H364l5.2,39.7h-26.9V204.1z M278.9,190.9
					l-1.9-2.2h83.9l-1.9,2.2H278.9z M288.3,175.5l-3.9-2.2h69.1l-3.9,2.2H288.3z M292.6,168c13.4-5.7,21.6-12.7,26.4-18.1
					c8,9.1,18.6,14.8,26.4,18.1c0.7,0.3,1.3,0.5,1.9,0.8h-56.7C291.3,168.6,291.9,168.3,292.6,168L292.6,168z M288,179.9h61.9
					c1.4,1.7,3.4,3.2,5.4,4.4h-72.6C284.6,183.1,286.6,181.6,288,179.9L288,179.9z M280.1,195.3h77.8v4.4h-17.3c0,0-0.1,0-0.1,0
					c0,0-0.1,0-0.1,0c-1.1,0-1.9,1-1.9,2.2v41.9h-5.8v-20.9c0-7.9-5.7-14.3-12.6-14.3c-7,0-12.6,6.4-12.6,14.3v20.9h-5.8v-41.9
					c0-1.2-0.9-2.2-1.9-2.2h-19.4V195.3z M328.7,243.8h-17.5v-20.9c0-5.5,3.9-9.9,8.7-9.9c4.8,0,8.8,4.4,8.8,9.9V243.8z
					 M275.9,204.1h21.7v39.7h-26.9L275.9,204.1z M275.9,204.1"/>
			</g>
		</g>
	</g>
</g>
<path class="st95" d="M319,140.2c0.5,0,1-0.2,1.4-0.6c0.4-0.4,0.6-1,0.6-1.6c0-0.6-0.2-1.1-0.6-1.6c-0.4-0.4-0.9-0.6-1.4-0.6
	c-0.5,0-1,0.2-1.4,0.6c-0.4,0.4-0.6,1-0.6,1.6c0,0.6,0.2,1.1,0.6,1.6C318,140,318.5,140.2,319,140.2L319,140.2z M319,140.2"/>
<g>
	<g>
		<g>
			<g>
				<path class="st96" d="M503.5,190.1c0,26-18.9,47.6-43.4,51.4c0.2-1.2,0.3-2.3,0.1-3.6c0,0-0.1-1.3-0.3-2.9
					c8.7-1.5,16.6-5.6,22.8-11.4c-0.4-0.3-0.7-0.7-1.1-1.3c-1.7-2.5,0.5-4.9,0.5-7c0-2.1-4.2-1.9-4.3-3.3c-0.5-4.8,2.9-4.9,4.8-6.8
					c1.8-1.9-1.8-6.1-4.2-5.8c-2.4,0.3-9.1-1.1-8.4-6.3c0.7-6.3-7.9-5.8-9.2-8.7c-1.8-4.3,1.2-9.6,5.1-10.8
					c5.6-1.7,11-6.3,10.6-11.4c-0.5-5.8-3.1-11.1-7.3-14.2c-4.4-1.8-9.2-3-14.2-3.2c-4.5,0.2-8.4,1.2-8.2,3.3
					c0.4,5.1,14.7,6.4,12.3,11.2c-1.2,2.5-10.6,6-8.9,9.7c1.1,2.4,3.9,0.3,2.9,5c-0.5,2.1-2.3,6.1-5.1,6.4
					c-2.9,0.3-5.3-7.5-13.1-7.7c-3.7-0.1-8.9,5.9-4.5,10.1c2.7,2.6,7.7-3.1,9.2,1.3c1,3.1-0.1,9.7,4.8,12.4c1.8,1,4.5,1.9,7.2,3.3
					c-4,0.8-8.9,2.4-14.8,4.7l-4.9-1.3c2.1-1.7,5.4-3,4.6-6.8c-1.2-5.6-10.8-3.5-17.3-10.1c-2-2-6.3-8.8-6.3-17
					c-3.3,6.3-5.1,13.5-5.1,21.1c0,2.3,0.2,4.7,0.5,6.9c-0.1,0-0.2,0-0.2,0c-2.1,0-4.1,0.4-6,1.3c-0.4-2.7-0.6-5.4-0.6-8.2
					c0-28.6,22.9-52,51.1-52C480.5,138.2,503.5,161.5,503.5,190.1L503.5,190.1z M465.1,205.3l-12.5,5.8l0.2-2.8l8.1-3.7
					c-1.2-0.1-2.3-0.1-3.5-0.1c-4.5,0-12,2.3-20.4,5.7l-26.8-7.2c-2.5-0.7-5.2-0.3-7.4,1.1l-1.3,0.8c-1.3,0.8-1.3,2.7,0,3.6
					l16.1,10.6c-3.8,2-7.5,4-10.7,6l-8.3-4.4c-1.4-0.7-2.9-0.8-4.4-0.2l-0.8,0.3c-1.2,0.5-1.7,1.9-1,3l4.6,8.2l0,0
					c-1.7,1.5-2.7,2.7-2.7,3.6c0,2.6,3.1,3.2,5.9,3.2c4.9,0,69.8-15.1,69.8-28.8C469.9,207.3,468.1,206,465.1,205.3L465.1,205.3z
					 M437.8,232l14.3-5.1c0.6-0.2,1.3,0.2,1.4,0.9l1.3,10.9c0.3,2.7-1.1,5.3-3.6,6.5l-1.3,0.6c-0.8,0.4-1.8,0.2-2.4-0.5l-10-11.5
					C436.8,233.1,437.1,232.2,437.8,232L437.8,232z M437.8,232"/>
			</g>
			<g>
				<path class="st97" d="M503.5,190.1c0,26-18.9,47.6-43.4,51.4c0.2-1.2,0.3-2.3,0.1-3.6c0,0-0.1-1.3-0.3-2.9
					c8.7-1.5,16.6-5.6,22.8-11.4c-0.4-0.3-0.7-0.7-1.1-1.3c-1.7-2.5,0.5-4.9,0.5-7c0-2.1-4.2-1.9-4.3-3.3c-0.5-4.8,2.9-4.9,4.8-6.8
					c1.8-1.9-1.8-6.1-4.2-5.8c-2.4,0.3-9.1-1.1-8.4-6.3c0.7-6.3-7.9-5.8-9.2-8.7c-1.8-4.3,1.2-9.6,5.1-10.8
					c5.6-1.7,11-6.3,10.6-11.4c-0.5-5.8-3.1-11.1-7.3-14.2c-4.4-1.8-9.2-3-14.2-3.2c-4.5,0.2-8.4,1.2-8.2,3.3
					c0.4,5.1,14.7,6.4,12.3,11.2c-1.2,2.5-10.6,6-8.9,9.7c1.1,2.4,3.9,0.3,2.9,5c-0.5,2.1-2.3,6.1-5.1,6.4
					c-2.9,0.3-5.3-7.5-13.1-7.7c-3.7-0.1-8.9,5.9-4.5,10.1c2.7,2.6,7.7-3.1,9.2,1.3c1,3.1-0.1,9.7,4.8,12.4c1.8,1,4.5,1.9,7.2,3.3
					c-4,0.8-8.9,2.4-14.8,4.7l-4.9-1.3c2.1-1.7,5.4-3,4.6-6.8c-1.2-5.6-10.8-3.5-17.3-10.1c-2-2-6.3-8.8-6.3-17
					c-3.3,6.3-5.1,13.5-5.1,21.1c0,2.3,0.2,4.7,0.5,6.9c-0.1,0-0.2,0-0.2,0c-2.1,0-4.1,0.4-6,1.3c-0.4-2.7-0.6-5.4-0.6-8.2
					c0-28.6,22.9-52,51.1-52C480.5,138.2,503.5,161.5,503.5,190.1L503.5,190.1z M465.1,205.3l-12.5,5.8l0.2-2.8l8.1-3.7
					c-1.2-0.1-2.3-0.1-3.5-0.1c-4.5,0-12,2.3-20.4,5.7l-26.8-7.2c-2.5-0.7-5.2-0.3-7.4,1.1l-1.3,0.8c-1.3,0.8-1.3,2.7,0,3.6
					l16.1,10.6c-3.8,2-7.5,4-10.7,6l-8.3-4.4c-1.4-0.7-2.9-0.8-4.4-0.2l-0.8,0.3c-1.2,0.5-1.7,1.9-1,3l4.6,8.2l0,0
					c-1.7,1.5-2.7,2.7-2.7,3.6c0,2.6,3.1,3.2,5.9,3.2c4.9,0,69.8-15.1,69.8-28.8C469.9,207.3,468.1,206,465.1,205.3L465.1,205.3z
					 M437.8,232l14.3-5.1c0.6-0.2,1.3,0.2,1.4,0.9l1.3,10.9c0.3,2.7-1.1,5.3-3.6,6.5l-1.3,0.6c-0.8,0.4-1.8,0.2-2.4-0.5l-10-11.5
					C436.8,233.1,437.1,232.2,437.8,232L437.8,232z M437.8,232"/>
			</g>
		</g>
	</g>
</g>
<path class="st95" d="M116.1,277.9c1.7,0,3.1,1.4,3.1,3.2v77.6c0,1.7-1.4,3.2-3.1,3.2H12.2c-1.7,0-3.1-1.4-3.1-3.2v-77.6
	c0-1.7,1.4-3.2,3.1-3.2H116.1z M64.2,321.7l23.6-20.6l19.3-16.9H21.3l19.3,16.9L64.2,321.7z M91.8,305.8l-25.6,22.4
	c-1.1,1-2.9,1.1-4.1,0l-25.6-22.4l-21.2-18.5v65.2L36.5,334l11.9-10.3c1.3-1.2,3.3-1,4.4,0.3c1.2,1.3,1,3.3-0.3,4.4l-11.9,10.4
	l-19.3,16.8H107l-19.3-16.8l-11.9-10.4c-1.3-1.1-1.4-3.1-0.3-4.4c1.2-1.3,3.1-1.5,4.4-0.3L91.8,334l21.2,18.5v-65.2L91.8,305.8z
	 M91.8,305.8"/>
<g>
	<g>
		<g>
			<g>
				<path class="st96" d="M235,266.9h-85.9c-1.1,0-1.9,0.8-1.9,1.7v102.5c0,0.9,0.9,1.7,1.9,1.7H235c1.1,0,1.9-0.8,1.9-1.7V268.6
					C236.9,267.7,236.1,266.9,235,266.9L235,266.9z M151,272.7l4.3,3.9v86.4L151,367V272.7z M159.2,362.1v-84.4h65.7v84.4H159.2z
					 M226,274.2h-67.9l-4.3-3.9h76.6L226,274.2z M158.1,365.5H226l4.3,3.9h-76.6L158.1,365.5z M228.7,363.1v-86.4l4.3-3.9V367
					L228.7,363.1z M228.7,363.1"/>
			</g>
			<g>
				<path class="st97" d="M235,266.9h-85.9c-1.1,0-1.9,0.8-1.9,1.7v102.5c0,0.9,0.9,1.7,1.9,1.7H235c1.1,0,1.9-0.8,1.9-1.7V268.6
					C236.9,267.7,236.1,266.9,235,266.9L235,266.9z M151,272.7l4.3,3.9v86.4L151,367V272.7z M159.2,362.1v-84.4h65.7v84.4H159.2z
					 M226,274.2h-67.9l-4.3-3.9h76.6L226,274.2z M158.1,365.5H226l4.3,3.9h-76.6L158.1,365.5z M228.7,363.1v-86.4l4.3-3.9V367
					L228.7,363.1z M228.7,363.1"/>
			</g>
		</g>
	</g>
</g>
<path class="st95" d="M218.6,281.5h-53.2c-1.1,0-1.9,0.8-1.9,1.7v73.2c0,0.9,0.9,1.7,1.9,1.7h53.2c1.1,0,1.9-0.8,1.9-1.7v-73.2
	C220.6,282.3,219.7,281.5,218.6,281.5L218.6,281.5z M186.7,320.1c-0.7-0.3-1.5-0.1-2.1,0.4l-0.9,0.8c-2.1,1.9-5.6,1.9-7.7,0
	c-1.4-1.2-1.9-3-1.4-4.6l7.3-26.3l2.7,9.8c-0.2,0-0.5-0.1-0.7-0.1c-2,0-3.7,1.5-3.7,3.3c0,1.8,1.7,3.3,3.7,3.3
	c0.9,0,1.7-0.3,2.3-0.7l6,21.3h-4.3v-5.6C187.8,321,187.4,320.4,186.7,320.1L186.7,320.1z M184,303.4c0,0.1-0.1,0.1-0.1,0.1
	c-0.1,0-0.1-0.1-0.1-0.1c0-0.1,0.1-0.1,0.1-0.1C184,303.3,184,303.3,184,303.4L184,303.4z M185.9,348.9c4,0,7.3,2.5,8.1,5.9h-16.2
	C178.6,351.4,181.9,348.9,185.9,348.9L185.9,348.9z M187.8,345.6v-5.3l8.4,1.5l3.6,13h-1.9C197.2,350.1,193.1,346.3,187.8,345.6
	L187.8,345.6z M190.2,337.2l3.9-2.9l1.1,3.8L190.2,337.2z M203.2,352.8l-5.9-21l2-1.5c0.6-0.5,0.9-1.2,0.6-1.9
	c-0.3-0.7-1-1.1-1.8-1.1h-2.1l-4.5-16.2c2.8,1.9,6.6,3.1,10.6,3.1c4.5,0,8.8-1.5,11.6-3.9c1.9,4.5,2.9,9.3,2.9,14.1
	C216.7,335.2,211.8,345.4,203.2,352.8L203.2,352.8z M212,307c-0.6,0.6-1.3,1.2-2,1.7c0.1-0.5,0.2-1.1,0.2-1.7c0-0.6-0.1-1.1-0.2-1.7
	C210.7,305.9,211.4,306.4,212,307L212,307z M206.3,307c0,2.1-1.9,3.7-4.2,3.7c-2.3,0-4.2-1.7-4.2-3.7c0-2.1,1.9-3.7,4.2-3.7
	C204.4,303.3,206.3,305,206.3,307L206.3,307z M194.4,308.7c-0.8-0.5-1.5-1-2-1.7c0.6-0.6,1.3-1.2,2-1.7c-0.1,0.5-0.2,1.1-0.2,1.7
	C194.2,307.6,194.3,308.2,194.4,308.7L194.4,308.7z M202.2,299.9c-4.9,0-9.6,1.8-12.4,4.6l-5-18c8.5,2.2,16.2,6.7,21.9,12.8
	c0.4,0.5,0.8,0.9,1.2,1.4C206.1,300.2,204.1,299.9,202.2,299.9L202.2,299.9z M167.4,285h12l-8.6,30.9c-0.8,2.8,0.1,5.8,2.4,7.9
	c2.9,2.6,7.3,3.1,10.8,1.5v3.8c0,0.9,0.9,1.7,1.9,1.7h7l-8.2,6.1c-0.4,0.3-0.7,0.8-0.7,1.3v7.4c-5.2,0.7-9.3,4.5-10.1,9.2h-6.5V285z
	 M216.7,354.8h-10.2c4.4-3.9,7.8-8.5,10.2-13.5V354.8z M209.6,297.1c-4.9-5.3-11.2-9.5-18.2-12.2h25.3v22.7
	C214.9,303.9,212.5,300.3,209.6,297.1L209.6,297.1z M209.6,297.1"/>
<g>
	<g>
		<g>
			<g>
				<path class="st96" d="M362.9,292.5h-17.1c0.6-0.7,0.9-1.6,0.9-2.6c0-1.1-0.4-2.2-1.2-2.9l-23-23c-1.6-1.6-4.3-1.6-5.9,0l-23,23
					c-0.8,0.8-1.2,1.8-1.2,2.9c0,0.9,0.3,1.8,0.9,2.6h-17.1c-2.3,0-4.2,1.9-4.2,4.2v75.7c0,2.3,1.9,4.2,4.2,4.2h86.6
					c2.3,0,4.2-1.9,4.2-4.2v-75.7C367,294.4,365.2,292.5,362.9,292.5L362.9,292.5z M319.6,272.9l17.1,17.1l-3.8,3.8c0,0,0,0,0,0
					L319.6,307l-13.3-13.3l0,0l-3.8-3.8L319.6,272.9z M280.5,300.8h21.2l7.9,7.9H298c-2.3,0-4.2,1.9-4.2,4.2c0,2.3,1.9,4.2,4.2,4.2
					h43.3c2.3,0,4.2-1.9,4.2-4.2c0-2.3-1.9-4.2-4.2-4.2h-11.6l7.9-7.9h21.2V325h-78.3V300.8z M358.7,368.2h-78.3v-35h78.3V368.2z
					 M358.7,368.2"/>
			</g>
			<g>
				<path class="st97" d="M362.9,292.5h-17.1c0.6-0.7,0.9-1.6,0.9-2.6c0-1.1-0.4-2.2-1.2-2.9l-23-23c-1.6-1.6-4.3-1.6-5.9,0l-23,23
					c-0.8,0.8-1.2,1.8-1.2,2.9c0,0.9,0.3,1.8,0.9,2.6h-17.1c-2.3,0-4.2,1.9-4.2,4.2v75.7c0,2.3,1.9,4.2,4.2,4.2h86.6
					c2.3,0,4.2-1.9,4.2-4.2v-75.7C367,294.4,365.2,292.5,362.9,292.5L362.9,292.5z M319.6,272.9l17.1,17.1l-3.8,3.8c0,0,0,0,0,0
					L319.6,307l-13.3-13.3l0,0l-3.8-3.8L319.6,272.9z M280.5,300.8h21.2l7.9,7.9H298c-2.3,0-4.2,1.9-4.2,4.2c0,2.3,1.9,4.2,4.2,4.2
					h43.3c2.3,0,4.2-1.9,4.2-4.2c0-2.3-1.9-4.2-4.2-4.2h-11.6l7.9-7.9h21.2V325h-78.3V300.8z M358.7,368.2h-78.3v-35h78.3V368.2z
					 M358.7,368.2"/>
			</g>
		</g>
	</g>
</g>
<g>
	<g>
		<g>
			<g>
				<path class="st96" d="M468.1,322.2l-11.1-25c-0.7-1.5-2.4-3.1-4.1-3.6l-4.2-1.4l-3.4-1.2c-0.4-0.1-0.9-0.2-1.3-0.2
					c-1.6,0-3,0.9-3.6,2.3l-13.7,33.5c-0.4,1-0.3,2.1,0.3,3c0.1,0.1,0.1,0.3,0.2,0.4l7.7,14.8c0.6,1.2,0.7,3.4,0.2,4.7l-7.7,18.7
					c-0.5,1.1-0.4,2.2,0.3,3.1c0.6,0.9,1.7,1.3,3,1.3h4c2.3,0,4.8-1.6,5.6-3.6l7.7-18.7c0.8-1.8,0.7-4.7-0.1-6.5l-5.9-12.9l9.4-23.4
					l6.1,13.4c-2.2,1.2-3.7,3.4-3.7,5.9c0,0.6,0.6,1.2,1.3,1.2c0.7,0,1.3-0.5,1.3-1.2c0-1.6,0.9-2.9,2.2-3.7l0.3,0.6
					c0.7,1.5,2.6,2.7,4.4,2.7c0.1,0,0.2,0,0.3,0l1.9-0.1c0.1,0,0.1,0,0.2,0c0,0.2,0.1,0.4,0.1,0.6v45.3c0,0.7,0.6,1.2,1.3,1.2
					c0.7,0,1.3-0.5,1.3-1.2v-45.3c0-0.7-0.1-1.3-0.3-1.9C468.5,324,468.5,323.1,468.1,322.2L468.1,322.2z M468.1,322.2"/>
			</g>
			<g>
				<path class="st97" d="M468.1,322.2l-11.1-25c-0.7-1.5-2.4-3.1-4.1-3.6l-4.2-1.4l-3.4-1.2c-0.4-0.1-0.9-0.2-1.3-0.2
					c-1.6,0-3,0.9-3.6,2.3l-13.7,33.5c-0.4,1-0.3,2.1,0.3,3c0.1,0.1,0.1,0.3,0.2,0.4l7.7,14.8c0.6,1.2,0.7,3.4,0.2,4.7l-7.7,18.7
					c-0.5,1.1-0.4,2.2,0.3,3.1c0.6,0.9,1.7,1.3,3,1.3h4c2.3,0,4.8-1.6,5.6-3.6l7.7-18.7c0.8-1.8,0.7-4.7-0.1-6.5l-5.9-12.9l9.4-23.4
					l6.1,13.4c-2.2,1.2-3.7,3.4-3.7,5.9c0,0.6,0.6,1.2,1.3,1.2c0.7,0,1.3-0.5,1.3-1.2c0-1.6,0.9-2.9,2.2-3.7l0.3,0.6
					c0.7,1.5,2.6,2.7,4.4,2.7c0.1,0,0.2,0,0.3,0l1.9-0.1c0.1,0,0.1,0,0.2,0c0,0.2,0.1,0.4,0.1,0.6v45.3c0,0.7,0.6,1.2,1.3,1.2
					c0.7,0,1.3-0.5,1.3-1.2v-45.3c0-0.7-0.1-1.3-0.3-1.9C468.5,324,468.5,323.1,468.1,322.2L468.1,322.2z M468.1,322.2"/>
			</g>
		</g>
		<g>
			<g>
				<path class="st96" d="M450.6,288.8c1.4,0.5,3,0.8,4.5,0.8c5.3,0,10.1-3.1,12-7.7c2.5-6.2-0.9-13-7.5-15.3
					c-1.4-0.5-3-0.8-4.5-0.8c-5.3,0-10.2,3.1-12,7.7c-1.2,3-1.1,6.2,0.3,9.1C444.8,285.5,447.4,287.7,450.6,288.8L450.6,288.8z
					 M450.6,288.8"/>
			</g>
			<g>
				<path class="st97" d="M450.6,288.8c1.4,0.5,3,0.8,4.5,0.8c5.3,0,10.1-3.1,12-7.7c2.5-6.2-0.9-13-7.5-15.3
					c-1.4-0.5-3-0.8-4.5-0.8c-5.3,0-10.2,3.1-12,7.7c-1.2,3-1.1,6.2,0.3,9.1C444.8,285.5,447.4,287.7,450.6,288.8L450.6,288.8z
					 M450.6,288.8"/>
			</g>
		</g>
	</g>
</g>
<path class="st95" d="M29,437.3v0.6c0,2.7,0.9,4,2.7,4h7v47.4h10.2V448h10.2v41.3h10V448h10.2v41.3h10.2v-47.4h7
	c0.8,0,1.6-0.4,2.2-1.3c0.7-0.9,1-1.8,1-2.7c0-1.3-0.4-2.4-1.2-3.2v-0.3h0.3L66.7,415v-5.5c1.7,1,4.3,1.1,8,0.4
	c3.7-0.7,7-0.4,10,0.7v-12.4c-2.7-1.2-6-1.3-10-0.6c-4,0.8-6.7,0.6-8-0.6v-0.6c0-1.3-0.8-2-2.5-2c-1.7,0-2.5,0.7-2.5,2V415
	l-32.2,19.3H31C29.5,434.8,28.8,435.7,29,437.3L29,437.3z M29,437.3"/>
<path class="st95" d="M35.9,492.1l-7.5,9h71.5l-7.5-9H35.9z M35.9,492.1"/>
<path class="st95" d="M92.4,445.1v44.2h2.2l1,1.7l6.7,7.2l2.5,2.9h20.7v-56H92.4z M107.7,480.3h-7.7v-8.7h7.7V480.3z M107.7,462.7
	h-7.7v-9h7.7V462.7z M117.9,480.3h-5v-8.7h5V480.3z M117.9,462.7h-5v-9h5V462.7z M117.9,462.7"/>
<path class="st95" d="M33.7,489.2h2.2v-44.2H2.7v56h20.7l2.5-2.6l6.7-7.5L33.7,489.2z M15.5,480.3h-5v-8.7h5V480.3z M15.5,462.7h-5
	v-9h5V462.7z M28.5,480.3h-7.7v-8.7h7.7V480.3z M28.5,462.7h-7.7v-9h7.7V462.7z M28.5,462.7"/>
<g>
	<g>
		<g>
			<g>
				<path class="st96" d="M202.5,418c4.9,3.1,8.4,8.3,9,14.4c2,0.9,4.3,1.5,6.6,1.5c8.7,0,15.7-7,15.7-15.7c0-8.7-7-15.7-15.7-15.7
					C209.6,402.6,202.7,409.5,202.5,418L202.5,418z M192.3,450.2c8.7,0,15.7-7,15.7-15.7c0-8.7-7-15.7-15.7-15.7
					c-8.7,0-15.7,7-15.7,15.7C176.6,443.1,183.6,450.2,192.3,450.2L192.3,450.2z M198.9,451.2h-13.3c-11.1,0-20.1,9-20.1,20.1v16.3
					l0,0.3l1.1,0.4c10.6,3.3,19.7,4.4,27.3,4.4c14.8,0,23.3-4.2,23.8-4.5l1-0.5h0.1v-16.3C219,460.3,210,451.2,198.9,451.2
					L198.9,451.2z M224.9,435h-13.2c-0.1,5.3-2.4,10-6,13.5c9.8,2.9,17.1,12.1,17.1,22.8v5c13-0.5,20.6-4.2,21.1-4.4l1-0.5h0.1
					v-16.3C245,444.1,236,435,224.9,435L224.9,435z M164.7,434c3.1,0,5.9-0.9,8.3-2.4c0.8-5,3.5-9.4,7.3-12.4c0-0.3,0-0.6,0-0.9
					c0-8.7-7-15.7-15.7-15.7c-8.7,0-15.7,7-15.7,15.7C149.1,427,156.1,434,164.7,434L164.7,434z M178.8,448.5
					c-3.6-3.4-5.8-8.1-6-13.4c-0.5,0-1-0.1-1.5-0.1h-13.3c-11.1,0-20.1,9-20.1,20.1v16.3l0,0.3l1.1,0.4c8.5,2.6,16,3.9,22.6,4.2
					v-4.9C161.8,460.6,169,451.4,178.8,448.5L178.8,448.5z M178.8,448.5"/>
			</g>
			<g>
				<path class="st97" d="M202.5,418c4.9,3.1,8.4,8.3,9,14.4c2,0.9,4.3,1.5,6.6,1.5c8.7,0,15.7-7,15.7-15.7c0-8.7-7-15.7-15.7-15.7
					C209.6,402.6,202.7,409.5,202.5,418L202.5,418z M192.3,450.2c8.7,0,15.7-7,15.7-15.7c0-8.7-7-15.7-15.7-15.7
					c-8.7,0-15.7,7-15.7,15.7C176.6,443.1,183.6,450.2,192.3,450.2L192.3,450.2z M198.9,451.2h-13.3c-11.1,0-20.1,9-20.1,20.1v16.3
					l0,0.3l1.1,0.4c10.6,3.3,19.7,4.4,27.3,4.4c14.8,0,23.3-4.2,23.8-4.5l1-0.5h0.1v-16.3C219,460.3,210,451.2,198.9,451.2
					L198.9,451.2z M224.9,435h-13.2c-0.1,5.3-2.4,10-6,13.5c9.8,2.9,17.1,12.1,17.1,22.8v5c13-0.5,20.6-4.2,21.1-4.4l1-0.5h0.1
					v-16.3C245,444.1,236,435,224.9,435L224.9,435z M164.7,434c3.1,0,5.9-0.9,8.3-2.4c0.8-5,3.5-9.4,7.3-12.4c0-0.3,0-0.6,0-0.9
					c0-8.7-7-15.7-15.7-15.7c-8.7,0-15.7,7-15.7,15.7C149.1,427,156.1,434,164.7,434L164.7,434z M178.8,448.5
					c-3.6-3.4-5.8-8.1-6-13.4c-0.5,0-1-0.1-1.5-0.1h-13.3c-11.1,0-20.1,9-20.1,20.1v16.3l0,0.3l1.1,0.4c8.5,2.6,16,3.9,22.6,4.2
					v-4.9C161.8,460.6,169,451.4,178.8,448.5L178.8,448.5z M178.8,448.5"/>
			</g>
		</g>
	</g>
</g>
<g>
	<g>
		<g>
			<g>
				<path class="st96" d="M276.2,478.2c-3.3,3.3-3.3,8.7,0,12.1c1.7,1.7,3.9,2.5,6,2.5c2.2,0,4.4-0.8,6.1-2.5l28.1-28l-12.1-12.1
					L276.2,478.2z M276.2,478.2"/>
			</g>
			<g>
				<path class="st97" d="M276.2,478.2c-3.3,3.3-3.3,8.7,0,12.1c1.7,1.7,3.9,2.5,6,2.5c2.2,0,4.4-0.8,6.1-2.5l28.1-28l-12.1-12.1
					L276.2,478.2z M276.2,478.2"/>
			</g>
		</g>
		<g>
			<g>
				<path class="st96" d="M346.4,426.2l12.2-6.3l6.4-12.4l-6-5.9l-12.4,6.4l-6.3,12.2L325.5,435l6,6L346.4,426.2z M346.4,426.2"/>
			</g>
			<g>
				<path class="st97" d="M346.4,426.2l12.2-6.3l6.4-12.4l-6-5.9l-12.4,6.4l-6.3,12.2L325.5,435l6,6L346.4,426.2z M346.4,426.2"/>
			</g>
		</g>
		<g>
			<g>
				<path class="st96" d="M349.1,458.6l-1.1-0.1c-2.1,0-4.1,0.4-5.9,1.1l-35.1-35c0.7-1.9,1.1-3.8,1.1-5.9l-0.1-1.1
					c-0.6-8.9-7.9-15.9-17-15.9c-2.6,0-5.1,0.6-7.4,1.7l11.4,11.4c0.6,0.6,1,1.3,1.3,2c0.8,2,0.4,4.4-1.3,6c-1.1,1.1-2.6,1.7-4,1.7
					c-0.7,0-1.4-0.1-2-0.4c-0.8-0.3-1.5-0.7-2.1-1.3l-11.4-11.3c-1.1,2.2-1.7,4.7-1.7,7.3c0,9.1,7.1,16.4,16,17l1.2,0.1
					c2.1,0,4.1-0.4,5.9-1.1l35.1,35c-0.7,1.8-1.1,3.8-1.1,5.9l0.1,1.2c0.6,8.9,7.9,15.9,17,15.9c2.6,0,5.1-0.6,7.3-1.7l-11.4-11.3
					c-0.6-0.6-1-1.3-1.3-2c-0.7-2-0.3-4.4,1.3-6c1.1-1.1,2.6-1.7,4-1.7c0.7,0,1.3,0.1,2,0.4c0.7,0.3,1.5,0.7,2,1.3l11.4,11.3
					c1.1-2.2,1.7-4.7,1.7-7.3C365.1,466.5,358,459.2,349.1,458.6L349.1,458.6z M349.1,458.6"/>
			</g>
			<g>
				<path class="st97" d="M349.1,458.6l-1.1-0.1c-2.1,0-4.1,0.4-5.9,1.1l-35.1-35c0.7-1.9,1.1-3.8,1.1-5.9l-0.1-1.1
					c-0.6-8.9-7.9-15.9-17-15.9c-2.6,0-5.1,0.6-7.4,1.7l11.4,11.4c0.6,0.6,1,1.3,1.3,2c0.8,2,0.4,4.4-1.3,6c-1.1,1.1-2.6,1.7-4,1.7
					c-0.7,0-1.4-0.1-2-0.4c-0.8-0.3-1.5-0.7-2.1-1.3l-11.4-11.3c-1.1,2.2-1.7,4.7-1.7,7.3c0,9.1,7.1,16.4,16,17l1.2,0.1
					c2.1,0,4.1-0.4,5.9-1.1l35.1,35c-0.7,1.8-1.1,3.8-1.1,5.9l0.1,1.2c0.6,8.9,7.9,15.9,17,15.9c2.6,0,5.1-0.6,7.3-1.7l-11.4-11.3
					c-0.6-0.6-1-1.3-1.3-2c-0.7-2-0.3-4.4,1.3-6c1.1-1.1,2.6-1.7,4-1.7c0.7,0,1.3,0.1,2,0.4c0.7,0.3,1.5,0.7,2,1.3l11.4,11.3
					c1.1-2.2,1.7-4.7,1.7-7.3C365.1,466.5,358,459.2,349.1,458.6L349.1,458.6z M349.1,458.6"/>
			</g>
		</g>
	</g>
</g>
<g>
	<g>
		<g>
			<g>
				<path class="st96" d="M400.3,431l6,4.8l-5.7,11.1c-2.8,5.1,2,10.1,5.1,11.9c3,1.7,7.8,1.9,12.2,1.9l7.9-13.4l6,3.3l-10.4-19.9
					L400.3,431z M401.2,458.3l12.9,24.5c2.6,3.4,7.5,4.2,12.5,4.1h13.6v-23.2l-25.8-0.2C410.5,463.7,405.2,462.8,401.2,458.3
					L401.2,458.3z M482.3,413.1l-7,3.1l-6.7-10.5c-3-5-9.6-3.1-12.6-1.2c-2.9,1.9-5.4,6.1-7.5,10.1l7.5,13.6l-5.8,3.8l21.9,0.3
					L482.3,413.1z M458.7,400.6l-27.1-0.3c-4.1,0.7-7.2,4.7-9.6,9.3l-6.6,12.2l19.7,11.3l12.7-23.1
					C449.6,406.3,452.9,402,458.7,400.6L458.7,400.6z M459.9,495.2l0.8-7.8l12.2-1c5.7-0.3,7.3-7.1,7.1-10.8
					c-0.2-3.6-2.5-7.8-4.9-11.6l-15.2,0.1l-0.4-7l-10.9,19.6L459.9,495.2z M481.9,480l13.4-24.2c1.4-4.1-0.5-8.8-3.3-13.1l-7.2-11.9
					l-19.1,12.3l13.5,22.6C481.5,469.1,483.6,474.1,481.9,480L481.9,480z M481.9,480"/>
			</g>
			<g>
				<path class="st97" d="M400.3,431l6,4.8l-5.7,11.1c-2.8,5.1,2,10.1,5.1,11.9c3,1.7,7.8,1.9,12.2,1.9l7.9-13.4l6,3.3l-10.4-19.9
					L400.3,431z M401.2,458.3l12.9,24.5c2.6,3.4,7.5,4.2,12.5,4.1h13.6v-23.2l-25.8-0.2C410.5,463.7,405.2,462.8,401.2,458.3
					L401.2,458.3z M482.3,413.1l-7,3.1l-6.7-10.5c-3-5-9.6-3.1-12.6-1.2c-2.9,1.9-5.4,6.1-7.5,10.1l7.5,13.6l-5.8,3.8l21.9,0.3
					L482.3,413.1z M458.7,400.6l-27.1-0.3c-4.1,0.7-7.2,4.7-9.6,9.3l-6.6,12.2l19.7,11.3l12.7-23.1
					C449.6,406.3,452.9,402,458.7,400.6L458.7,400.6z M459.9,495.2l0.8-7.8l12.2-1c5.7-0.3,7.3-7.1,7.1-10.8
					c-0.2-3.6-2.5-7.8-4.9-11.6l-15.2,0.1l-0.4-7l-10.9,19.6L459.9,495.2z M481.9,480l13.4-24.2c1.4-4.1-0.5-8.8-3.3-13.1l-7.2-11.9
					l-19.1,12.3l13.5,22.6C481.5,469.1,483.6,474.1,481.9,480L481.9,480z M481.9,480"/>
			</g>
		</g>
	</g>
</g>
</svg>
