<?xml version="1.0" encoding="utf-8"?>
<!-- Generator: Adobe Illustrator 19.1.0, SVG Export Plug-In . SVG Version: 6.00 Build 0)  -->
<svg version="1.1" id="圖層_1" xmlns="http://www.w3.org/2000/svg" xmlns:xlink="http://www.w3.org/1999/xlink" x="0px" y="0px"
	 viewBox="0 0 640 480.1" style="enable-background:new 0 0 640 480.1;" xml:space="preserve">
<style type="text/css">
	.st0{fill:url(#SVGID_1_);}
	.st1{fill:none;stroke:#33CC99;stroke-width:1.5;stroke-miterlimit:10;}
	.st2{fill:#33CC99;stroke:#33CC99;stroke-width:0.1705;stroke-miterlimit:10;}
	.st3{fill:url(#SVGID_2_);stroke:#906C8C;stroke-width:2.533;stroke-miterlimit:10;}
	.st4{fill:#717071;}
	.st5{fill:url(#SVGID_3_);}
	.st6{fill:#33CC99;stroke:#33CC99;stroke-width:0.2457;stroke-miterlimit:10;}
	.st7{fill:#FFFFFF;}
	.st8{fill:url(#SVGID_4_);}
	.st9{fill:url(#SVGID_5_);stroke:#33CC99;stroke-width:1.5;stroke-miterlimit:10;}
	.st10{fill:#33CC99;}
	.st11{fill:url(#SVGID_6_);}
	.st12{fill:url(#SVGID_7_);}
	.st13{fill:url(#SVGID_8_);stroke:#33CC99;stroke-width:1.5;stroke-miterlimit:10;}
	.st14{fill:url(#SVGID_9_);}
	.st15{fill:url(#SVGID_10_);}
	.st16{fill:url(#SVGID_11_);}
	.st17{fill:url(#SVGID_12_);stroke:#33CC99;stroke-width:1.5;stroke-miterlimit:10;}
	.st18{fill:url(#SVGID_13_);stroke:#33CC99;stroke-width:1.5;stroke-miterlimit:10;}
	.st19{fill:url(#SVGID_14_);}
	.st20{fill:url(#SVGID_15_);}
	.st21{fill:url(#SVGID_16_);stroke:#33CC99;stroke-width:1.5;stroke-miterlimit:10;}
	.st22{fill:url(#SVGID_17_);stroke:#33CC99;stroke-width:1.5;stroke-miterlimit:10;}
	.st23{fill:url(#SVGID_18_);stroke:#33CC99;stroke-width:1.5;stroke-miterlimit:10;}
	.st24{fill:url(#SVGID_19_);}
	.st25{fill:url(#SVGID_20_);stroke:#33CC99;stroke-width:1.5;stroke-miterlimit:10;}
	.st26{opacity:0.66;}
	.st27{fill:url(#SVGID_21_);}
	.st28{fill:url(#SVGID_22_);}
	.st29{fill:url(#SVGID_23_);stroke:#33CC99;stroke-width:1.5;stroke-miterlimit:10;}
	.st30{fill:url(#SVGID_24_);stroke:#33CC99;stroke-width:1.5;stroke-miterlimit:10;}
	.st31{fill:url(#SVGID_25_);stroke:#33CC99;stroke-width:1.5;stroke-miterlimit:10;}
	.st32{fill:none;stroke:#29C5EF;stroke-miterlimit:10;}
	.st33{fill:url(#SVGID_26_);stroke:#33CC99;stroke-width:1.5;stroke-miterlimit:10;}
	.st34{fill:url(#SVGID_27_);}
	.st35{fill:url(#SVGID_28_);}
	.st36{fill:url(#SVGID_29_);stroke:#33CC99;stroke-width:1.5;stroke-miterlimit:10;}
	.st37{fill:url(#SVGID_30_);}
	.st38{fill:url(#SVGID_31_);}
	.st39{fill:url(#SVGID_32_);}
	.st40{fill:url(#SVGID_33_);stroke:#33CC99;stroke-width:1.5;stroke-miterlimit:10;}
	.st41{fill:url(#SVGID_34_);stroke:#33CC99;stroke-width:1.5;stroke-miterlimit:10;}
	.st42{fill:url(#SVGID_35_);}
	.st43{fill:url(#SVGID_36_);}
	.st44{fill:url(#SVGID_37_);stroke:#33CC99;stroke-width:1.5;stroke-miterlimit:10;}
	.st45{fill:url(#SVGID_38_);stroke:#33CC99;stroke-width:1.5;stroke-miterlimit:10;}
	.st46{fill:url(#SVGID_39_);stroke:#33CC99;stroke-width:1.5;stroke-miterlimit:10;}
	.st47{fill:url(#SVGID_40_);}
	.st48{fill:url(#SVGID_41_);stroke:#33CC99;stroke-width:1.5;stroke-miterlimit:10;}
	.st49{fill:url(#SVGID_42_);}
	.st50{fill:url(#SVGID_43_);}
	.st51{fill:url(#SVGID_44_);stroke:#33CC99;stroke-width:1.5;stroke-miterlimit:10;}
	.st52{fill:url(#SVGID_45_);stroke:#33CC99;stroke-width:1.5;stroke-miterlimit:10;}
	.st53{fill:url(#SVGID_46_);stroke:#33CC99;stroke-width:1.5;stroke-miterlimit:10;}
	.st54{fill:url(#SVGID_47_);stroke:#33CC99;stroke-width:1.5;stroke-miterlimit:10;}
	.st55{fill:url(#SVGID_48_);}
	.st56{fill:url(#SVGID_49_);}
	.st57{fill:url(#SVGID_50_);stroke:#33CC99;stroke-width:1.5;stroke-miterlimit:10;}
	.st58{fill:url(#SVGID_51_);}
	.st59{fill:url(#SVGID_52_);}
	.st60{fill:url(#SVGID_53_);}
	.st61{fill:url(#SVGID_54_);stroke:#33CC99;stroke-width:1.5;stroke-miterlimit:10;}
	.st62{fill:url(#SVGID_55_);stroke:#33CC99;stroke-width:1.5;stroke-miterlimit:10;}
	.st63{fill:url(#SVGID_56_);}
	.st64{fill:url(#SVGID_57_);}
	.st65{fill:url(#SVGID_58_);stroke:#33CC99;stroke-width:1.5;stroke-miterlimit:10;}
	.st66{fill:url(#SVGID_59_);stroke:#33CC99;stroke-width:1.5;stroke-miterlimit:10;}
	.st67{fill:url(#SVGID_60_);stroke:#33CC99;stroke-width:1.5;stroke-miterlimit:10;}
	.st68{fill:url(#SVGID_61_);}
	.st69{fill:url(#SVGID_62_);stroke:#33CC99;stroke-width:1.5;stroke-miterlimit:10;}
	.st70{fill:url(#SVGID_63_);}
	.st71{fill:url(#SVGID_64_);}
	.st72{fill:url(#SVGID_65_);stroke:#33CC99;stroke-width:1.5;stroke-miterlimit:10;}
	.st73{fill:url(#SVGID_66_);stroke:#33CC99;stroke-width:1.5;stroke-miterlimit:10;}
	.st74{fill:url(#SVGID_67_);}
	.st75{fill:url(#SVGID_68_);}
	.st76{fill:url(#SVGID_69_);}
	.st77{fill:url(#SVGID_70_);}
	.st78{fill:url(#SVGID_71_);}
	.st79{fill:url(#SVGID_72_);}
	.st80{fill:url(#SVGID_73_);}
	.st81{opacity:0.66;fill:url(#SVGID_74_);}
	.st82{fill:url(#SVGID_75_);}
	.st83{opacity:0.78;}
	.st84{opacity:0.1;}
	.st85{fill:#4C423F;}
	.st86{fill:url(#SVGID_76_);}
	.st87{fill:url(#SVGID_77_);}
	.st88{fill:url(#SVGID_78_);}
	.st89{fill:url(#SVGID_79_);}
	.st90{fill:none;}
	.st91{fill:url(#SVGID_80_);}
	.st92{fill:url(#SVGID_81_);}
	.st93{fill:url(#SVGID_82_);}
	.st94{fill:url(#SVGID_83_);}
	.st95{fill:url(#SVGID_84_);}
	.st96{fill:url(#SVGID_85_);}
	.st97{fill:url(#SVGID_86_);}
	.st98{opacity:0.66;fill:url(#SVGID_87_);}
	.st99{fill:url(#SVGID_88_);}
	.st100{fill:url(#SVGID_89_);}
	.st101{fill:url(#SVGID_90_);}
	.st102{fill:url(#SVGID_91_);}
	.st103{fill:url(#SVGID_92_);}
	.st104{fill:#F27968;}
	.st105{fill:#B367B7;}
	.st106{fill:#D86464;}
	.st107{fill:#906C8C;}
	.st108{fill:#727171;}
	.st109{fill:#5BADC9;}
	.st110{fill:#0095A0;}
	.st111{fill:#33CC99;stroke:#1E9E70;stroke-width:0.4995;stroke-miterlimit:10;}
	.st112{fill:url(#SVGID_93_);}
	.st113{fill:url(#SVGID_94_);}
	.st114{fill:#F27968;stroke:#1E9E70;stroke-width:0.4995;stroke-miterlimit:10;}
	.st115{fill:#1E9E70;}
	.st116{fill:url(#SVGID_95_);}
	.st117{fill:#33CC99;stroke:#33CC99;stroke-width:0.9336;stroke-miterlimit:10;}
	.st118{fill:url(#SVGID_96_);stroke:#F7B52C;stroke-width:2.533;stroke-miterlimit:10;}
	.st119{fill:#F7B52C;}
	.st120{fill:url(#SVGID_97_);stroke:#5BADC9;stroke-width:2.533;stroke-miterlimit:10;}
	.st121{fill:url(#SVGID_98_);stroke:#F27968;stroke-width:2.6098;stroke-miterlimit:10;}
	.st122{fill:url(#SVGID_99_);stroke:#C9A063;stroke-width:2.6098;stroke-miterlimit:10;}
	.st123{fill:#C9A063;}
	.st124{fill:url(#SVGID_100_);stroke:#727171;stroke-width:2.6098;stroke-miterlimit:10;}
	.st125{fill:url(#SVGID_101_);stroke:#F44F47;stroke-width:2.533;stroke-miterlimit:10;}
	.st126{fill:url(#SVGID_102_);stroke:#13AE67;stroke-width:2.533;stroke-miterlimit:10;}
	.st127{fill:#F44F47;}
	.st128{fill:url(#SVGID_103_);stroke:#0095A0;stroke-width:2.533;stroke-miterlimit:10;}
	.st129{fill:#13AE67;}
	.st130{fill:url(#SVGID_104_);stroke:#7779B8;stroke-width:2.533;stroke-miterlimit:10;}
	.st131{fill:#7779B8;}
	.st132{fill:url(#SVGID_105_);stroke:#A5B548;stroke-width:2.533;stroke-miterlimit:10;}
	.st133{fill:url(#SVGID_106_);stroke:#B367B7;stroke-width:2.533;stroke-miterlimit:10;}
	.st134{fill:#A5B548;}
	.st135{fill:url(#SVGID_107_);}
	.st136{fill:none;stroke:#906C8C;stroke-width:2.533;stroke-miterlimit:10;}
	.st137{fill:#231815;}
	.st138{fill:url(#SVGID_108_);}
	.st139{fill:none;stroke:#F7B52C;stroke-width:2.533;stroke-miterlimit:10;}
	.st140{fill:url(#SVGID_109_);}
	.st141{fill:none;stroke:#5BADC9;stroke-width:2.533;stroke-miterlimit:10;}
	.st142{fill:url(#SVGID_110_);}
	.st143{fill:none;stroke:#F27968;stroke-width:2.6098;stroke-miterlimit:10;}
	.st144{fill:url(#SVGID_111_);}
	.st145{fill:none;stroke:#C9A063;stroke-width:2.6098;stroke-miterlimit:10;}
	.st146{fill:url(#SVGID_112_);}
	.st147{fill:none;stroke:#727171;stroke-width:2.6098;stroke-miterlimit:10;}
	.st148{fill:url(#SVGID_113_);}
	.st149{fill:none;stroke:#F44F47;stroke-width:2.533;stroke-miterlimit:10;}
	.st150{fill:url(#SVGID_114_);}
	.st151{fill:none;stroke:#13AE67;stroke-width:2.533;stroke-miterlimit:10;}
	.st152{fill:url(#SVGID_115_);}
	.st153{fill:none;stroke:#0095A0;stroke-width:2.533;stroke-miterlimit:10;}
	.st154{fill:url(#SVGID_116_);}
	.st155{fill:none;stroke:#7779B8;stroke-width:2.533;stroke-miterlimit:10;}
	.st156{fill:url(#SVGID_117_);}
	.st157{fill:none;stroke:#A5B548;stroke-width:2.533;stroke-miterlimit:10;}
	.st158{fill:url(#SVGID_118_);}
	.st159{fill:none;stroke:#B367B7;stroke-width:2.533;stroke-miterlimit:10;}
	.st160{fill:url(#SVGID_119_);stroke:#906C8C;stroke-width:2.533;stroke-miterlimit:10;}
	.st161{fill:url(#SVGID_120_);stroke:#F7B52C;stroke-width:2.533;stroke-miterlimit:10;}
	.st162{fill:url(#SVGID_121_);stroke:#5BADC9;stroke-width:2.533;stroke-miterlimit:10;}
	.st163{fill:url(#SVGID_122_);stroke:#F27968;stroke-width:2.6098;stroke-miterlimit:10;}
	.st164{fill:url(#SVGID_123_);stroke:#C9A063;stroke-width:2.6098;stroke-miterlimit:10;}
	.st165{fill:url(#SVGID_124_);stroke:#727171;stroke-width:2.6098;stroke-miterlimit:10;}
	.st166{fill:url(#SVGID_125_);stroke:#D86464;stroke-width:2.533;stroke-miterlimit:10;}
	.st167{fill:url(#SVGID_126_);stroke:#13AE67;stroke-width:2.533;stroke-miterlimit:10;}
	.st168{fill:url(#SVGID_127_);stroke:#0095A0;stroke-width:2.533;stroke-miterlimit:10;}
	.st169{fill:url(#SVGID_128_);stroke:#7779B8;stroke-width:2.533;stroke-miterlimit:10;}
	.st170{fill:url(#SVGID_129_);stroke:#A5B548;stroke-width:2.533;stroke-miterlimit:10;}
	.st171{fill:url(#SVGID_130_);stroke:#B367B7;stroke-width:2.533;stroke-miterlimit:10;}
	.st172{fill:url(#SVGID_131_);}
	.st173{fill:url(#SVGID_132_);}
	.st174{fill:url(#SVGID_133_);}
	.st175{fill:url(#SVGID_134_);}
	.st176{fill:url(#SVGID_135_);}
	.st177{fill:url(#SVGID_136_);}
	.st178{fill:url(#SVGID_137_);}
	.st179{fill:none;stroke:#D86464;stroke-width:2.533;stroke-miterlimit:10;}
	.st180{fill:url(#SVGID_138_);}
	.st181{fill:url(#SVGID_139_);}
	.st182{fill:url(#SVGID_140_);}
	.st183{fill:url(#SVGID_141_);}
	.st184{fill:url(#SVGID_142_);}
	.st185{fill:#5CB5BC;}
	.st186{fill:#65C696;}
	.st187{fill:#F5A298;}
	.st188{fill:#D9BD95;}
	.st189{fill:#9D9C9C;}
	.st190{fill:#F8CB78;}
	.st191{fill:#8FC6D8;}
	.st192{fill:#EA7373;}
	.st193{fill:#B098AF;}
	.st194{fill:#A0A2CC;}
	.st195{fill:#C0CB84;}
	.st196{fill:#C997CB;}
	.st197{fill:url(#SVGID_143_);stroke:#0095A0;stroke-width:2.5;stroke-miterlimit:10;}
	.st198{fill:#C9CACA;}
	.st199{fill:none;stroke:#9FA0A0;stroke-width:0.75;stroke-miterlimit:10;}
	.st200{fill:url(#SVGID_144_);}
	.st201{fill:none;stroke:#E8A734;stroke-width:2.5;stroke-miterlimit:10;}
	.st202{fill:url(#SVGID_145_);stroke:#13AE67;stroke-width:2.5;stroke-miterlimit:10;}
	.st203{fill:url(#SVGID_146_);stroke:#5BADC9;stroke-width:2.5;stroke-miterlimit:10;}
	.st204{fill:url(#SVGID_147_);stroke:#B367B7;stroke-width:2.5;stroke-miterlimit:10;}
	.st205{fill:url(#SVGID_148_);stroke:#7779B8;stroke-width:2.5;stroke-miterlimit:10;}
	.st206{fill:url(#SVGID_149_);}
	.st207{fill:url(#SVGID_150_);}
	.st208{fill:url(#SVGID_151_);}
	.st209{fill:url(#SVGID_152_);stroke:#A5B548;stroke-width:2.5;stroke-miterlimit:10;}
	.st210{fill:url(#SVGID_153_);}
	.st211{fill:url(#SVGID_154_);stroke:#F27968;stroke-width:2.5;stroke-miterlimit:10;}
	.st212{fill:url(#SVGID_155_);}
	.st213{fill:url(#SVGID_156_);}
	.st214{fill:url(#SVGID_157_);stroke:#D86464;stroke-width:2.5;stroke-miterlimit:10;}
	.st215{fill:url(#SVGID_158_);}
	.st216{fill:url(#SVGID_159_);stroke:#727171;stroke-width:2.5;stroke-miterlimit:10;}
	.st217{fill:url(#SVGID_160_);}
	.st218{fill:url(#SVGID_161_);}
	.st219{fill:url(#SVGID_162_);stroke:#906C8C;stroke-width:2.5;stroke-miterlimit:10;}
	.st220{fill:url(#SVGID_163_);stroke:#C9A063;stroke-width:2.5;stroke-miterlimit:10;}
</style>
<rect x="480" y="160" class="st90" width="160" height="160"/>
<path class="st10" d="M594.9,222.8l-14.1,0.1l0.1,17l-16.2,0.1l0.1,14.8l16.2-0.1l0.1,17l14.1-0.1l-0.1-17l16.2-0.1l-0.1-14.8
	l-16.2,0.1L594.9,222.8z M594.9,222.8"/>
<path class="st10" d="M556.2,232.6l16.6-0.1l-0.1-17l28.9-0.1l0.1,17l8.4,0c3-4.9,4.7-10.6,4.7-16.7c-0.1-17.1-13.6-30.9-30.3-30.8
	c-10.1,0-19.1,5.2-24.5,13.1c-5.5-7.8-14.5-12.9-24.6-12.9c-16.7,0.1-30.1,14-30.1,31.1c0,7.4,2.6,14.2,6.9,19.6l48.2,59.3
	l12.7-15.9l-0.1-17l-16.6,0.1L556.2,232.6z M556.2,232.6"/>
<linearGradient id="SVGID_1_" gradientUnits="userSpaceOnUse" x1="690.8953" y1="388.273" x2="566.7419" y2="218.2784">
	<stop  offset="0" style="stop-color:#187FC3"/>
	<stop  offset="1" style="stop-color:#187FC3;stop-opacity:0"/>
</linearGradient>
<path class="st0" d="M594.9,222.8l-14.1,0.1l0.1,17l-16.2,0.1l0.1,14.8l16.2-0.1l0.1,17l14.1-0.1l-0.1-17l16.2-0.1l-0.1-14.8
	l-16.2,0.1L594.9,222.8z M594.9,222.8"/>
<linearGradient id="SVGID_2_" gradientUnits="userSpaceOnUse" x1="687.6169" y1="390.6674" x2="563.4635" y2="220.6728">
	<stop  offset="0" style="stop-color:#187FC3"/>
	<stop  offset="1" style="stop-color:#187FC3;stop-opacity:0"/>
</linearGradient>
<path style="fill:url(#SVGID_2_);" d="M556.2,232.6l16.6-0.1l-0.1-17l28.9-0.1l0.1,17l8.4,0c3-4.9,4.7-10.6,4.7-16.7
	c-0.1-17.1-13.6-30.9-30.3-30.8c-10.1,0-19.1,5.2-24.5,13.1c-5.5-7.8-14.5-12.9-24.6-12.9c-16.7,0.1-30.1,14-30.1,31.1
	c0,7.4,2.6,14.2,6.9,19.6l48.2,59.3l12.7-15.9l-0.1-17l-16.6,0.1L556.2,232.6z M556.2,232.6"/>
<rect x="160" y="160" class="st90" width="160" height="160"/>
<path class="st10" d="M194.5,272.7c-3.5,3.5-3.5,9.2,0,12.7c1.8,1.8,4.1,2.6,6.4,2.6c2.3,0,4.6-0.9,6.4-2.6l29.6-29.6l-12.7-12.7
	L194.5,272.7z M194.5,272.7"/>
<path class="st10" d="M268.5,217.9l12.9-6.7l6.7-13l-6.3-6.3l-13.1,6.7l-6.7,12.9l-15.7,15.7l6.4,6.4L268.5,217.9z M268.5,217.9"/>
<path class="st10" d="M271.3,252.1l-1.2-0.1c-2.2,0-4.3,0.4-6.3,1.2l-37-36.9c0.7-2,1.2-4,1.2-6.2l-0.1-1.2
	c-0.6-9.4-8.4-16.8-17.9-16.8c-2.8,0-5.4,0.7-7.7,1.8l12,12c0.6,0.6,1.1,1.4,1.3,2.1c0.8,2.1,0.4,4.6-1.3,6.3
	c-1.2,1.2-2.7,1.8-4.2,1.8c-0.7,0-1.4-0.1-2.1-0.4c-0.8-0.3-1.6-0.7-2.2-1.3l-12-12c-1.1,2.3-1.8,4.9-1.8,7.7
	c0,9.6,7.5,17.3,16.8,17.9l1.2,0.1c2.2,0,4.3-0.5,6.2-1.2l37,36.9c-0.7,1.9-1.2,4-1.2,6.2l0.1,1.2c0.6,9.4,8.4,16.8,17.9,16.8
	c2.8,0,5.4-0.7,7.7-1.8l-12-12c-0.6-0.6-1.1-1.4-1.4-2.1c-0.8-2.1-0.4-4.6,1.4-6.3c1.2-1.2,2.7-1.8,4.3-1.8c0.7,0,1.4,0.1,2.1,0.4
	c0.8,0.3,1.5,0.7,2.1,1.3l12,12c1.1-2.3,1.8-4.9,1.8-7.7C288.1,260.4,280.7,252.7,271.3,252.1L271.3,252.1z M271.3,252.1"/>
<linearGradient id="SVGID_3_" gradientUnits="userSpaceOnUse" x1="258.4041" y1="457.3506" x2="203.4433" y2="221.0192">
	<stop  offset="0" style="stop-color:#187FC3"/>
	<stop  offset="1" style="stop-color:#187FC3;stop-opacity:0"/>
</linearGradient>
<path class="st5" d="M194.5,272.7c-3.5,3.5-3.5,9.2,0,12.7c1.8,1.8,4.1,2.6,6.4,2.6c2.3,0,4.6-0.9,6.4-2.6l29.6-29.6l-12.7-12.7
	L194.5,272.7z M194.5,272.7"/>
<linearGradient id="SVGID_4_" gradientUnits="userSpaceOnUse" x1="320.8021" y1="442.8394" x2="265.8413" y2="206.508">
	<stop  offset="0" style="stop-color:#187FC3"/>
	<stop  offset="1" style="stop-color:#187FC3;stop-opacity:0"/>
</linearGradient>
<path class="st8" d="M268.5,217.9l12.9-6.7l6.7-13l-6.3-6.3l-13.1,6.7l-6.7,12.9l-15.7,15.7l6.4,6.4L268.5,217.9z M268.5,217.9"/>
<linearGradient id="SVGID_5_" gradientUnits="userSpaceOnUse" x1="288.9541" y1="450.2459" x2="233.9933" y2="213.9145">
	<stop  offset="0" style="stop-color:#187FC3"/>
	<stop  offset="1" style="stop-color:#187FC3;stop-opacity:0"/>
</linearGradient>
<path style="fill:url(#SVGID_5_);" d="M271.3,252.1l-1.2-0.1c-2.2,0-4.3,0.4-6.3,1.2l-37-36.9c0.7-2,1.2-4,1.2-6.2l-0.1-1.2
	c-0.6-9.4-8.4-16.8-17.9-16.8c-2.8,0-5.4,0.7-7.7,1.8l12,12c0.6,0.6,1.1,1.4,1.3,2.1c0.8,2.1,0.4,4.6-1.3,6.3
	c-1.2,1.2-2.7,1.8-4.2,1.8c-0.7,0-1.4-0.1-2.1-0.4c-0.8-0.3-1.6-0.7-2.2-1.3l-12-12c-1.1,2.3-1.8,4.9-1.8,7.7
	c0,9.6,7.5,17.3,16.8,17.9l1.2,0.1c2.2,0,4.3-0.5,6.2-1.2l37,36.9c-0.7,1.9-1.2,4-1.2,6.2l0.1,1.2c0.6,9.4,8.4,16.8,17.9,16.8
	c2.8,0,5.4-0.7,7.7-1.8l-12-12c-0.6-0.6-1.1-1.4-1.4-2.1c-0.8-2.1-0.4-4.6,1.4-6.3c1.2-1.2,2.7-1.8,4.3-1.8c0.7,0,1.4,0.1,2.1,0.4
	c0.8,0.3,1.5,0.7,2.1,1.3l12,12c1.1-2.3,1.8-4.9,1.8-7.7C288.1,260.4,280.7,252.7,271.3,252.1L271.3,252.1z M271.3,252.1"/>
<rect x="320" y="320.1" class="st90" width="160" height="160"/>
<path class="st10" d="M427.4,449.7v4.1h-54.7v-4.1c0-2.3,2-4.1,4.5-4.1h9.2c0.2-5.2,3.9-9.5,9.1-11.1v-48.5c-2.4-1.4-4-3.8-4-6.6
	h17.2c0,2.8-1.6,5.2-4,6.6v48.5c5.1,1.7,8.8,6,9.1,11.1h9.2C425.3,445.6,427.4,447.4,427.4,449.7L427.4,449.7z M459.3,412.4
	c-3.3,8.6-12.3,14.7-22.8,14.7c-10.6,0-19.5-6.2-22.8-14.7h5.3l15.4-37.1c0.7-1.6,3.6-1.6,4.3,0l15.4,37.1H459.3z M449.2,412.4
	l-12.7-30.5l-12.7,30.5H449.2z M363.5,371.1c2.1,0,3.7-1.3,4.3-3c1.5-0.5,3.1-1.2,4.6-1.9c3.5-1.6,7.4-3.4,11.6-3.4
	c3.9,0,6.4,1.7,7.8,3.1c0,0.4-0.1,0.7-0.1,1.1c0,4.1,3.7,7.5,8.3,7.5c4.6,0,8.3-3.4,8.3-7.5c0-0.4-0.1-0.7-0.1-1.1
	c1.4-1.4,3.9-3.1,7.8-3.1c4.1,0,8.1,1.8,11.6,3.4c1.6,0.7,3.1,1.4,4.6,1.9c0.6,1.7,2.3,3,4.3,3c2.5,0,4.6-1.9,4.6-4.2
	c0-2.3-2.1-4.2-4.6-4.2c-1.3,0-2.5,0.5-3.3,1.3c-1.1-0.4-2.4-1-3.6-1.6c-3.9-1.8-8.4-3.9-13.6-3.9c-4.5,0-7.7,1.6-9.8,3.3
	c-1-1-2.2-1.7-3.6-2.1c1.7-0.8,2.9-2.4,2.9-4.3c0-2.7-5.4-9-5.4-9s-5.4,6.3-5.4,9c0,1.9,1.2,3.5,2.9,4.3c-1.4,0.4-2.7,1.1-3.6,2.1
	c-2.1-1.7-5.3-3.3-9.8-3.3c-5.2,0-9.7,2-13.6,3.9c-1.3,0.6-2.5,1.1-3.6,1.6c-0.8-0.8-2-1.3-3.3-1.3c-2.5,0-4.6,1.9-4.6,4.2
	C358.8,369.2,360.9,371.1,363.5,371.1L363.5,371.1z M363.5,427.1c-10.6,0-19.5-6.2-22.8-14.7h5.3l15.4-37.1c0.7-1.6,3.6-1.6,4.3,0
	l15.4,37.1h5.3C382.9,421,374,427.1,363.5,427.1L363.5,427.1z M376.1,412.4l-12.7-30.5l-12.7,30.5H376.1z M376.1,412.4"/>
<rect x="160" y="320.1" class="st90" width="160" height="160"/>
<path class="st10" d="M198.1,392.4h8.9V446h13.3v-45.9h13.1V446h13.3v-45.9h13.1V446h13.3v-53.6h8.6c1.3,0,2.4-0.3,3.2-1
	c0.8-0.7,1.2-1.6,1.2-2.7c0-1.2-0.6-2.3-1.7-3v-0.2h-0.2l-42-20.5v-6.1c2.5,1.1,6.2,1.2,11.2,0.5s9.3-0.5,13,0.7v-13.3
	c-3.5-1.2-7.8-1.5-13-0.7c-5.2,0.8-8.9,0.6-11.2-0.5v-0.9c0-1.2-0.7-1.9-2.2-1.9c-1.5,0-2.2,0.6-2.2,1.9V365l-42,20.5h-0.2v0.2
	c-1.3,0.8-2,1.8-2,3c0,1.1,0.5,2,1.4,2.7C195.9,392.1,197,392.4,198.1,392.4L198.1,392.4z M198.1,392.4"/>
<path class="st10" d="M202.6,449.8l-8.9,7.7h92.6l-8.6-7.7H202.6z M202.6,449.8"/>
<linearGradient id="SVGID_6_" gradientUnits="userSpaceOnUse" x1="240" y1="875.4771" x2="240" y2="363.9256">
	<stop  offset="0" style="stop-color:#187FC3"/>
	<stop  offset="1" style="stop-color:#187FC3;stop-opacity:0"/>
</linearGradient>
<path class="st11" d="M198.1,392.4h8.9V446h13.3v-45.9h13.1V446h13.3v-45.9h13.1V446h13.3v-53.6h8.6c1.3,0,2.4-0.3,3.2-1
	c0.8-0.7,1.2-1.6,1.2-2.7c0-1.2-0.6-2.3-1.7-3v-0.2h-0.2l-42-20.5v-6.1c2.5,1.1,6.2,1.2,11.2,0.5s9.3-0.5,13,0.7v-13.3
	c-3.5-1.2-7.8-1.5-13-0.7c-5.2,0.8-8.9,0.6-11.2-0.5v-0.9c0-1.2-0.7-1.9-2.2-1.9c-1.5,0-2.2,0.6-2.2,1.9V365l-42,20.5h-0.2v0.2
	c-1.3,0.8-2,1.8-2,3c0,1.1,0.5,2,1.4,2.7C195.9,392.1,197,392.4,198.1,392.4L198.1,392.4z M198.1,392.4"/>
<linearGradient id="SVGID_7_" gradientUnits="userSpaceOnUse" x1="240" y1="875.4771" x2="240" y2="363.9256">
	<stop  offset="0" style="stop-color:#187FC3"/>
	<stop  offset="1" style="stop-color:#187FC3;stop-opacity:0"/>
</linearGradient>
<path class="st12" d="M202.6,449.8l-8.9,7.7h92.6l-8.6-7.7H202.6z M202.6,449.8"/>
<rect x="480" y="320.1" class="st90" width="160" height="160"/>
<path class="st10" d="M571.7,369c5.2,3.3,8.9,8.8,9.5,15.2c2.1,1,4.5,1.6,7,1.6c9.1,0,16.5-7.4,16.5-16.5c0-9.1-7.4-16.5-16.5-16.5
	C579.1,352.7,571.8,360,571.7,369L571.7,369z M560.8,402.8c9.1,0,16.5-7.4,16.5-16.5c0-9.1-7.4-16.5-16.5-16.5
	c-9.1,0-16.5,7.4-16.5,16.5C544.3,395.4,551.7,402.8,560.8,402.8L560.8,402.8z M567.8,404h-14c-11.7,0-21.2,9.5-21.2,21.2v17.2
	l0,0.3l1.2,0.4c11.1,3.5,20.8,4.6,28.8,4.6c15.6,0,24.6-4.4,25.1-4.7l1.1-0.6h0.1v-17.2C589,413.5,579.5,404,567.8,404L567.8,404z
	 M595.2,386.9h-13.9c-0.2,5.6-2.5,10.6-6.3,14.2c10.4,3.1,18,12.7,18,24.1v5.3c13.7-0.5,21.7-4.4,22.2-4.7l1.1-0.6h0.1v-17.2
	C616.4,396.4,606.9,386.9,595.2,386.9L595.2,386.9z M531.8,385.8c3.2,0,6.2-0.9,8.8-2.6c0.8-5.3,3.6-9.9,7.7-13.1c0-0.3,0-0.6,0-0.9
	c0-9.1-7.4-16.5-16.5-16.5c-9.1,0-16.5,7.4-16.5,16.5C515.3,378.4,522.7,385.8,531.8,385.8L531.8,385.8z M546.7,401.1
	c-3.7-3.6-6.1-8.6-6.3-14.1c-0.5,0-1-0.1-1.6-0.1h-14c-11.7,0-21.2,9.5-21.2,21.2v17.2l0,0.3l1.2,0.4c8.9,2.8,16.9,4.1,23.8,4.5
	v-5.2C528.7,413.8,536.3,404.2,546.7,401.1L546.7,401.1z M546.7,401.1"/>
<rect x="0" y="160" class="st90" width="160" height="160"/>
<path class="st10" d="M125.3,184.2H34.7c-1.1,0-2,0.8-2,1.8V294c0,1,0.9,1.8,2,1.8h90.5c1.1,0,2-0.8,2-1.8V186
	C127.3,185,126.4,184.2,125.3,184.2L125.3,184.2z M36.8,190.3l4.6,4.1v91.1l-4.6,4.1V190.3z M45.4,284.5v-89h69.2v89H45.4z
	 M115.8,191.9H44.2l-4.6-4.1h80.8L115.8,191.9z M44.2,288.1h71.6l4.6,4.1H39.6L44.2,288.1z M118.7,285.6v-91.1l4.6-4.1v99.3
	L118.7,285.6z M118.7,285.6"/>
<path class="st10" d="M108,199.6H52c-1.1,0-2,0.8-2,1.8v77.2c0,1,0.9,1.8,2,1.8h56c1.1,0,2-0.8,2-1.8v-77.2
	C110,200.4,109.1,199.6,108,199.6L108,199.6z M74.3,240.3c-0.8-0.3-1.6-0.1-2.2,0.4l-1,0.9c-2.2,2-5.9,2-8.1,0
	c-1.4-1.3-2-3.1-1.5-4.9l7.7-27.7l2.9,10.3c-0.2,0-0.5-0.1-0.7-0.1c-2.2,0-3.9,1.6-3.9,3.5c0,1.9,1.8,3.5,3.9,3.5
	c0.9,0,1.8-0.3,2.4-0.8l6.3,22.5h-4.6v-5.9C75.6,241.2,75.1,240.5,74.3,240.3L74.3,240.3z M71.5,222.6c0,0.1-0.1,0.1-0.1,0.1
	c-0.1,0-0.1-0.1-0.1-0.1c0-0.1,0.1-0.1,0.1-0.1C71.5,222.5,71.5,222.6,71.5,222.6L71.5,222.6z M73.5,270.6c4.2,0,7.7,2.7,8.6,6.2H65
	C65.8,273.2,69.3,270.6,73.5,270.6L73.5,270.6z M75.6,267.1v-5.6l8.8,1.6l3.8,13.7h-2C85.4,271.8,81.1,267.9,75.6,267.1L75.6,267.1z
	 M78.1,258.3l4.1-3.1l1.1,4L78.1,258.3z M91.8,274.8l-6.2-22.1l2.1-1.6c0.7-0.5,0.9-1.3,0.6-2c-0.3-0.7-1-1.2-1.9-1.2h-2.2l-4.8-17
	c3,2,6.9,3.2,11.1,3.2c4.8,0,9.3-1.5,12.3-4.1c2,4.7,3.1,9.8,3.1,14.9C106,256.2,100.9,266.9,91.8,274.8L91.8,274.8z M101,226.5
	c-0.6,0.7-1.3,1.3-2.2,1.8c0.2-0.6,0.2-1.2,0.2-1.8c0-0.6-0.1-1.2-0.2-1.8C99.7,225.2,100.4,225.8,101,226.5L101,226.5z M95,226.5
	c0,2.2-2,3.9-4.4,3.9c-2.4,0-4.4-1.8-4.4-3.9s2-3.9,4.4-3.9C93.1,222.6,95,224.3,95,226.5L95,226.5z M82.5,228.3
	c-0.8-0.5-1.6-1.1-2.2-1.8c0.6-0.7,1.3-1.3,2.2-1.8c-0.2,0.6-0.2,1.2-0.2,1.8C82.2,227.1,82.3,227.7,82.5,228.3L82.5,228.3z
	 M90.6,219c-5.2,0-10.1,1.9-13.1,4.8l-5.3-19c9,2.3,17.1,7,23.1,13.5c0.4,0.5,0.9,1,1.3,1.5C94.8,219.3,92.7,219,90.6,219L90.6,219z
	 M54,203.2h12.6l-9.1,32.5c-0.8,3,0.2,6.2,2.6,8.3c3.1,2.8,7.7,3.3,11.4,1.6v4c0,1,0.9,1.8,2,1.8h7.4l-8.6,6.4
	c-0.5,0.3-0.7,0.9-0.7,1.4v7.8c-5.5,0.8-9.9,4.7-10.6,9.7H54V203.2z M106,276.8H95.3c4.6-4.1,8.2-9,10.7-14.2V276.8z M98.5,216
	c-5.2-5.6-11.8-10-19.2-12.8H106v23.9C104.1,223.1,101.6,219.4,98.5,216L98.5,216z M98.5,216"/>
<rect x="0" y="320.1" class="st90" width="160" height="160"/>
<path class="st10" d="M122.8,371.5h-16.9c0.6-0.7,0.9-1.6,0.9-2.5c0-1.1-0.4-2.1-1.2-2.9l-22.7-22.7c-1.6-1.6-4.2-1.6-5.8,0
	L54.4,366c-0.8,0.8-1.2,1.8-1.2,2.9c0,0.9,0.3,1.8,0.9,2.5H37.2c-2.3,0-4.1,1.8-4.1,4.1v74.9c0,2.3,1.8,4.1,4.1,4.1h85.6
	c2.3,0,4.1-1.8,4.1-4.1v-46.9v-28C126.9,373.3,125.1,371.5,122.8,371.5z M80,352.1L96.9,369l-3.7,3.7c0,0,0,0,0,0L80,385.8
	l-13.1-13.1l0,0l-3.7-3.7L80,352.1z M41.3,403.6v-23.9h20.9l7.8,7.8H58.6c-2.3,0-4.1,1.8-4.1,4.1c0,2.3,1.8,4.1,4.1,4.1h42.8
	c2.3,0,4.1-1.8,4.1-4.1c0-2.3-1.8-4.1-4.1-4.1H89.9l7.8-7.8h20.9v23.9H41.3z"/>
<linearGradient id="SVGID_8_" gradientUnits="userSpaceOnUse" x1="80" y1="791.9678" x2="80" y2="345.0792">
	<stop  offset="0" style="stop-color:#187FC3"/>
	<stop  offset="1" style="stop-color:#187FC3;stop-opacity:0"/>
</linearGradient>
<path style="opacity:0.66;fill:url(#SVGID_8_);" d="M122.8,371.5h-16.9c0.6-0.7,0.9-1.6,0.9-2.5c0-1.1-0.4-2.1-1.2-2.9l-22.7-22.7
	c-1.6-1.6-4.2-1.6-5.8,0L54.4,366c-0.8,0.8-1.2,1.8-1.2,2.9c0,0.9,0.3,1.8,0.9,2.5H37.2c-2.3,0-4.1,1.8-4.1,4.1v74.9
	c0,2.3,1.8,4.1,4.1,4.1h85.6c2.3,0,4.1-1.8,4.1-4.1v-46.9v-28C126.9,373.3,125.1,371.5,122.8,371.5z M80,352.1L96.9,369l-3.7,3.7
	c0,0,0,0,0,0L80,385.8l-13.1-13.1l0,0l-3.7-3.7L80,352.1z M41.3,403.6v-23.9h20.9l7.8,7.8H58.6c-2.3,0-4.1,1.8-4.1,4.1
	c0,2.3,1.8,4.1,4.1,4.1h42.8c2.3,0,4.1-1.8,4.1-4.1c0-2.3-1.8-4.1-4.1-4.1H89.9l7.8-7.8h20.9v23.9H41.3z"/>
<rect x="320" y="160" class="st90" width="160" height="160"/>
<path class="st10" d="M439.7,189.6l-79.6,0.3c-5.3,0-9.6,4.4-9.6,9.8l0.1,16.7c0,5.4,4.4,9.7,9.7,9.7l3.1,0l0.2,60.8
	c0,1.9,1.5,3.4,3.4,3.4l66.6-0.3c1.9,0,3.4-1.5,3.4-3.4l-0.2-60.8l3.1,0c5.3,0,9.6-4.4,9.6-9.8l-0.1-16.7
	C449.4,193.9,445.1,189.6,439.7,189.6L439.7,189.6z M370.1,210.3l59.8-0.2l0.2,61.6c-5.7,1.3-10.2,5.9-11.5,11.7l-36.7,0.1
	c-1.3-5.8-5.9-10.3-11.6-11.6L370.1,210.3z M370.4,276.6c3.2,1.1,5.8,3.6,6.9,6.9l-6.9,0L370.4,276.6z M423.3,283.2
	c1.1-3.3,3.6-5.8,6.8-6.9l0,6.9L423.3,283.2z M442.7,216.1c0,1.6-1.3,2.9-2.9,2.9l-5.5,0l0-9l3.6,0c1.2,0,2.3-1,2.3-2.3
	c0-1.3-1-2.3-2.3-2.3l-76,0.3c-1.2,0-2.3,1-2.3,2.3s1,2.3,2.3,2.3l3.6,0l0,9l-5.5,0c-1.6,0-2.9-1.3-2.9-2.9l-0.1-16.7
	c0-1.6,1.3-2.9,2.9-2.9l79.6-0.3c1.6,0,2.9,1.3,2.9,2.9L442.7,216.1z M442.7,216.1"/>
<path class="st10" d="M389.6,251.4c0-1.1-0.9-2-2-2c-1.1,0-1.9,0.9-1.9,2.1c0,4,3.4,7.3,8.3,8.8l0,1c0,1.1,0.9,2,2,2
	c1.1,0,1.9-0.9,1.9-2.1l0-0.2c0.7,0.1,1.5,0.1,2.2,0.1c0.8,0,1.5,0,2.2-0.1l0,0.2c0,1.1,0.9,2,2,2c1.1,0,1.9-0.9,1.9-2.1l0-1
	c4.9-1.5,8.3-4.9,8.3-8.9c0-4-3.4-7.3-8.3-8.8l0-11c2.8,1.1,4.4,2.8,4.4,4.5c0,1.1,0.9,2,2,2c1.1,0,1.9-0.9,1.9-2.1
	c0-4-3.4-7.3-8.3-8.8l0-1c0-1.1-0.9-2-2-2c-1.1,0-1.9,0.9-1.9,2.1l0,0.2c-0.7-0.1-1.5-0.1-2.2-0.1c-0.8,0-1.5,0-2.2,0.1l0-0.2
	c0-1.1-0.9-2-2-2c-1.1,0-1.9,0.9-1.9,2.1l0,1c-4.9,1.5-8.3,4.9-8.3,8.9c0,4,3.4,7.3,8.3,8.8l0,11
	C391.3,254.8,389.7,253.1,389.6,251.4L389.6,251.4z M406.2,246.8c2.8,1.1,4.4,2.8,4.4,4.5c0,1.6-1.7,3.4-4.4,4.5L406.2,246.8z
	 M397.9,230.6c0.7-0.1,1.4-0.1,2.2-0.1s1.5,0,2.2,0.1l0,11.2c-0.7-0.1-1.5-0.1-2.2-0.1c-0.8,0-1.5,0-2.2-0.1L397.9,230.6z
	 M397.9,245.7c0.7,0.1,1.5,0.1,2.2,0.1c0.8,0,1.5,0,2.2,0.1l0,11c-0.7,0.1-1.4,0.1-2.2,0.1c-0.8,0-1.5,0-2.2-0.1L397.9,245.7z
	 M389.6,236.1c0-1.6,1.7-3.4,4.4-4.5l0,9C391.3,239.5,389.6,237.8,389.6,236.1L389.6,236.1z M389.6,236.1"/>
<rect x="160" class="st90" width="160" height="160"/>
<g>
	<path class="st10" d="M294.3,100.9c-0.9-2.5-2.7-4.4-5-5.2c-2.3-0.9-4.8-0.6-6.9,0.8l-20.2,12.9l-2.8,1.3l-14.6,0.1
		c-0.2,0-0.3-0.1-0.3-0.2c-0.1-0.1-0.1-0.2,0-0.4c0-0.1,0.1-0.2,0.2-0.2l11.1-4.2c4.3-1.5,6.7-6.2,5.6-10.6
		c-0.6-2.3-2.1-4.2-4.1-5.3c-2-1.1-4.3-1.3-6.4-0.5l-11.4,4.1l-30.1,2.2c-2,0.1-3.8,1-5.2,2.5l-16.3,17.3c-3.1,3.3-3.4,8.6-0.6,12
		c0.7,0.9,3.9,4.1,8.6,8.8c2.8,2.8,5.4,5.4,6.6,6.7c0.4,0.4,0.9,0.6,1.4,0.6c0.4,0,0.9-0.2,1.2-0.5l9-7.9c1.9-1.7,4.3-2.6,6.7-2.6
		l30.8-0.1c1.1,0,2.2-0.2,3.2-0.7l14.5-6.6c0,0,0.1,0,0.1-0.1l0.7-0.4c0,0,0.1,0,0.1-0.1l20.5-13.1
		C294.1,109.1,295.7,104.7,294.3,100.9L294.3,100.9z M288.7,107.8l-20.5,13.1l-0.6,0.3l-14.4,6.6c-0.5,0.2-1.1,0.4-1.7,0.4
		l-30.8,0.1c-3.4,0-6.6,1.3-9.2,3.6l-7.6,6.7c-1.4-1.4-3.4-3.4-5.4-5.4c-3.4-3.4-7.7-7.7-8.4-8.5c-1.4-1.7-1.2-4.6,0.4-6.4
		l16.3-17.3c0.7-0.8,1.7-1.2,2.7-1.3l30.3-2.3c0.2,0,0.3,0,0.5-0.1l11.7-4.2c0.4-0.2,0.9-0.2,1.4-0.2c0.7,0,1.4,0.2,2,0.5
		c1.1,0.6,1.8,1.6,2.1,2.8c0.6,2.3-0.8,4.8-3.1,5.6c0,0,0,0,0,0l-11.1,4.2c-1.1,0.4-1.9,1.2-2.4,2.3c-0.7,1.4-0.6,3,0.2,4.4
		c0.8,1.3,2.2,2.1,3.6,2.1l15-0.1c0.3,0,0.5-0.1,0.8-0.2l3.3-1.5c0.1,0,0.2-0.1,0.2-0.1l20.3-13c1.1-0.7,2.4-0.8,3.6-0.4
		c1.2,0.5,2.2,1.4,2.6,2.8C291.4,104.3,290.5,106.6,288.7,107.8L288.7,107.8z M288.7,107.8"/>
</g>
<path class="st10" d="M255.5,81.9c17.1-0.1,31-14.8,30.9-32.8c-0.1-18-14-32.6-31.1-32.6s-30.9,14.8-30.9,32.8
	C224.4,67.4,238.4,82,255.5,81.9L255.5,81.9z M255.2,20.7c15-0.1,27.2,12.7,27.2,28.5c0.1,15.8-12,28.6-27,28.7
	c-15,0.1-27.2-12.7-27.2-28.5C228.2,33.6,240.3,20.7,255.2,20.7L255.2,20.7z M255.2,20.7"/>
<path class="st10" d="M244.9,57c0-1.1-0.9-2-2-2c-1.1,0-1.9,0.9-1.9,2.1c0,4,3.4,7.3,8.3,8.8l0,1c0,1.1,0.9,2,2,2
	c1.1,0,1.9-0.9,1.9-2.1l0-0.2c0.7,0.1,1.5,0.1,2.2,0.1c0.8,0,1.5,0,2.2-0.1l0,0.2c0,1.1,0.9,2,2,2c1.1,0,1.9-0.9,1.9-2.1l0-1
	c4.9-1.5,8.3-4.9,8.3-8.9c0-4-3.4-7.3-8.3-8.8l0-11c2.8,1.1,4.4,2.8,4.4,4.5c0,1.1,0.9,2,2,2c1.1,0,1.9-0.9,1.9-2.1
	c0-4-3.4-7.3-8.3-8.8l0-1c0-1.1-0.9-2-2-2c-1.1,0-1.9,0.9-1.9,2.1l0,0.2c-0.7-0.1-1.5-0.1-2.2-0.1c-0.8,0-1.5,0-2.2,0.1l0-0.2
	c0-1.1-0.9-2-2-2c-1.1,0-1.9,0.9-1.9,2.1l0,1c-4.9,1.5-8.3,4.9-8.3,8.9c0,4,3.4,7.3,8.3,8.8l0,11C246.6,60.4,244.9,58.6,244.9,57
	L244.9,57z M261.5,52.4c2.8,1.1,4.4,2.8,4.4,4.5c0,1.6-1.7,3.4-4.4,4.5L261.5,52.4z M253.1,36.1c0.7-0.1,1.4-0.1,2.2-0.1
	c0.8,0,1.5,0,2.2,0.1l0,11.2c-0.7-0.1-1.5-0.1-2.2-0.1c-0.8,0-1.5,0-2.2-0.1L253.1,36.1z M253.2,51.2c0.7,0.1,1.5,0.1,2.2,0.1
	c0.8,0,1.5,0,2.2,0.1l0,11c-0.7,0.1-1.4,0.1-2.2,0.1c-0.8,0-1.5,0-2.2-0.1L253.2,51.2z M244.8,41.6c0-1.6,1.7-3.4,4.4-4.5l0,9
	C246.5,45.1,244.8,43.3,244.8,41.6L244.8,41.6z M244.8,41.6"/>
<rect x="320" y="0" class="st90" width="160" height="160"/>
<path class="st10" d="M454.8,35.7c1.8,0,3.3,1.5,3.3,3.3v81.8c0,1.8-1.5,3.3-3.3,3.3H345.2c-1.8,0-3.3-1.5-3.3-3.3V39.1
	c0-1.8,1.5-3.3,3.3-3.3H454.8z M400,81.8l24.9-21.7l20.3-17.8h-90.3l20.3,17.8L400,81.8z M429.1,65.1l-27,23.6
	c-1.2,1.1-3.1,1.1-4.3,0l-27-23.6l-22.3-19.5v68.7l22.3-19.6l12.5-10.9c1.4-1.2,3.5-1.1,4.6,0.3c1.2,1.4,1,3.5-0.3,4.7l-12.5,10.9
	l-20.3,17.7h90.3l-20.3-17.7l-12.5-10.9c-1.4-1.2-1.5-3.3-0.3-4.7c1.2-1.4,3.3-1.6,4.6-0.3l12.5,10.9l22.4,19.6V45.6L429.1,65.1z
	 M429.1,65.1"/>
<rect x="480" class="st90" width="160" height="160"/>
<path class="st10" d="M618.7,78c0,27.4-19.9,50.1-45.7,54.1c0.2-1.2,0.3-2.5,0.1-3.7c0,0-0.2-1.3-0.4-3.1c9.2-1.6,17.5-5.9,24-12
	c-0.4-0.3-0.8-0.8-1.2-1.3c-1.7-2.6,0.5-5.2,0.5-7.4c0-2.2-4.4-2-4.6-3.5c-0.6-5.1,3.1-5.2,5-7.1c1.9-2-1.9-6.4-4.4-6.1
	c-2.5,0.3-9.6-1.2-8.9-6.7c0.8-6.7-8.4-6.1-9.7-9.2c-1.9-4.5,1.3-10.1,5.4-11.4c5.9-1.8,11.6-6.7,11.2-12.1
	c-0.5-6.1-3.2-11.7-7.7-14.9c-4.7-1.9-9.7-3.1-15-3.4c-4.7,0.2-8.9,1.3-8.7,3.4c0.5,5.4,15.5,6.8,13,11.8
	c-1.3,2.6-11.2,6.3-9.3,10.2c1.2,2.5,4.2,0.4,3,5.2c-0.5,2.2-2.4,6.4-5.4,6.7c-3,0.3-5.6-7.9-13.8-8.2c-3.9-0.1-9.4,6.2-4.7,10.7
	c2.8,2.7,8.1-3.3,9.7,1.4c1.1,3.3-0.1,10.2,5,13.1c1.9,1.1,4.8,2,7.6,3.4c-4.2,0.9-9.4,2.5-15.6,4.9l-5.2-1.4
	c2.2-1.8,5.7-3.1,4.8-7.1c-1.3-5.9-11.3-3.7-18.3-10.7c-2.1-2.2-6.7-9.3-6.6-17.9c-3.5,6.7-5.4,14.2-5.4,22.3c0,2.5,0.2,4.9,0.5,7.3
	c-0.1,0-0.2,0-0.2,0c-2.2,0-4.3,0.5-6.3,1.3c-0.4-2.8-0.7-5.7-0.7-8.6c0-30.2,24.2-54.8,53.9-54.8S618.7,47.8,618.7,78L618.7,78z
	 M578.2,94l-13.2,6.1l0.2-2.9l8.5-3.9c-1.2-0.1-2.5-0.1-3.7-0.1c-4.7,0-12.7,2.4-21.5,6l-28.2-7.6c-2.6-0.7-5.5-0.3-7.8,1.2
	l-1.4,0.9c-1.4,0.9-1.4,2.9,0,3.8l17,11.2c-4.1,2.1-7.9,4.2-11.3,6.3l-8.7-4.7c-1.4-0.8-3.1-0.9-4.6-0.2l-0.8,0.3
	c-1.2,0.5-1.7,2-1.1,3.2l4.8,8.7l0,0c-1.8,1.6-2.8,2.9-2.8,3.8c0,2.7,3.3,3.4,6.2,3.4c5.2,0,73.6-15.9,73.6-30.3
	C583.3,96.1,581.4,94.7,578.2,94L578.2,94z M549.4,122.1l15-5.4c0.7-0.2,1.4,0.2,1.5,0.9l1.3,11.5c0.3,2.9-1.2,5.6-3.8,6.8l-1.4,0.7
	c-0.9,0.4-1.9,0.2-2.6-0.5l-10.5-12.2C548.4,123.3,548.7,122.3,549.4,122.1L549.4,122.1z M549.4,122.1"/>
<rect class="st90" width="160" height="160"/>
<path class="st10" d="M136.1,84.9c0-2.2-0.5-4.3-1.4-6.2c-0.1-0.5-0.2-1-0.3-1.5L124.5,53l-0.1-0.2c-3.5-10.2-8.4-19.6-20.7-19.5
	l-47.1,0.2C44,33.5,39.6,43.2,36.1,53.1L26,77.4c-1.5,2.4-2.3,5.1-2.3,8l0,7.5c0,1.2,0.1,2.3,0.4,3.4c-0.3,0.7-0.4,1.4-0.4,2.1
	l0.1,22.4c0,3.3,2.7,5.9,6,5.9l12.3-0.1c3.3,0,5.9-2.7,5.9-6l0-11.2l64.7-0.3l0,11.2c0,3.3,2.7,5.9,6,5.9l11.6,0
	c3.3,0,5.9-2.7,5.9-6l-0.1-22.4c0-0.7-0.2-1.5-0.4-2.1c0.3-1.1,0.4-2.2,0.4-3.4L136.1,84.9z M43.4,55.5c3.8-11,7-14.3,13.3-14.4
	l47.1-0.2c6.3,0,9.8,3.7,13.4,14.2l7.2,14.4c-2.3-0.9-4.9-1.3-7.6-1.3L43,68.5c-2.4,0-4.7,0.4-6.9,1.1L43.4,55.5z M49.7,95.6
	l-13,0.1c-2.3,0-4.3-1.9-4.3-4.2c0-2.3,1.9-4.3,4.2-4.3l13-0.1c2.3,0,4.3,1.9,4.3,4.2C53.9,93.7,52,95.6,49.7,95.6L49.7,95.6z
	 M95.7,94.6l-30.3,0.1c-1.5,0-2.7-1.2-2.7-2.7c0-1.5,1.2-2.7,2.7-2.7l30.3-0.1c1.5,0,2.7,1.2,2.7,2.7C98.3,93.4,97.1,94.6,95.7,94.6
	L95.7,94.6z M123,95.3l-13,0.1c-2.3,0-4.3-1.9-4.3-4.2c0-2.3,1.9-4.3,4.2-4.3l13-0.1c2.3,0,4.3,1.9,4.3,4.2
	C127.2,93.4,125.3,95.3,123,95.3L123,95.3z M123,95.3"/>
</svg>
